<svg width="160" height="204" viewBox="0 0 160 204" fill="none" xmlns="http://www.w3.org/2000/svg">
<g filter="url(#filter0_d)">
<g filter="url(#filter1_d)">
<path d="M79.6123 34.562C57.3304 34.562 39.3022 51.8072 39.3022 73.0582C39.3022 94.3092 79.6123 155.211 79.6123 155.211C79.6123 155.211 119.922 94.3092 119.922 73.0582C119.922 51.8072 101.894 34.562 79.6123 34.562Z" fill="white"/>
</g>
<path d="M70.0622 88.6874C70.2864 89.1792 70.6308 88.9454 70.9912 88.9374C71.5678 88.9212 71.9201 88.5342 72.4407 88.3085C71.9842 88.1714 71.5998 88.0505 71.1914 87.9215C71.0632 88.1875 70.9271 88.4778 70.7829 88.7761C70.7429 88.7761 70.6949 88.7761 70.6548 88.7761C70.6068 88.5584 70.5427 88.3407 70.5267 88.123C70.5107 87.865 70.4226 87.736 70.1503 87.728C69.9981 87.7199 69.846 87.6231 69.6378 87.5425C69.4856 87.9457 69.3094 88.3972 69.1012 88.9535C68.7488 88.3407 68.8129 87.7683 68.8449 87.2119C68.3804 86.9459 68.3804 86.9459 68.0921 87.8247C68.0361 87.6876 67.94 87.5506 67.932 87.4135C67.8999 87.0749 67.7638 86.8652 67.4034 86.7685C67.1151 86.6798 67.019 86.7121 67.011 87.0265C67.003 87.3974 66.963 87.7763 66.8989 88.1472C66.8749 88.3165 66.7708 88.4778 66.7067 88.6471C66.6666 88.6471 66.6266 88.6471 66.5946 88.6471C66.5465 88.4939 66.4905 88.3407 66.4424 88.1875C66.3063 87.728 66.1861 87.2603 66.042 86.8007C65.9859 86.6153 65.8978 86.5105 65.6576 86.5911C65.4974 86.6476 65.3052 86.5992 65.0409 86.5992C64.9769 86.7927 64.8808 87.0588 64.7847 87.3248C64.7446 87.3329 64.6966 87.3409 64.6565 87.349C64.5765 87.1152 64.5044 86.8814 64.4083 86.6476C64.3522 86.5105 64.2721 86.3895 64.2001 86.2605C64.112 86.3895 64.0319 86.5266 63.9438 86.6556C63.9118 86.7121 63.8797 86.7685 63.7996 86.9217C63.6395 86.6072 63.5193 86.3573 63.3832 86.0912C62.2941 86.0509 62.6544 87.0265 62.4062 87.5748C62.3661 87.5828 62.3261 87.5909 62.2781 87.599C62.19 87.349 62.0618 87.1152 62.0298 86.8572C61.9897 86.5508 62.0538 86.2444 62.0458 85.93C62.0458 85.8252 61.9737 85.7284 61.9337 85.6236C61.8216 85.68 61.6534 85.7042 61.6134 85.7848C61.5173 86.0267 61.4692 86.2928 61.317 86.575C61.261 86.3492 61.1809 86.1235 61.1649 85.8977C61.1168 85.2043 61.0768 84.519 61.0528 83.8256C61.0207 83.0838 61.277 82.7291 61.9817 82.463C62.246 82.3582 62.4863 82.1728 62.7586 82.0679C62.9828 81.9793 63.2631 81.8664 63.4793 81.9228C64.0559 82.0599 64.6245 82.2453 65.1691 82.4791C65.6175 82.6726 66.05 82.7855 66.5465 82.7936C67.011 82.8016 67.4755 82.971 67.924 83.1322C68.2523 83.2532 68.5246 83.3419 68.8689 83.1564C69.0451 83.0677 69.3494 83.1 69.5497 83.1887C70.0302 83.3902 70.5027 83.3499 70.9992 83.2773C71.776 83.1725 72.5528 83.1322 73.3376 83.0435C73.5699 83.0193 73.8101 82.9629 74.0183 82.8662C74.3627 82.7049 74.699 82.5114 75.0194 82.3018C75.2196 82.1647 75.3798 81.9551 75.572 81.8019C76.0204 81.431 76.525 81.3907 77.0775 81.5439C77.2697 81.6003 77.502 81.5116 77.7182 81.4955C77.8463 81.4874 77.9825 81.4713 78.1106 81.4632C78.511 81.431 78.9115 81.3987 79.3199 81.3746C79.6642 81.3504 80.0166 81.2617 80.3369 81.3342C81.0337 81.4955 81.5142 81.1004 82.0027 80.7537C82.0988 80.6892 82.1228 80.3022 82.0267 80.2055C81.5462 79.7136 81.5863 79.1815 81.7704 78.601C81.9787 77.9398 82.339 77.4158 83.0037 77.1658C83.5723 76.9481 83.7485 76.6176 83.6124 76.029C83.5964 75.9725 83.5563 75.9161 83.5083 75.8758C83.26 75.65 83.0198 75.4082 82.7475 75.2147C82.6514 75.1502 82.4672 75.1663 82.339 75.2147C82.259 75.2388 82.1548 75.392 82.1709 75.4727C82.267 76.0612 81.8025 76.4321 81.6263 76.9239C81.4501 76.545 81.1858 76.1902 81.2819 75.7549C81.346 75.4565 81.2099 75.2953 80.9696 75.2711C80.8174 75.255 80.6333 75.392 80.4891 75.4888C80.3369 75.5936 80.1848 75.7145 80.0647 75.8597C79.9445 76.0048 79.8564 76.1822 79.7203 76.3999C79.5361 76.037 79.6722 75.6904 79.7043 75.3678C79.7283 75.1502 79.8725 74.9405 79.9125 74.7228C79.9365 74.5858 79.9045 74.4084 79.8244 74.2955C79.7844 74.2391 79.5842 74.2794 79.464 74.3116C79.2078 74.3842 78.9595 74.4729 78.6792 74.5696C78.5271 74.0939 78.8634 73.8037 79.1357 73.5215C79.416 73.2312 79.7603 72.9974 80.1608 72.6749C80.0086 72.5943 79.8885 72.5378 79.6883 72.433C80.0967 72.3201 80.361 72.2073 80.6413 72.1831C81.0177 72.1589 81.1057 71.9089 81.1538 71.6348C81.346 70.4496 81.8425 69.4095 82.5393 68.4581C82.7875 68.1195 83.1399 67.8615 83.4282 67.5551C83.5643 67.418 83.7245 67.2568 83.7725 67.0875C84.1249 65.7571 85.0459 64.9589 86.2071 64.3623C86.2391 64.3461 86.2792 64.33 86.2952 64.3219C86.1831 63.2819 86.079 62.2498 85.9668 61.2017C85.3021 60.8469 84.9898 60.1213 84.5413 59.5085C84.5013 59.4521 84.4613 59.3795 84.4052 59.3473C83.8446 58.9925 83.1959 58.7184 82.7314 58.2669C82.283 57.8315 81.7464 57.6944 81.2259 57.4687C80.7854 57.2752 80.345 57.0816 79.9205 56.8559C79.7363 56.7591 79.5922 56.5818 79.392 56.4044C79.1197 56.3238 78.7673 56.2431 78.439 56.1141C77.8223 55.8722 77.2377 55.5659 76.6131 55.3643C76.1406 55.2111 75.62 55.195 75.1315 55.0821C74.9313 55.0337 74.7471 54.9128 74.5629 54.816C74.4988 54.7838 74.4348 54.7273 74.3707 54.7273C73.698 54.7032 72.9692 54.8322 72.3526 54.6306C71.5518 54.3645 70.7029 54.6145 69.9581 54.2597C69.0531 53.8243 68.1162 54.0662 67.1952 54.0017C67.0911 53.9936 66.971 54.0339 66.8749 54.0017C65.7857 53.6228 64.7606 54.0985 63.7035 54.2033C63.4313 54.2275 63.151 54.2113 62.8707 54.2194C62.7666 54.2194 62.6625 54.2355 62.5583 54.2516C61.6854 54.4048 60.8045 54.558 59.9396 54.7273C59.6593 54.7838 59.379 54.8886 59.1067 54.9853C58.45 55.2111 57.7613 55.3401 57.1207 55.6546C56.0315 56.1948 54.8463 56.5414 53.7892 57.1623C53.1004 57.5654 52.3637 57.8799 51.6269 58.1943C51.4267 58.283 51.1624 58.2185 50.9302 58.2185C51.0183 58.0089 51.0663 57.7509 51.2185 57.6057C51.4027 57.4203 51.683 57.3235 51.9072 57.1703C52.0113 57.0978 52.1314 56.993 52.1715 56.8801C52.2836 56.5737 52.4598 56.3802 52.8041 56.3479C52.9163 56.3399 53.0444 56.227 53.1085 56.1302C53.3167 55.7836 53.5569 55.5255 53.9093 55.582C54.1335 55.3804 54.3177 55.2272 54.4939 55.066C54.582 54.9853 54.6541 54.8967 54.7342 54.808C54.7822 54.7515 54.8142 54.6467 54.8783 54.6225C55.4069 54.3806 55.9354 54.1549 56.464 53.913C56.5761 53.8566 56.6962 53.7921 56.7923 53.7195C57.2328 53.3889 57.7773 53.2196 58.1377 52.7359C58.2338 52.5988 58.6102 52.6472 58.8585 52.6552C59.1067 52.6552 59.2509 52.5746 59.4191 52.373C59.5872 52.1715 59.8755 52.0102 60.1318 51.9538C60.4922 51.8812 60.8606 52.0183 61.1489 51.5829C61.269 51.3974 61.7095 51.4378 62.0058 51.3491C62.1579 51.3088 62.3902 51.2604 62.4382 51.1475C62.6544 50.6799 63.0388 50.7444 63.4232 50.7282C63.6555 50.7202 63.8957 50.6396 64.128 50.5912C64.4083 50.5347 64.6966 50.4057 64.9689 50.4219C65.2411 50.446 65.4334 50.4219 65.6015 50.2042C65.6416 50.1558 65.7056 50.0913 65.7617 50.0913C66.4344 50.0671 66.995 49.4624 67.7318 49.7043C67.8118 49.7285 67.924 49.6559 68.012 49.6237C68.6287 49.3979 69.2373 49.156 69.854 48.9544C70.0222 48.898 70.2384 48.9141 70.4066 48.9706C70.831 49.1076 71.1754 48.9706 71.5598 48.8013C71.776 48.7045 72.0563 48.7448 72.3045 48.7287C72.5448 48.7126 72.785 48.7126 73.0253 48.6964C73.0733 48.6964 73.1294 48.64 73.1775 48.6481C74.0343 48.8819 74.9633 48.2127 75.7962 48.8738C75.8923 48.9544 76.1325 48.9141 76.2767 48.8496C76.613 48.7045 76.9014 48.5916 77.2377 48.8819C77.3338 48.9625 77.558 48.8899 77.7262 48.898C77.9745 48.9141 78.2147 48.9303 78.463 48.9625C78.7833 49.0028 79.1037 49.1076 79.424 49.0996C79.7844 49.0915 80.0887 49.1238 80.377 49.3818C80.5452 49.5269 80.8335 49.5833 81.0737 49.5914C81.4821 49.5995 81.8665 49.5753 82.1629 49.9381C82.1949 49.9784 82.283 49.9865 82.347 49.9784C82.4111 49.9784 82.5072 49.9139 82.5393 49.9381C82.9317 50.2687 83.4442 50.188 83.8847 50.3574C84.173 50.4702 84.4212 50.6718 84.6935 50.8169C84.7656 50.8572 84.8777 50.8492 84.9578 50.8169C85.3102 50.696 85.5264 50.8572 85.6625 51.1636C85.7907 51.4539 85.9748 51.591 86.3032 51.599C86.4634 51.6071 86.7196 51.7119 86.7677 51.8409C86.9038 52.1876 87.1361 52.2521 87.4564 52.2521C87.5525 52.2521 87.6566 52.3166 87.7527 52.365C89.0981 53.0987 90.4435 53.8404 91.7969 54.558C93.2705 55.3401 94.3917 56.5173 95.4808 57.7428C96.0974 58.4442 96.6901 59.1618 97.3708 59.831C97.2346 59.5891 97.0664 59.3634 96.9623 59.1054C96.8823 58.9199 96.7942 58.6458 96.8742 58.5087C97.1786 57.9847 97.5149 57.4687 97.8993 57.001C98.1155 56.743 98.4439 56.6946 98.7722 56.9285C98.8924 57.0171 99.0685 57.0413 99.2287 57.0655C99.5651 57.122 99.8774 57.1542 100.014 57.5654C100.054 57.6864 100.35 57.7428 100.534 57.7831C101.071 57.8879 101.239 57.9766 101.399 58.3072C100.766 58.5894 100.798 58.5974 101.271 59.1779C102.16 60.2664 102.736 61.4839 102.496 62.9513C102.48 63.0642 102.544 63.2093 102.6 63.3222C102.993 64.0559 102.985 64.7896 102.568 65.5072C102.24 66.0716 101.968 66.6924 101.239 66.8939C102.544 70.4818 102.536 74.0456 101.271 77.6415C102.208 77.8028 102.921 78.2946 103.529 78.9638C103.545 78.9799 103.569 79.0041 103.585 79.0202C104.074 79.754 104.594 80.4473 105.195 81.1004C105.491 81.4229 105.587 82.0034 105.643 82.4791C105.715 83.1403 105.667 83.8176 105.659 84.4948C105.651 85.0834 105.868 85.4059 106.396 85.6155C106.701 85.7365 106.997 85.8897 107.277 86.059C107.429 86.1557 107.541 86.3331 107.67 86.4702C107.646 86.4944 107.63 86.5266 107.605 86.5508C107.445 86.5186 107.293 86.4944 107.085 86.4541C107.117 86.5427 107.117 86.6072 107.149 86.6234C107.493 86.8814 107.838 87.1394 108.198 87.3813C108.687 87.7199 108.566 88.2682 108.695 88.76C108.278 88.3891 107.605 88.7277 107.285 88.1633C107.245 88.0908 106.981 88.1553 106.917 88.1553C106.869 88.8729 106.829 89.5421 106.789 90.2032C106.757 90.2193 106.717 90.2274 106.685 90.2435C106.428 89.9371 106.172 89.6308 105.908 89.3324C105.828 89.2437 105.651 89.1228 105.627 89.147C105.515 89.2357 105.371 89.3889 105.387 89.4937C105.427 89.7678 105.307 89.8726 105.091 89.9855C104.963 90.05 104.875 90.2032 104.771 90.3241C104.674 90.437 104.586 90.566 104.498 90.687C104.458 90.6789 104.418 90.6708 104.378 90.6628C104.362 90.4612 104.33 90.2596 104.322 90.0581C104.306 89.7678 104.322 89.4776 104.306 89.1873C104.282 88.8648 104.09 88.7842 103.826 88.9696C103.761 89.018 103.697 89.0825 103.625 89.0906C103.177 89.1712 103.169 89.1712 103.017 89.6308C102.937 89.4856 102.873 89.405 102.84 89.3002C102.712 88.8245 102.953 88.1633 103.369 87.9053C103.81 87.6393 103.874 86.8652 103.649 86.5024C103.393 86.0912 103.121 85.6962 102.873 85.285C102.664 84.9383 102.568 84.5916 102.704 84.1723C102.848 83.7208 102.6 83.3741 102.144 83.2532C101.423 83.0677 100.71 82.8742 99.9575 82.6646C99.6612 83.0919 99.3408 83.5676 99.0045 84.0352C98.1476 85.2205 97.0825 86.1154 95.6249 86.4621C95.4407 86.5024 95.2726 86.6476 95.1124 86.7524C94.8561 86.9217 94.6159 87.1313 94.2715 86.9943C94.2155 86.9701 94.0953 87.0346 94.0473 87.0991C92.0372 89.792 89.5065 91.8238 86.3432 92.9606C85.0138 93.4363 83.6444 93.783 82.267 94.0975C81.7865 94.2023 81.2419 94.0572 80.7374 93.9685C80.5291 93.9282 80.377 93.8879 80.1928 94.033C78.5831 95.2666 76.8133 95.5085 74.8912 94.9602C73.69 94.6216 72.4887 94.5571 71.2635 94.9118C70.8951 95.0166 70.4706 94.9199 70.0782 94.9199C69.3174 94.9118 68.5646 94.9038 67.8038 94.9038C67.7398 94.9038 67.6677 94.9199 67.6116 94.9521C66.6746 95.5165 65.6576 95.1618 64.6726 95.2021C63.5674 95.2505 62.7025 94.6458 61.9177 93.9282C61.6214 93.654 61.6614 93.267 62.0058 92.9042C62.0858 92.8155 62.1419 92.6785 62.1579 92.5575C62.214 92.1705 62.246 91.7754 62.2861 91.3804C62.3421 91.3723 62.3982 91.3642 62.4462 91.3562C62.5023 91.5255 62.5423 91.7109 62.6224 91.8722C62.7105 92.0415 62.8386 92.3237 62.9588 92.3318C63.191 92.3398 63.4953 92.2673 63.4953 91.8883C63.4953 91.7432 63.5914 91.5981 63.7436 91.4287C63.8237 91.6061 63.8957 91.7835 63.9758 91.977C64.3122 91.719 64.6726 91.4932 64.9609 91.1949C65.097 91.0498 65.089 90.7676 65.145 90.5499C65.2331 90.2274 65.2412 89.8646 65.6416 89.5904C65.6816 90.1629 65.7136 90.6708 65.7537 91.1707C65.8097 91.1869 65.8578 91.203 65.9139 91.211C66.034 90.9853 66.1461 90.7515 66.3063 90.4451C66.4104 90.695 66.4824 90.8724 66.5625 91.0578C66.7067 91.0578 66.8428 91.0578 66.979 91.0578C67.0671 90.7998 67.1471 90.558 67.2673 90.1871C67.3794 90.4128 67.4114 90.5499 67.4915 90.6386C67.5796 90.7353 67.7157 90.8482 67.8359 90.8482C68.0361 90.8563 68.1882 90.7515 68.1802 90.5015C68.1722 90.3403 68.2123 90.171 68.2283 89.9452C68.4525 90.0823 68.6047 90.179 68.7648 90.2838C68.8529 90.1226 68.941 89.9694 69.0451 89.7839C69.7659 90.1629 69.3334 89.405 69.4616 89.2518C69.7178 89.2679 69.918 89.2841 70.1102 89.2921C70.0302 89.1228 70.0462 88.9051 70.0622 88.6874ZM84.3572 72.2234C84.3251 72.2153 84.2931 72.2073 84.2691 72.1911C83.8046 72.5217 83.3401 72.8603 82.8276 73.2232C82.9397 73.5457 83.0278 73.9004 83.1959 74.2149C83.3801 74.5696 83.6364 74.8841 83.5003 75.3275C83.4762 75.4162 83.5323 75.5372 83.5563 75.642C83.8206 74.489 84.0849 73.3602 84.3572 72.2234Z" fill="#20113D"/>
<g filter="url(#filter2_d)">
<path d="M80.0001 28.335C53.6474 28.335 32.3257 48.2504 32.3257 72.7919C32.3257 97.3334 80.0001 167.665 80.0001 167.665C80.0001 167.665 127.675 97.3334 127.675 72.7919C127.675 48.2504 106.353 28.335 80.0001 28.335Z" stroke="white" stroke-width="3" stroke-miterlimit="10" stroke-linejoin="round"/>
</g>
</g>
<defs>
<filter id="filter0_d" x="0" y="0" width="160" height="204" filterUnits="userSpaceOnUse" color-interpolation-filters="sRGB">
<feFlood flood-opacity="0" result="BackgroundImageFix"/>
<feColorMatrix in="SourceAlpha" type="matrix" values="0 0 0 0 0 0 0 0 0 0 0 0 0 0 0 0 0 0 127 0"/>
<feOffset dy="4"/>
<feGaussianBlur stdDeviation="15"/>
<feColorMatrix type="matrix" values="0 0 0 0 0.960784 0 0 0 0 0.501961 0 0 0 0 0.129412 0 0 0 0.7 0"/>
<feBlend mode="normal" in2="BackgroundImageFix" result="effect1_dropShadow"/>
<feBlend mode="normal" in="SourceGraphic" in2="effect1_dropShadow" result="shape"/>
</filter>
<filter id="filter1_d" x="9.30225" y="8.56201" width="140.62" height="180.649" filterUnits="userSpaceOnUse" color-interpolation-filters="sRGB">
<feFlood flood-opacity="0" result="BackgroundImageFix"/>
<feColorMatrix in="SourceAlpha" type="matrix" values="0 0 0 0 0 0 0 0 0 0 0 0 0 0 0 0 0 0 127 0"/>
<feOffset dy="4"/>
<feGaussianBlur stdDeviation="15"/>
<feColorMatrix type="matrix" values="0 0 0 0 1 0 0 0 0 1 0 0 0 0 1 0 0 0 0.5 0"/>
<feBlend mode="normal" in2="BackgroundImageFix" result="effect1_dropShadow"/>
<feBlend mode="normal" in="SourceGraphic" in2="effect1_dropShadow" result="shape"/>
</filter>
<filter id="filter2_d" x="0.825684" y="0.834961" width="158.349" height="202.33" filterUnits="userSpaceOnUse" color-interpolation-filters="sRGB">
<feFlood flood-opacity="0" result="BackgroundImageFix"/>
<feColorMatrix in="SourceAlpha" type="matrix" values="0 0 0 0 0 0 0 0 0 0 0 0 0 0 0 0 0 0 127 0"/>
<feOffset dy="4"/>
<feGaussianBlur stdDeviation="15"/>
<feColorMatrix type="matrix" values="0 0 0 0 0 0 0 0 0 0 0 0 0 0 0 0 0 0 0.5 0"/>
<feBlend mode="normal" in2="BackgroundImageFix" result="effect1_dropShadow"/>
<feBlend mode="normal" in="SourceGraphic" in2="effect1_dropShadow" result="shape"/>
</filter>
</defs>
</svg>
