<svg width="160" height="204" viewBox="0 0 160 204" fill="none" xmlns="http://www.w3.org/2000/svg">
<g filter="url(#filter0_d)">
<g filter="url(#filter1_d)">
<path d="M79.6123 34.562C57.3304 34.562 39.3022 51.8072 39.3022 73.0582C39.3022 94.3092 79.6123 155.211 79.6123 155.211C79.6123 155.211 119.922 94.3092 119.922 73.0582C119.922 51.8072 101.894 34.562 79.6123 34.562Z" fill="white"/>
</g>
<path fill-rule="evenodd" clip-rule="evenodd" d="M90.8261 69.1612L90.8276 69.1642C91.3305 70.2017 91.8334 71.2392 92.3546 72.3226C92.2226 72.427 92.0889 72.5348 91.9532 72.6442L91.9531 72.6442C91.6466 72.8914 91.3299 73.1466 91 73.3887C90.6334 73.6562 90.2698 73.9275 89.9064 74.1987L89.9062 74.1988C89.0087 74.8685 88.1123 75.5374 87.1742 76.1458C83.7969 78.3422 80.0717 79.2337 76.0629 78.8845C75.0835 78.8018 74.0493 78.4617 73.6374 78.1768C73.8751 76.525 74.1035 74.9189 74.332 73.313L74.333 73.306C74.3056 73.2968 74.2759 73.2899 74.2462 73.283L74.2461 73.283C74.2163 73.2761 74.1866 73.2692 74.1591 73.26C74.0699 73.4418 73.9815 73.6236 73.8931 73.8051C73.6733 74.2569 73.4541 74.7074 73.2256 75.1532C72.632 76.3308 72.234 77.5814 71.8351 78.8347L71.8351 78.8347C71.7235 79.1855 71.6118 79.5365 71.4957 79.8862C70.7635 82.0643 69.4547 83.7369 67.2306 84.5548C67.1207 84.6008 67.0292 84.7846 66.9834 84.9225C66.8938 85.2083 66.8141 85.4974 66.7344 85.7863C66.6271 86.1756 66.5199 86.5645 66.3885 86.9443C65.8851 88.4148 64.9424 89.5544 63.6702 90.4274C63.1027 90.8134 62.5352 91.2086 61.9952 91.6313C61.5285 91.9898 61.5468 92.146 62.0044 92.5044C62.0939 92.5746 62.184 92.6437 62.2738 92.7127C62.5605 92.9327 62.8449 93.151 63.1027 93.3959C63.5237 93.8003 63.7159 94.3149 63.5603 94.9031C63.5237 95.0409 63.3132 95.2247 63.1851 95.2247C60.183 95.2431 57.1718 95.2431 54.1697 95.2339C54.0599 95.2339 53.9043 95.1972 53.8402 95.1236C53.7483 95.0112 53.6541 94.8993 53.5597 94.787L53.5597 94.7869C53.2218 94.3851 52.8804 93.9791 52.6229 93.5337C52.4582 93.2488 52.4399 92.7709 52.5497 92.4493C53.6114 89.2051 54.9752 86.1264 57.547 83.7645C57.6569 83.6634 57.7209 83.4428 57.7301 83.2866C57.7942 80.9523 58.0688 78.6363 58.6637 76.3847C59.1762 74.4364 59.7254 72.488 60.6956 70.6959C62.4803 67.4242 64.7868 64.6947 68.3289 63.2243C71.3767 61.9652 74.3513 62.1582 77.2527 63.647C77.651 63.8532 78.0113 64.136 78.3622 64.4114C78.5273 64.541 78.6904 64.669 78.8544 64.7866C78.5249 64.0698 77.9483 63.4816 77.3259 62.9394C77.9121 62.7155 78.5004 62.4988 79.0876 62.2825C81.6825 61.3268 84.2571 60.3785 86.5335 58.8497C86.6337 59.1998 86.7322 59.5534 86.8311 59.909L86.8313 59.9095C86.9583 60.3659 87.0863 60.8255 87.22 61.2851C87.2566 61.3954 87.3298 61.4965 87.4213 61.5884C87.2383 60.4488 87.2383 59.3092 87.6685 58.2615C88.0712 57.269 88.5563 56.2672 89.1786 55.4033C90.7071 53.308 92.5468 51.4883 94.597 49.8984L94.5971 49.8983C94.6795 49.834 94.7618 49.7697 94.8533 49.7054C95.0003 49.6112 95.1459 49.5108 95.2918 49.4103L95.2919 49.4102C96.0003 48.922 96.7159 48.4289 97.6265 48.6117C99.1276 48.9058 100.382 49.6962 101.242 50.992C101.489 51.3596 101.773 51.617 102.166 51.7548C103.191 52.1132 103.96 52.729 104.454 53.7307C104.634 54.0967 104.892 54.4209 105.151 54.7455C105.275 54.9018 105.4 55.0583 105.516 55.2195C105.754 55.5504 105.8 55.8261 105.534 56.2121C105.315 56.5337 105.205 56.9657 105.141 57.3609C105.059 57.8296 105.242 58.1329 105.736 58.3902C107.026 59.0519 107.777 60.5315 107.063 62.0295C106.944 62.2777 106.834 62.5258 106.733 62.7831C106.258 64.0146 105.351 64.4466 104.107 64.0146C104.094 64.0103 104.081 64.0061 104.068 64.0018C104.06 63.9992 104.052 63.9966 104.044 63.9939C103.98 63.9733 103.917 63.9526 103.869 63.9319C103.64 64.2536 103.411 64.566 103.164 64.8969C103.129 64.8538 103.099 64.8224 103.076 64.7984C103.045 64.7661 103.027 64.7473 103.027 64.7315C103.1 63.9411 102.624 63.4724 102.093 62.9945C99.6127 60.7521 96.574 61.1564 94.4963 62.4523C94.7299 62.4047 94.9613 62.3528 95.1921 62.3011C95.6304 62.2027 96.0662 62.1049 96.5099 62.0387C99.1459 61.6711 101.434 62.8566 102.651 65.2277C103.493 66.8636 104.088 68.573 103.942 70.4662L103.94 70.4883V70.4884C103.913 70.8592 103.884 71.263 103.731 71.5874C103.201 72.727 103.365 73.8758 103.658 75.0062L103.712 75.2168L103.712 75.2169C103.987 76.2909 104.269 77.3935 104.793 78.3422C106.816 81.9908 106.981 85.9334 106.834 89.9311C106.77 91.6497 106.221 93.1753 104.811 94.2873C104.024 94.9123 103.182 95.3442 102.13 95.2615C101.645 95.2247 101.15 95.2155 100.665 95.2615C99.75 95.3626 99.1184 94.9031 98.5784 94.2598C97.9927 93.5705 97.7272 92.7709 97.892 91.8703C97.9377 91.6314 98.1116 91.3373 98.313 91.227C98.5659 91.0921 98.7506 91.2793 98.9378 91.469C98.9673 91.499 98.9969 91.529 99.0269 91.5578C99.309 91.8319 99.6815 92.0334 100.037 92.2253L100.037 92.2254L100.043 92.2287C100.354 92.3941 100.519 92.2563 100.555 91.9071C100.592 91.4935 100.464 91.1443 100.153 90.8778C98.4045 89.3797 97.3062 87.4222 96.3177 85.3912C95.558 83.8196 95.073 82.1746 94.8991 80.4284C94.7709 79.1142 94.9997 77.8368 95.2469 76.5593C95.3658 75.9803 95.4848 75.3922 95.5214 74.7948C95.6038 73.6093 95.1919 72.6075 94.176 71.9734C92.9221 71.1922 91.8055 70.2548 90.9085 69.0785C90.9177 69.106 90.8719 69.1336 90.8261 69.1612ZM93.5078 73.3334C94.0387 73.7654 94.2309 74.2616 94.121 74.8774C94.0533 75.2756 93.9788 75.6726 93.9043 76.0697L93.9042 76.0699C93.7672 76.8001 93.6301 77.5305 93.5353 78.2686C93.2241 80.7591 93.8007 83.1118 94.7617 85.3818C94.9356 85.7954 94.9539 86.1263 94.7709 86.5398C93.938 88.433 93.0319 90.2803 91.8603 91.9988C90.341 94.2229 88.2176 95.2522 85.5633 95.2522C85.4064 95.2522 85.2504 95.2547 85.0947 95.2572H85.0947C84.7325 95.2629 84.3722 95.2687 84.0073 95.243C83.8243 95.2338 83.5955 95.1143 83.4948 94.9673C82.6436 93.8093 82.79 91.4107 83.7694 90.3538C83.8792 90.2343 84.1263 90.124 84.2636 90.17C84.368 90.2074 84.442 90.3667 84.5104 90.514C84.5259 90.5475 84.5412 90.5804 84.5565 90.6111C84.5943 90.6869 84.6217 90.7705 84.649 90.8536C84.6945 90.9921 84.7396 91.1292 84.8311 91.2268C84.9958 91.4198 85.2796 91.6956 85.4626 91.6588C85.6548 91.622 85.847 91.282 85.9294 91.043C86.0118 90.8133 85.9843 90.5284 85.9386 90.2894C85.8722 89.953 85.789 89.6189 85.706 89.2855C85.56 88.6992 85.4145 88.1149 85.3619 87.5232C85.1148 84.8672 85.3528 82.2572 86.4969 79.8034C86.7623 79.2428 87.0643 78.673 87.4579 78.1951C87.8698 77.6804 88.3823 77.2301 88.904 76.8257C89.4394 76.4033 89.991 76.0039 90.5434 75.6039C90.9165 75.3338 91.29 75.0633 91.659 74.7855C92.0704 74.471 92.4778 74.1482 92.8921 73.8199L92.8922 73.8199L92.8926 73.8195C93.0956 73.6587 93.3002 73.4966 93.5078 73.3334ZM73.8366 79.8675C73.6016 79.7977 73.3654 79.7275 73.1249 79.6565C73.0433 79.8339 72.9643 80.0138 72.885 80.1944C72.7507 80.5003 72.6155 80.808 72.4659 81.1086C71.5598 82.9466 70.3699 84.5457 68.5302 85.575C68.3838 85.6577 68.2831 85.8691 68.2282 86.0437C67.7889 87.5234 67.2397 88.9387 66.2238 90.1334C66.1505 90.2253 66.0865 90.3907 66.1139 90.4918C66.4343 91.5119 66.7638 92.5321 67.1207 93.5338C67.1848 93.7084 67.377 93.8738 67.5509 93.9749C68.2007 94.3425 68.8506 94.701 69.5187 95.041C69.7384 95.1513 69.9947 95.2524 70.2326 95.2524C72.168 95.2662 74.0982 95.2644 76.031 95.2627C76.6758 95.2621 77.3209 95.2616 77.9666 95.2616H78.5341C78.4725 95.1349 78.4224 95.0113 78.3749 94.8943C78.2812 94.6634 78.1979 94.4583 78.0582 94.3058C77.7104 93.929 77.3168 93.5705 76.8958 93.2857C76.5004 93.0186 76.0712 92.7969 75.6435 92.576C75.5267 92.5156 75.4099 92.4553 75.294 92.3942C74.8364 92.1461 74.6351 91.7785 74.6717 91.2638C74.6778 91.1413 74.692 91.0187 74.7062 90.8962C74.7134 90.8349 74.7205 90.7737 74.7266 90.7124C74.7546 90.4341 74.7894 90.155 74.8243 89.8756C74.9035 89.2413 74.9829 88.6053 74.9829 87.9737C74.9829 86.6595 74.3971 85.5291 73.5642 84.5365C75.0103 83.4521 75.294 81.9173 75.4313 80.3366C74.8813 80.1779 74.3618 80.0235 73.8366 79.8675Z" fill="#20113D"/>
<g filter="url(#filter2_d)">
<path d="M80.0001 28.335C53.6474 28.335 32.3257 48.2504 32.3257 72.7919C32.3257 97.3334 80.0001 167.665 80.0001 167.665C80.0001 167.665 127.675 97.3334 127.675 72.7919C127.675 48.2504 106.353 28.335 80.0001 28.335Z" stroke="white" stroke-width="3" stroke-miterlimit="10" stroke-linejoin="round"/>
</g>
</g>
<defs>
<filter id="filter0_d" x="0" y="0" width="160" height="204" filterUnits="userSpaceOnUse" color-interpolation-filters="sRGB">
<feFlood flood-opacity="0" result="BackgroundImageFix"/>
<feColorMatrix in="SourceAlpha" type="matrix" values="0 0 0 0 0 0 0 0 0 0 0 0 0 0 0 0 0 0 127 0"/>
<feOffset dy="4"/>
<feGaussianBlur stdDeviation="15"/>
<feColorMatrix type="matrix" values="0 0 0 0 0.960784 0 0 0 0 0.501961 0 0 0 0 0.129412 0 0 0 0.7 0"/>
<feBlend mode="normal" in2="BackgroundImageFix" result="effect1_dropShadow"/>
<feBlend mode="normal" in="SourceGraphic" in2="effect1_dropShadow" result="shape"/>
</filter>
<filter id="filter1_d" x="9.30225" y="8.56201" width="140.62" height="180.649" filterUnits="userSpaceOnUse" color-interpolation-filters="sRGB">
<feFlood flood-opacity="0" result="BackgroundImageFix"/>
<feColorMatrix in="SourceAlpha" type="matrix" values="0 0 0 0 0 0 0 0 0 0 0 0 0 0 0 0 0 0 127 0"/>
<feOffset dy="4"/>
<feGaussianBlur stdDeviation="15"/>
<feColorMatrix type="matrix" values="0 0 0 0 1 0 0 0 0 1 0 0 0 0 1 0 0 0 0.5 0"/>
<feBlend mode="normal" in2="BackgroundImageFix" result="effect1_dropShadow"/>
<feBlend mode="normal" in="SourceGraphic" in2="effect1_dropShadow" result="shape"/>
</filter>
<filter id="filter2_d" x="0.825684" y="0.834961" width="158.349" height="202.33" filterUnits="userSpaceOnUse" color-interpolation-filters="sRGB">
<feFlood flood-opacity="0" result="BackgroundImageFix"/>
<feColorMatrix in="SourceAlpha" type="matrix" values="0 0 0 0 0 0 0 0 0 0 0 0 0 0 0 0 0 0 127 0"/>
<feOffset dy="4"/>
<feGaussianBlur stdDeviation="15"/>
<feColorMatrix type="matrix" values="0 0 0 0 0 0 0 0 0 0 0 0 0 0 0 0 0 0 0.5 0"/>
<feBlend mode="normal" in2="BackgroundImageFix" result="effect1_dropShadow"/>
<feBlend mode="normal" in="SourceGraphic" in2="effect1_dropShadow" result="shape"/>
</filter>
</defs>
</svg>
