<svg width="160" height="204" viewBox="0 0 160 204" fill="none" xmlns="http://www.w3.org/2000/svg">
<g filter="url(#filter0_d)">
<g filter="url(#filter1_d)">
<path d="M79.6123 34.562C57.3304 34.562 39.3022 51.8072 39.3022 73.0582C39.3022 94.3092 79.6123 155.211 79.6123 155.211C79.6123 155.211 119.922 94.3092 119.922 73.0582C119.922 51.8072 101.894 34.562 79.6123 34.562Z" fill="white"/>
</g>
<path fill-rule="evenodd" clip-rule="evenodd" d="M88.0579 70.3932C89.3131 68.8611 90.0329 67.1684 90.0637 65.2038C90.0679 64.99 90.2193 64.7792 90.37 64.5692L90.3701 64.5691C90.4415 64.4696 90.5128 64.3702 90.5682 64.2709C90.8614 63.7387 91.1736 63.2134 91.4859 62.6878C92.196 61.4929 92.907 60.2964 93.3984 59.0135C94.469 56.2149 93.823 54.4975 91.4973 52.712C91.6449 50.8401 92.3833 49.5551 94.4382 49.1845C95.4108 49.0104 96.3543 48.6729 97.3847 48.3043C97.8534 48.1366 98.3402 47.9625 98.8558 47.7944C97.3115 52.4711 95.8472 56.9007 94.3152 61.5341L94.6729 61.4575L94.675 61.457C96.6684 61.0302 98.4922 60.6396 100.332 60.2491C100.8 61.0831 100.437 61.5217 99.7295 61.9233L99.3071 62.1613L99.3071 62.1613C97.4963 63.1814 95.6805 64.2043 93.9337 65.3335C93.3492 65.7104 92.8447 66.3899 92.5801 67.0386C92.1455 68.1144 91.7922 69.2234 91.4296 70.3615L91.4294 70.3621C91.2736 70.8511 91.1161 71.3456 90.9497 71.845L88.0579 70.3932ZM93.4045 70.1469C95.2072 71.4937 95.964 74.3911 95.1396 76.6028C94.4197 78.5241 92.7523 79.4385 90.2667 79.1543C89.5518 79.0712 88.8484 78.9118 88.1453 78.7525L88.1453 78.7525L88.1452 78.7525L88.1452 78.7525C87.6986 78.6513 87.2521 78.5501 86.8027 78.4685C84.2433 77.9928 82.0529 78.3512 80.564 79.5003C80.9085 79.5435 81.2039 79.5806 81.653 79.6362C81.2684 80.3631 81.0728 81.1509 80.8832 81.9144C80.6087 83.0196 80.3468 84.074 79.5426 84.8194C80.001 85.1412 80.4904 85.4579 80.9911 85.7819C82.1435 86.5277 83.3553 87.3119 84.3848 88.2852C86.7781 90.5463 86.6305 93.9257 84.2802 96.4277C83.5751 96.178 82.8689 95.9283 82.162 95.6783L82.1602 95.6776C79.4749 94.728 76.7781 93.7743 74.0853 92.8013C73.6387 92.639 73.2127 92.4177 72.787 92.1965C72.5968 92.0977 72.4067 91.999 72.2149 91.9055C69.4277 90.5649 67.9819 88.3161 67.7358 85.2457C67.422 81.3598 68.1787 77.616 69.0709 73.9092C69.1317 73.8975 69.1818 73.8822 69.2236 73.8694C69.2919 73.8486 69.338 73.8345 69.3723 73.8536C75.4142 76.9797 80.9762 75.5649 86.2367 71.9447C87.1288 71.3331 87.8056 71.3022 88.6608 71.7532C89.1654 72.0188 89.676 72.2721 90.1929 72.5069C91.6756 73.1802 92.3463 72.9146 92.9431 71.4072C93.0422 71.1545 93.1342 70.8971 93.228 70.635L93.2282 70.6343C93.2857 70.4736 93.3438 70.3112 93.4045 70.1469ZM87.1993 83.3123C87.5946 82.1093 88.0061 80.8574 88.4457 79.5172C87.9879 79.5024 87.5442 79.4866 87.1111 79.4711L87.1101 79.4711L87.1093 79.471C85.733 79.4219 84.464 79.3766 83.1914 79.3813C82.9207 79.3813 82.5085 79.7149 82.41 79.9867C82.0102 81.1136 81.6506 82.2539 81.304 83.353C81.1813 83.7422 81.0602 84.1263 80.9395 84.5028L82.1533 85.3928L82.1537 85.3931C83.331 86.2566 84.477 87.0971 85.6709 87.9686C86.1702 86.4432 86.6696 84.924 87.1976 83.3174L87.1982 83.3154L87.1993 83.3123ZM74.9038 101.708C75.6791 99.3979 76.3989 97.2542 77.1619 94.9869C79.063 95.5862 80.8596 96.1545 82.7792 96.7662C82.6753 97.0883 82.5737 97.4053 82.4735 97.7181C82.0934 98.9051 81.7326 100.032 81.3333 101.146C81.2472 101.381 80.8965 101.678 80.6627 101.684C79.2451 101.717 77.8203 101.714 76.3138 101.71C75.8522 101.709 75.3829 101.708 74.9038 101.708ZM66.4476 62.4518L66.4477 62.4519C67.011 63.3225 67.5581 64.1681 67.9512 65.0807C68.6772 66.7796 68.991 68.6947 67.5636 70.1527C66.0993 71.6416 64.2781 70.9806 62.6538 70.2639C61.7001 69.8438 60.7649 69.2693 59.9774 68.5835C56.9811 65.9579 57.2764 61.9485 60.605 59.7491C62.7953 58.3035 65.201 58.0811 67.6251 58.9522C68.6772 59.329 69.2679 59.051 70.0923 58.4271C71.4767 57.383 72.9656 56.3884 74.553 55.715C77.457 54.4794 80.2934 54.8562 82.8775 56.7467C83.4497 57.1668 84.028 57.5745 84.7663 57.7969C84.2618 57.1853 83.7573 56.5799 83.1851 55.8941C85.117 54.1272 87.2397 53.0894 89.8546 53.528C91.7065 53.8369 92.7032 55.0848 92.6602 56.9629C92.611 59.2302 91.4789 61.0465 90.2422 62.8628C87.8488 60.4905 87.1536 57.7042 88.3595 55.6099C87.1905 55.8571 86.5875 56.5799 86.8398 57.8711C87.0859 59.1375 87.492 60.4102 88.0457 61.5716C89.6085 64.8644 89.1224 68.1078 86.323 70.4246C82.5268 73.5753 78.1277 74.4587 73.3655 73.2479C72.4488 73.0131 71.5751 72.4756 70.7814 71.9258C69.8401 71.2771 69.4032 70.4307 69.5509 69.1148C69.6986 67.7372 69.5017 66.2545 69.151 64.8953C68.6834 63.1161 67.4282 61.9114 65.6809 61.238C65.9312 61.6536 66.1911 62.0553 66.4476 62.4518ZM83.7312 70.9807C83.7441 70.9248 83.7555 70.868 83.7657 70.8107C83.8164 70.5237 83.8359 70.221 83.8549 69.9263L83.8549 69.926C83.8628 69.8039 83.8706 69.6831 83.8805 69.5654C83.8128 67.7552 83.296 66.1428 81.9547 64.9196C80.7734 63.8446 79.6105 64.1968 79.2291 65.7474L79.2153 65.8048C79.194 65.8957 79.1747 65.9864 79.1576 66.0767C78.8476 67.7142 79.2355 69.2515 80.1642 70.6531L80.1952 70.6999C80.3027 70.8619 80.4131 71.0283 80.5292 71.1897C81.0274 71.8834 81.6306 72.4862 82.5613 72.2469C82.5905 72.2395 82.62 72.2314 82.6498 72.2223C83.3238 72.0173 83.6023 71.5399 83.7312 70.9807ZM77.0895 65.8507L77.0895 65.8507C76.8078 65.5898 76.5919 65.39 76.4295 65.4266C76.1803 65.4827 75.9761 65.7317 75.7708 65.982C75.6821 66.09 75.5933 66.1984 75.5005 66.2915C75.5909 66.3748 75.6796 66.476 75.7684 66.5772C75.9694 66.8066 76.1707 67.0362 76.3926 67.0576C76.5884 67.0781 76.8058 66.8977 77.0896 66.6621L77.0896 66.6621C77.234 66.5423 77.3955 66.4083 77.5801 66.2792C77.3979 66.1362 77.2349 65.9853 77.0895 65.8507ZM85.64 63.8698L85.6397 63.8696L85.6401 63.8693C85.419 63.7319 85.2354 63.5995 85.0766 63.4851L85.0766 63.485C84.7716 63.2651 84.5585 63.1115 84.3481 63.1156C84.3427 63.1157 84.3372 63.116 84.3316 63.1165C84.0588 63.1345 83.5732 63.6188 83.6097 63.8018C83.6773 64.1293 84.0465 64.5741 84.348 64.6297C84.3759 64.6344 84.4044 64.635 84.4337 64.6318C84.5677 64.6187 84.7206 64.5227 84.9119 64.3842C84.9619 64.3482 85.0145 64.3092 85.07 64.268C85.2321 64.1479 85.4192 64.0092 85.64 63.8698Z" fill="#20113D"/>
<g filter="url(#filter2_d)">
<path d="M80.0001 28.335C53.6474 28.335 32.3257 48.2504 32.3257 72.7919C32.3257 97.3334 80.0001 167.665 80.0001 167.665C80.0001 167.665 127.675 97.3334 127.675 72.7919C127.675 48.2504 106.353 28.335 80.0001 28.335Z" stroke="white" stroke-width="3" stroke-miterlimit="10" stroke-linejoin="round"/>
</g>
</g>
<defs>
<filter id="filter0_d" x="0" y="0" width="160" height="204" filterUnits="userSpaceOnUse" color-interpolation-filters="sRGB">
<feFlood flood-opacity="0" result="BackgroundImageFix"/>
<feColorMatrix in="SourceAlpha" type="matrix" values="0 0 0 0 0 0 0 0 0 0 0 0 0 0 0 0 0 0 127 0"/>
<feOffset dy="4"/>
<feGaussianBlur stdDeviation="15"/>
<feColorMatrix type="matrix" values="0 0 0 0 0.960784 0 0 0 0 0.501961 0 0 0 0 0.129412 0 0 0 0.7 0"/>
<feBlend mode="normal" in2="BackgroundImageFix" result="effect1_dropShadow"/>
<feBlend mode="normal" in="SourceGraphic" in2="effect1_dropShadow" result="shape"/>
</filter>
<filter id="filter1_d" x="9.30225" y="8.56201" width="140.62" height="180.649" filterUnits="userSpaceOnUse" color-interpolation-filters="sRGB">
<feFlood flood-opacity="0" result="BackgroundImageFix"/>
<feColorMatrix in="SourceAlpha" type="matrix" values="0 0 0 0 0 0 0 0 0 0 0 0 0 0 0 0 0 0 127 0"/>
<feOffset dy="4"/>
<feGaussianBlur stdDeviation="15"/>
<feColorMatrix type="matrix" values="0 0 0 0 1 0 0 0 0 1 0 0 0 0 1 0 0 0 0.5 0"/>
<feBlend mode="normal" in2="BackgroundImageFix" result="effect1_dropShadow"/>
<feBlend mode="normal" in="SourceGraphic" in2="effect1_dropShadow" result="shape"/>
</filter>
<filter id="filter2_d" x="0.825684" y="0.834961" width="158.349" height="202.33" filterUnits="userSpaceOnUse" color-interpolation-filters="sRGB">
<feFlood flood-opacity="0" result="BackgroundImageFix"/>
<feColorMatrix in="SourceAlpha" type="matrix" values="0 0 0 0 0 0 0 0 0 0 0 0 0 0 0 0 0 0 127 0"/>
<feOffset dy="4"/>
<feGaussianBlur stdDeviation="15"/>
<feColorMatrix type="matrix" values="0 0 0 0 0 0 0 0 0 0 0 0 0 0 0 0 0 0 0.5 0"/>
<feBlend mode="normal" in2="BackgroundImageFix" result="effect1_dropShadow"/>
<feBlend mode="normal" in="SourceGraphic" in2="effect1_dropShadow" result="shape"/>
</filter>
</defs>
</svg>
