<svg width="160" height="202" viewBox="0 0 160 202" fill="none" xmlns="http://www.w3.org/2000/svg">
<g filter="url(#filter0_d)">
<path d="M79.6123 34.4434C57.3304 34.4434 39.3022 51.4491 39.3022 72.4049C39.3022 93.3608 79.6123 153.416 79.6123 153.416C79.6123 153.416 119.922 93.3608 119.922 72.4049C119.922 51.4491 101.894 34.4434 79.6123 34.4434Z" fill="white"/>
<path d="M65.6769 92.5476C65.408 91.1824 65.3213 89.8259 65.5641 88.4693C65.9457 86.3142 67.0297 84.554 68.7728 83.2404C69.64 82.5878 70.6373 82.107 71.5739 81.5403C72.1896 81.1711 72.8487 80.8448 73.3777 80.3812C74.7739 79.1362 76.1094 77.8311 77.4709 76.5518C78.2774 75.7962 79.0753 75.0321 79.9338 74.2164C79.3528 74.1735 78.8324 74.1649 78.3208 74.0876C77.8091 74.0104 77.2975 73.8816 76.9246 73.3664C77.1067 73.3578 77.2368 73.3492 77.3669 73.3492C78.737 73.3063 79.4308 72.6194 79.4568 71.3057C79.4742 70.6704 79.3181 70.0264 79.2314 69.3911C78.8411 66.7036 79.5175 64.2824 81.1132 62.1015C81.2173 61.9555 81.33 61.801 81.4601 61.6207C81.0178 61.5692 80.6189 61.552 80.2373 61.4661C79.8644 61.3803 79.5175 61.2257 79.1533 61.1055C79.162 61.0626 79.1707 61.0197 79.1793 60.9853C79.4655 60.9252 79.7517 60.8737 80.0292 60.805C82.0758 60.2727 83.5761 59.0964 84.4866 57.1731C84.8682 56.3746 85.3018 55.5933 85.7875 54.8549C86.646 53.5584 87.8688 52.7341 89.3864 52.3392C89.5251 52.3048 89.6552 52.2619 89.8373 52.2104C89.5598 52.0472 89.291 51.9356 89.0915 51.7467C88.9181 51.5836 88.8314 51.3346 88.7533 51.0513C89.4731 51.2917 89.9847 50.9568 90.5051 50.6563C91.3896 50.1411 92.3089 49.7548 93.3669 49.7977C94.6677 49.8578 95.6563 50.5017 96.4801 51.4548C96.5929 51.5836 96.6969 51.721 96.8097 51.8669C97.5121 51.3604 98.2146 51.4977 98.865 51.927C99.2292 52.1674 99.5154 52.5281 99.8623 52.8114C100.417 53.275 100.955 53.7816 101.571 54.168C101.874 54.3569 102.316 54.3225 102.767 54.4084C103.062 55.2412 102.611 55.8423 101.111 56.4175C101.484 57.0615 101.857 57.7054 102.23 58.3494C102.507 58.8216 102.724 59.2853 102.559 59.8863C102.49 60.1611 102.672 60.5646 102.854 60.8308C103.322 61.5005 103.851 62.1273 104.354 62.7712C104.615 63.1147 104.866 63.4667 105.118 63.8101C105.36 64.145 105.36 64.4713 105.109 64.7975C104.788 65.2011 104.511 65.6561 104.12 65.9824C103.539 66.4632 103.062 67.0127 102.577 67.588C101.9 68.3951 100.929 68.4294 100.131 67.7254C99.9316 67.5451 99.7148 67.3476 99.5934 67.1158C99.3159 66.5662 98.839 66.3602 98.2926 66.2142C97.7723 66.0768 97.252 65.9566 96.749 65.7849C96.3327 65.639 95.9425 65.4415 95.5436 65.2612C95.4742 65.5273 95.5002 65.7506 95.8471 65.9824C96.3501 66.3087 96.8877 66.5748 97.4427 66.8238C97.6856 66.9354 97.8243 67.0385 97.911 67.3046C98.2926 68.5496 98.7002 69.786 99.1165 71.0138C99.5241 72.2245 99.5587 73.4694 99.5154 74.7316C99.4634 76.1483 99.2292 77.5135 98.7956 78.8529C98.4834 79.8059 98.1365 80.4241 97.6942 80.8534C97.3994 80.0893 97.1132 79.3337 96.8184 78.5867C96.775 78.5953 96.7316 78.6039 96.6883 78.6125C96.7577 79.368 96.801 80.1236 96.9051 80.8792C97.382 84.1934 98.1105 87.4647 99.0818 90.6759C99.2119 91.088 99.446 91.4915 99.6975 91.8436C100.166 92.4961 100.842 92.7194 101.631 92.6507C102.542 92.5734 103.019 92.8481 103.227 93.7239C103.383 94.3936 103.392 95.0977 103.47 95.8189C100.808 95.8189 98.2753 95.8189 95.6476 95.8189C95.5696 94.8229 95.5175 93.827 95.3961 92.8396C95.3354 92.3072 95.2574 91.7491 95.0146 91.2855C94.4769 90.2723 93.8438 89.3193 93.2281 88.3491C92.3522 86.9753 91.459 85.6101 90.5831 84.2535C88.8053 84.9833 86.9582 85.7475 85.059 86.5202C84.9983 87.0096 84.9289 87.6107 84.8595 88.2031C84.7642 89.0445 84.3479 89.6971 83.6628 90.1607C82.9083 90.6673 82.1105 91.0966 81.33 91.5602C81.1219 91.689 80.9137 91.8264 80.7056 91.9552C80.723 92.0067 80.7316 92.0582 80.749 92.1097C81.0091 92.1441 81.278 92.2128 81.5295 92.1956C82.5354 92.1269 83.5414 92.0325 84.556 91.9466C84.7988 91.9294 85.0417 91.9037 85.2932 91.9037C87.5739 91.8951 89.0222 93.5179 88.7533 95.8275C88.6146 95.8361 88.4758 95.8447 88.3371 95.8447C80.9831 95.8447 73.6205 95.8533 66.2666 95.8447C65.5208 95.8447 64.749 95.8103 64.0292 95.63C63.4395 95.4841 62.7891 95.2007 62.3641 94.78C60.6731 93.1143 59.7885 91.1223 60.5603 88.744C61.0373 87.2844 61.6964 85.8763 62.3295 84.4682C62.7457 83.5409 63.214 82.6393 63.3788 81.6176C63.6736 79.8231 62.8845 78.2003 61.3408 77.4448C60.3435 76.9554 58.6872 77.7109 58.4617 78.767C58.4357 78.8958 58.5051 79.119 58.6005 79.1792C59.3549 79.6514 59.7105 80.3554 59.8752 81.1883C60.1007 82.3474 59.8752 84.1762 59.3983 85.0864C59.1555 84.7172 58.9126 84.348 58.6698 83.9788C58.7999 85.5242 58.1755 86.7263 57.2216 87.7995C57.1696 87.7824 57.1262 87.7824 57.1175 87.7738C56.7533 86.8036 56.0769 86.0823 55.2964 85.4212C54.9148 85.0949 54.62 84.6742 54.2817 84.2878C54.1777 84.4853 54.0303 84.7687 53.8828 85.052C53.4406 84.6742 53.163 83.8843 53.2845 83.1116C53.4666 81.9782 53.9522 81.0166 55.1056 80.5272C55.2183 80.4756 55.3051 80.3039 55.3571 80.1665C55.9121 78.7241 56.7446 77.4877 58.1148 76.6892C59.2248 76.0367 60.4563 75.7877 61.7397 75.9851C62.9365 76.1655 63.6823 76.9382 64.1072 78.0286C64.7143 79.5827 64.6796 81.1883 64.3067 82.7595C64.0379 83.9101 63.6129 85.0263 63.162 86.1253C62.7717 87.0955 62.3468 88.0485 62.2254 89.1046C62.0173 91.1309 63.5435 92.7022 65.6769 92.5476Z" fill="#20113D"/>
<g filter="url(#filter1_d)">
<path d="M80.0001 28.3027C53.6474 28.3027 32.3257 47.9416 32.3257 72.1422C32.3257 96.3428 80.0001 165.697 80.0001 165.697C80.0001 165.697 127.675 96.3428 127.675 72.1422C127.675 47.9416 106.353 28.3027 80.0001 28.3027Z" stroke="white" stroke-width="3" stroke-miterlimit="10" stroke-linejoin="round"/>
</g>
</g>
<defs>
<filter id="filter0_d" x="0" y="0" width="160" height="202" filterUnits="userSpaceOnUse" color-interpolation-filters="sRGB">
<feFlood flood-opacity="0" result="BackgroundImageFix"/>
<feColorMatrix in="SourceAlpha" type="matrix" values="0 0 0 0 0 0 0 0 0 0 0 0 0 0 0 0 0 0 127 0"/>
<feOffset dy="4"/>
<feGaussianBlur stdDeviation="15"/>
<feColorMatrix type="matrix" values="0 0 0 0 1 0 0 0 0 1 0 0 0 0 1 0 0 0 0.5 0"/>
<feBlend mode="normal" in2="BackgroundImageFix" result="effect1_dropShadow"/>
<feBlend mode="normal" in="SourceGraphic" in2="effect1_dropShadow" result="shape"/>
</filter>
<filter id="filter1_d" x="0.825684" y="0.802734" width="158.349" height="200.395" filterUnits="userSpaceOnUse" color-interpolation-filters="sRGB">
<feFlood flood-opacity="0" result="BackgroundImageFix"/>
<feColorMatrix in="SourceAlpha" type="matrix" values="0 0 0 0 0 0 0 0 0 0 0 0 0 0 0 0 0 0 127 0"/>
<feOffset dy="4"/>
<feGaussianBlur stdDeviation="15"/>
<feColorMatrix type="matrix" values="0 0 0 0 0 0 0 0 0 0 0 0 0 0 0 0 0 0 0.5 0"/>
<feBlend mode="normal" in2="BackgroundImageFix" result="effect1_dropShadow"/>
<feBlend mode="normal" in="SourceGraphic" in2="effect1_dropShadow" result="shape"/>
</filter>
</defs>
</svg>
