<svg width="160" height="204" viewBox="0 0 160 204" fill="none" xmlns="http://www.w3.org/2000/svg">
<g filter="url(#filter0_d)">
<g filter="url(#filter1_d)">
<path d="M79.6123 34.562C57.3304 34.562 39.3022 51.8072 39.3022 73.0582C39.3022 94.3092 79.6123 155.211 79.6123 155.211C79.6123 155.211 119.922 94.3092 119.922 73.0582C119.922 51.8072 101.894 34.562 79.6123 34.562Z" fill="white"/>
</g>
<path d="M65.6769 93.4852C65.408 92.1008 65.3213 90.7251 65.5641 89.3494C65.9457 87.164 67.0297 85.379 68.7728 84.0469C69.64 83.3851 70.6373 82.8975 71.5739 82.3229C72.1896 81.9485 72.8487 81.6176 73.3777 81.1474C74.7739 79.8849 76.1094 78.5615 77.4709 77.2641C78.2774 76.4979 79.0753 75.723 79.9338 74.8958C79.3528 74.8523 78.8324 74.8436 78.3208 74.7652C77.8091 74.6869 77.2975 74.5563 76.9246 74.0338C77.1067 74.0251 77.2368 74.0164 77.3669 74.0164C78.737 73.9729 79.4308 73.2763 79.4568 71.9442C79.4742 71.2999 79.3181 70.6468 79.2314 70.0025C78.8411 67.2772 79.5175 64.8219 81.1132 62.6103C81.2173 62.4623 81.33 62.3055 81.4601 62.1227C81.0178 62.0705 80.6189 62.053 80.2373 61.966C79.8644 61.8789 79.5175 61.7222 79.1533 61.6003C79.162 61.5567 79.1707 61.5132 79.1793 61.4784C79.4655 61.4174 79.7517 61.3652 80.0292 61.2955C82.0758 60.7557 83.5761 59.5628 84.4866 57.6125C84.8682 56.8027 85.3018 56.0104 85.7875 55.2616C86.646 53.9468 87.8688 53.111 89.3864 52.7105C89.5251 52.6756 89.6552 52.6321 89.8373 52.5798C89.5598 52.4144 89.291 52.3012 89.0915 52.1097C88.9181 51.9442 88.8314 51.6917 88.7533 51.4044C89.4731 51.6482 89.9847 51.3086 90.5051 51.0039C91.3896 50.4815 92.3089 50.0897 93.3669 50.1332C94.6677 50.1941 95.6563 50.8472 96.4801 51.8136C96.5929 51.9442 96.6969 52.0836 96.8097 52.2316C97.5121 51.7179 98.2146 51.8572 98.865 52.2925C99.2292 52.5363 99.5154 52.902 99.8623 53.1893C100.417 53.6595 100.955 54.1732 101.571 54.565C101.874 54.7566 102.316 54.7218 102.767 54.8088C103.062 55.6534 102.611 56.2629 101.111 56.8463C101.484 57.4993 101.857 58.1523 102.23 58.8053C102.507 59.2842 102.724 59.7544 102.559 60.3639C102.49 60.6425 102.672 61.0517 102.854 61.3217C103.322 62.0008 103.851 62.6364 104.354 63.2894C104.615 63.6377 104.866 63.9947 105.118 64.343C105.36 64.6825 105.36 65.0134 105.109 65.3443C104.788 65.7535 104.511 66.215 104.12 66.5458C103.539 67.0334 103.062 67.5907 102.577 68.174C101.9 68.9925 100.929 69.0273 100.131 68.3134C99.9316 68.1305 99.7148 67.9303 99.5934 67.6952C99.3159 67.1379 98.839 66.9289 98.2926 66.7809C97.7723 66.6416 97.252 66.5197 96.749 66.3456C96.3327 66.1976 95.9425 65.9973 95.5436 65.8145C95.4742 66.0844 95.5002 66.3108 95.8471 66.5458C96.3501 66.8767 96.8877 67.1466 97.4427 67.3991C97.6856 67.5123 97.8243 67.6168 97.911 67.8867C98.2926 69.1492 98.7002 70.403 99.1165 71.6481C99.5241 72.8758 99.5587 74.1383 99.5154 75.4183C99.4634 76.8549 99.2292 78.2393 98.7956 79.5976C98.4834 80.5641 98.1365 81.191 97.6942 81.6263C97.3994 80.8514 97.1132 80.0852 96.8184 79.3277C96.775 79.3364 96.7316 79.3451 96.6883 79.3538C96.7577 80.12 96.801 80.8862 96.9051 81.6525C97.382 85.0133 98.1105 88.3307 99.0818 91.5871C99.2119 92.0051 99.446 92.4143 99.6975 92.7713C100.166 93.433 100.842 93.6594 101.631 93.5897C102.542 93.5114 103.019 93.79 103.227 94.6781C103.383 95.3572 103.392 96.0712 103.47 96.8026C100.808 96.8026 98.2753 96.8026 95.6476 96.8026C95.5696 95.7926 95.5175 94.7826 95.3961 93.7813C95.3354 93.2414 95.2574 92.6755 95.0146 92.2053C94.4769 91.1779 93.8438 90.2114 93.2281 89.2275C92.3522 87.8344 91.459 86.45 90.5831 85.0743C88.8053 85.8144 86.9582 86.5893 85.059 87.3729C84.9983 87.8692 84.9289 88.4787 84.8595 89.0795C84.7642 89.9328 84.3479 90.5945 83.6628 91.0647C82.9083 91.5784 82.1105 92.0138 81.33 92.4839C81.1219 92.6145 80.9137 92.7539 80.7056 92.8845C80.723 92.9367 80.7316 92.9889 80.749 93.0412C81.0091 93.076 81.278 93.1457 81.5295 93.1283C82.5354 93.0586 83.5414 92.9628 84.556 92.8757C84.7988 92.8583 85.0417 92.8322 85.2932 92.8322C87.5739 92.8235 89.0222 94.4691 88.7533 96.8113C88.6146 96.82 88.4758 96.8287 88.3371 96.8287C80.9831 96.8287 73.6205 96.8374 66.2666 96.8287C65.5208 96.8287 64.749 96.7939 64.0292 96.611C63.4395 96.463 62.7891 96.1757 62.3641 95.749C60.6731 94.0599 59.7885 92.0399 60.5603 89.628C61.0373 88.1479 61.6964 86.7199 62.3295 85.292C62.7457 84.3516 63.214 83.4374 63.3788 82.4013C63.6736 80.5815 62.8845 78.9359 61.3408 78.1697C60.3435 77.6734 58.6872 78.4396 58.4617 79.5105C58.4357 79.6411 58.5051 79.8675 58.6005 79.9285C59.3549 80.4074 59.7105 81.1213 59.8752 81.9659C60.1007 83.1413 59.8752 84.9959 59.3983 85.9189C59.1555 85.5445 58.9126 85.1701 58.6698 84.7957C58.7999 86.3629 58.1755 87.5819 57.2216 88.6703C57.1696 88.6529 57.1262 88.6529 57.1175 88.6442C56.7533 87.6603 56.0769 86.9289 55.2964 86.2584C54.9148 85.9276 54.62 85.5009 54.2817 85.1091C54.1777 85.3094 54.0303 85.5967 53.8828 85.884C53.4406 85.5009 53.163 84.6999 53.2845 83.9163C53.4666 82.7669 53.9522 81.7918 55.1056 81.2955C55.2183 81.2432 55.3051 81.0691 55.3571 80.9298C55.9121 79.467 56.7446 78.2132 58.1148 77.4034C59.2248 76.7417 60.4563 76.4892 61.7397 76.6895C62.9365 76.8723 63.6823 77.656 64.1072 78.7617C64.7143 80.3377 64.6796 81.9659 64.3067 83.5593C64.0379 84.726 63.6129 85.8579 63.162 86.9724C62.7717 87.9563 62.3468 88.9228 62.2254 89.9937C62.0173 92.0486 63.5435 93.642 65.6769 93.4852Z" fill="#20113D"/>
<g filter="url(#filter2_d)">
<path d="M80.0001 28.335C53.6474 28.335 32.3257 48.2504 32.3257 72.7919C32.3257 97.3334 80.0001 167.665 80.0001 167.665C80.0001 167.665 127.675 97.3334 127.675 72.7919C127.675 48.2504 106.353 28.335 80.0001 28.335Z" stroke="white" stroke-width="3" stroke-miterlimit="10" stroke-linejoin="round"/>
</g>
</g>
<defs>
<filter id="filter0_d" x="0" y="0" width="160" height="204" filterUnits="userSpaceOnUse" color-interpolation-filters="sRGB">
<feFlood flood-opacity="0" result="BackgroundImageFix"/>
<feColorMatrix in="SourceAlpha" type="matrix" values="0 0 0 0 0 0 0 0 0 0 0 0 0 0 0 0 0 0 127 0"/>
<feOffset dy="4"/>
<feGaussianBlur stdDeviation="15"/>
<feColorMatrix type="matrix" values="0 0 0 0 0.960784 0 0 0 0 0.501961 0 0 0 0 0.129412 0 0 0 0.7 0"/>
<feBlend mode="normal" in2="BackgroundImageFix" result="effect1_dropShadow"/>
<feBlend mode="normal" in="SourceGraphic" in2="effect1_dropShadow" result="shape"/>
</filter>
<filter id="filter1_d" x="9.30225" y="8.56201" width="140.62" height="180.649" filterUnits="userSpaceOnUse" color-interpolation-filters="sRGB">
<feFlood flood-opacity="0" result="BackgroundImageFix"/>
<feColorMatrix in="SourceAlpha" type="matrix" values="0 0 0 0 0 0 0 0 0 0 0 0 0 0 0 0 0 0 127 0"/>
<feOffset dy="4"/>
<feGaussianBlur stdDeviation="15"/>
<feColorMatrix type="matrix" values="0 0 0 0 1 0 0 0 0 1 0 0 0 0 1 0 0 0 0.5 0"/>
<feBlend mode="normal" in2="BackgroundImageFix" result="effect1_dropShadow"/>
<feBlend mode="normal" in="SourceGraphic" in2="effect1_dropShadow" result="shape"/>
</filter>
<filter id="filter2_d" x="0.825684" y="0.834961" width="158.349" height="202.33" filterUnits="userSpaceOnUse" color-interpolation-filters="sRGB">
<feFlood flood-opacity="0" result="BackgroundImageFix"/>
<feColorMatrix in="SourceAlpha" type="matrix" values="0 0 0 0 0 0 0 0 0 0 0 0 0 0 0 0 0 0 127 0"/>
<feOffset dy="4"/>
<feGaussianBlur stdDeviation="15"/>
<feColorMatrix type="matrix" values="0 0 0 0 0 0 0 0 0 0 0 0 0 0 0 0 0 0 0.5 0"/>
<feBlend mode="normal" in2="BackgroundImageFix" result="effect1_dropShadow"/>
<feBlend mode="normal" in="SourceGraphic" in2="effect1_dropShadow" result="shape"/>
</filter>
</defs>
</svg>
