<svg width="160" height="204" viewBox="0 0 160 204" fill="none" xmlns="http://www.w3.org/2000/svg">
<g filter="url(#filter0_d)">
<g filter="url(#filter1_d)">
<path d="M79.6123 34.562C57.3304 34.562 39.3022 51.8072 39.3022 73.0582C39.3022 94.3092 79.6123 155.211 79.6123 155.211C79.6123 155.211 119.922 94.3092 119.922 73.0582C119.922 51.8072 101.894 34.562 79.6123 34.562Z" fill="white"/>
</g>
<path fill-rule="evenodd" clip-rule="evenodd" d="M71.2527 76.8338C68.8342 77.5556 66.3968 77.4446 63.9408 75.8344C63.7523 76.0683 63.5592 76.3037 63.3641 76.5415L63.3636 76.5421L63.3636 76.5421L63.3636 76.5421L63.3636 76.5422L63.3635 76.5422C62.8796 77.1322 62.3835 77.737 61.9159 78.3699C61.5691 78.8604 61.2457 79.3693 60.9223 79.8783L60.9222 79.8783L60.9222 79.8784C60.5988 80.3873 60.2754 80.8963 59.9286 81.3867C59.1599 82.4786 58.8786 83.6631 58.9536 84.9772C59.0474 86.6614 58.3724 87.5127 56.7038 87.8088C53.2728 88.4196 50.198 85.9026 50.1793 82.4786C50.1793 82.1443 50.1732 81.81 50.1672 81.4768C50.1582 80.9801 50.1493 80.486 50.1605 79.9986C50.192 78.6916 50.7669 77.5547 51.3391 76.4228C51.4475 76.2084 51.5559 75.9941 51.6604 75.7789C51.9309 75.2253 52.2039 74.6725 52.4769 74.1197L52.4769 74.1196L52.477 74.1194C53.4909 72.0664 54.5052 70.0128 55.3914 67.9131C56.6941 64.836 58.6511 62.1894 60.615 59.5334L60.615 59.5334L60.615 59.5334L60.615 59.5334C61.0253 58.9785 61.4359 58.4232 61.8409 57.8635C61.8604 57.8395 61.8811 57.8155 61.902 57.7912L61.9021 57.7912L61.9021 57.7911C61.9621 57.7217 62.0243 57.6496 62.0659 57.5674C64.2595 53.6252 68.1592 52.6999 72.1714 51.9225C73.1609 51.7341 74.1423 51.498 75.1231 51.262C76.261 50.9883 77.398 50.7148 78.546 50.516C80.6458 50.1458 82.8019 49.8497 84.9392 49.7757C87.4703 49.6831 89.6076 50.8491 91.5013 52.4593C88.6327 51.0157 85.5579 50.516 82.3707 50.59C81.5645 50.6085 80.7583 50.6825 79.9521 50.7751C78.7897 50.9046 78.3022 51.756 77.9835 52.7369C77.1586 55.2354 77.3273 57.6969 78.2085 60.1769C78.4209 60.7728 78.5533 61.4015 78.6852 62.0278L78.6852 62.0279C78.7745 62.4521 78.8636 62.8752 78.9772 63.2862C79.122 63.7985 79.2634 64.3125 79.4048 64.8267L79.4048 64.8267L79.4048 64.8268L79.4048 64.8268L79.4048 64.8268C79.9226 66.7091 80.4412 68.5946 81.1333 70.4117C81.4145 71.1705 82.3519 71.9108 83.1581 72.2069C86.3266 73.3359 89.5701 73.9466 92.9262 72.8177C97.1446 71.3926 99.3194 66.9507 97.7258 62.8235C97.2151 61.516 96.6094 60.2488 96.0011 58.9761C95.8947 58.7535 95.7882 58.5308 95.6822 58.3077C95.5851 58.1023 95.3853 57.9374 95.1893 57.7755C95.1203 57.7187 95.0519 57.6621 94.9885 57.6044C94.746 57.3773 94.4932 57.1563 94.2397 56.9347C93.7287 56.488 93.2148 56.0387 92.7762 55.5315C92.1575 54.8097 92.1762 53.9029 92.7199 53.1255C93.2449 52.3667 94.0886 52.1817 94.9697 52.3297C96.3384 52.5518 97.2196 53.3846 97.6696 54.6247C98.1008 55.8277 97.6883 56.8641 96.6196 57.771C98.0258 58.9184 98.4945 60.5656 98.907 62.1943C99.0631 62.811 99.147 63.4474 99.2311 64.0854L99.2311 64.0855L99.2312 64.0855L99.2312 64.0856C99.3288 64.8261 99.4267 65.5686 99.6382 66.2845C99.9914 67.4699 100.415 68.6393 100.839 69.8098C101.203 70.8141 101.568 71.8192 101.888 72.8362C102.304 74.138 102.687 75.4508 103.07 76.7626L103.07 76.7627L103.07 76.7628L103.07 76.7629C103.394 77.8754 103.719 78.9872 104.063 80.0912C104.255 80.7064 104.5 81.3066 104.745 81.9061L104.745 81.9062L104.745 81.9067L104.745 81.9068L104.746 81.9069C104.884 82.2449 105.022 82.5826 105.15 82.9228C105.561 83.9993 106.492 84.4839 107.414 84.9643C107.586 85.0539 107.757 85.1432 107.925 85.2363C108.787 85.7175 109.237 86.3467 109.012 87.3461C108.806 88.29 108.188 88.8823 107.044 88.8453C104.7 88.7527 102.375 88.5306 100.051 88.29C99.6569 88.253 99.2444 87.8459 98.9632 87.5127C97.3883 85.6434 95.8322 83.7557 94.2948 81.8679C93.2261 80.5539 92.4387 79.1103 92.0262 77.4631C91.8509 76.7853 91.4935 76.1412 91.1402 75.5046C91.0401 75.3242 90.9403 75.1444 90.845 74.9645C90.7513 74.7795 90.4888 74.6129 90.2826 74.5759L90.1345 74.5469C88.9467 74.3138 87.7652 74.082 86.7391 75.1126C86.4779 75.3889 86.0496 75.5368 85.6759 75.6659L85.6704 75.6678C85.0142 75.8899 84.7143 76.2971 84.958 76.9264C85.8229 79.2155 85.7576 81.5542 85.6921 83.8983V83.8984C85.6596 85.0604 85.6272 86.2238 85.7079 87.3832C85.7413 87.8273 85.8042 88.2715 85.8672 88.7157C85.9459 89.2709 86.0246 89.8262 86.0454 90.3814C86.0642 90.8071 85.8767 91.4178 85.5767 91.6399C83.0831 93.4907 80.2896 93.8053 77.421 92.7874C75.9961 92.2692 75.04 91.2513 74.815 89.5115C74.3838 85.9026 73.8026 82.3121 73.0526 78.7586C72.7825 77.4256 72.1326 76.1527 71.4994 74.9127C71.4293 74.7754 71.3594 74.6384 71.2902 74.5019C69.4904 70.9669 68.9842 67.3024 69.6216 63.3788C70.1466 60.1214 70.859 57.0121 73.0526 54.4396C73.505 53.9141 74.0425 53.4633 74.5778 53.0142L74.5779 53.0142C74.7967 52.8306 75.0152 52.6472 75.2274 52.4593C75.2594 52.4322 75.2936 52.4063 75.3281 52.3801L75.3283 52.3799L75.3284 52.3798L75.3285 52.3798C75.4356 52.2986 75.5457 52.215 75.6024 52.0891C72.7151 52.1261 70.1091 52.922 67.5405 54.1064C65.1343 55.1957 63.7554 57.1384 62.3593 59.1053C62.0475 59.5446 61.7348 59.9851 61.4097 60.4175C61.2785 60.6026 61.2785 60.9173 61.2972 61.1764C61.5725 63.7672 62.5845 66.1275 63.5944 68.483L63.6595 68.6349C63.8604 69.0844 63.9656 69.5811 64.0709 70.0778L64.0709 70.0779L64.0709 70.0779L64.0709 70.078C64.113 70.2766 64.1551 70.4752 64.2033 70.6708C64.3157 71.1705 64.4282 71.6887 64.4657 72.2069C64.4734 72.3123 64.4817 72.4183 64.49 72.5248L64.49 72.5248C64.5433 73.204 64.5979 73.9014 64.4845 74.5574C64.2595 75.7234 64.3532 76.075 65.5719 76.2601C65.965 76.2989 66.3613 76.3377 66.7594 76.3767C68.2602 76.5236 69.7857 76.6729 71.2527 76.8338ZM80.2896 59.4555C79.2022 59.0113 78.7522 57.9564 78.6023 56.7164C78.4335 55.3653 79.6709 53.6811 81.1146 53.1814C82.2582 52.7928 83.8706 53.422 84.5081 54.5325C84.883 55.1988 85.033 55.7355 84.2081 56.3092C83.2747 56.9542 82.4077 57.6834 81.4722 58.4702L81.4722 58.4703L81.4721 58.4703C81.0923 58.7898 80.7011 59.1188 80.2896 59.4555ZM83.8518 65.1368C83.5144 66.5989 84.4705 67.7648 85.633 67.6723C85.7382 67.3411 85.8389 67.0168 85.9381 66.6969L85.9381 66.6968L85.9382 66.6965L85.9383 66.6963C86.1219 66.1047 86.3007 65.5282 86.4954 64.9517C86.547 64.8075 86.6182 64.6672 86.6893 64.5272C86.7733 64.3617 86.8571 64.1967 86.9079 64.0263C87.0579 63.4896 87.2266 62.7863 86.5329 62.6197C86.0267 62.5087 85.2205 62.6752 84.9018 63.0269C84.3956 63.5821 84.0206 64.3779 83.8518 65.1368ZM90.545 63.0639C90.6287 62.9537 90.7058 62.8336 90.7817 62.7155C90.9607 62.4367 91.133 62.1684 91.37 62.0645C91.6137 61.9534 92.1387 62.1755 92.4011 62.3976C92.459 62.4468 92.5171 62.4959 92.5753 62.5452L92.5754 62.5452C93.1966 63.0708 93.8303 63.6069 94.276 64.2669C94.5197 64.6555 94.426 65.3773 94.2573 65.8585C94.126 66.2102 93.6385 66.5803 93.2636 66.6543C93.0198 66.6913 92.6261 66.2472 92.3824 65.951C91.9699 65.4513 91.6137 64.9331 91.2575 64.3779C91.076 64.1347 90.9393 63.8561 90.7792 63.5299L90.7792 63.5299C90.7078 63.3844 90.6318 63.2294 90.545 63.0639ZM91.5269 69.7154L91.5387 69.7082C91.5334 69.6766 91.5266 69.6435 91.5195 69.6093C91.5017 69.5234 91.4825 69.4307 91.4825 69.338C91.3825 69.3134 91.2825 69.2805 91.1825 69.2476C90.9825 69.1818 90.7826 69.1159 90.5826 69.1159C89.8139 69.1159 89.0452 69.1345 88.2952 69.227C87.9953 69.264 87.639 69.4676 87.5078 69.6897C87.4328 69.8192 87.6765 70.2264 87.8828 70.4115C87.9923 70.5196 88.153 70.5582 88.3163 70.5975C88.4325 70.6255 88.5501 70.6537 88.6515 70.7076C88.8577 70.8187 89.2327 71.0407 89.2139 71.1333C89.1389 71.3924 88.9514 71.6515 88.7265 71.8366C88.6175 71.9321 88.4617 71.966 88.2691 72.0079C88.1634 72.0309 88.0465 72.0563 87.9203 72.0957C88.648 72.0486 89.3225 72.0015 89.9971 71.9544C90.3827 71.9274 90.7683 71.9005 91.1638 71.8736C90.9424 71.7765 90.6888 71.747 90.4446 71.7187C89.9441 71.6606 89.4832 71.6071 89.4202 70.9852C90.1843 70.5252 90.8559 70.1201 91.5269 69.7154Z" fill="#20113D"/>
<g filter="url(#filter2_d)">
<path d="M80.0001 28.335C53.6474 28.335 32.3257 48.2504 32.3257 72.7919C32.3257 97.3334 80.0001 167.665 80.0001 167.665C80.0001 167.665 127.675 97.3334 127.675 72.7919C127.675 48.2504 106.353 28.335 80.0001 28.335Z" stroke="white" stroke-width="3" stroke-miterlimit="10" stroke-linejoin="round"/>
</g>
</g>
<defs>
<filter id="filter0_d" x="0" y="0" width="160" height="204" filterUnits="userSpaceOnUse" color-interpolation-filters="sRGB">
<feFlood flood-opacity="0" result="BackgroundImageFix"/>
<feColorMatrix in="SourceAlpha" type="matrix" values="0 0 0 0 0 0 0 0 0 0 0 0 0 0 0 0 0 0 127 0"/>
<feOffset dy="4"/>
<feGaussianBlur stdDeviation="15"/>
<feColorMatrix type="matrix" values="0 0 0 0 0.960784 0 0 0 0 0.501961 0 0 0 0 0.129412 0 0 0 0.7 0"/>
<feBlend mode="normal" in2="BackgroundImageFix" result="effect1_dropShadow"/>
<feBlend mode="normal" in="SourceGraphic" in2="effect1_dropShadow" result="shape"/>
</filter>
<filter id="filter1_d" x="9.30225" y="8.56201" width="140.62" height="180.649" filterUnits="userSpaceOnUse" color-interpolation-filters="sRGB">
<feFlood flood-opacity="0" result="BackgroundImageFix"/>
<feColorMatrix in="SourceAlpha" type="matrix" values="0 0 0 0 0 0 0 0 0 0 0 0 0 0 0 0 0 0 127 0"/>
<feOffset dy="4"/>
<feGaussianBlur stdDeviation="15"/>
<feColorMatrix type="matrix" values="0 0 0 0 1 0 0 0 0 1 0 0 0 0 1 0 0 0 0.5 0"/>
<feBlend mode="normal" in2="BackgroundImageFix" result="effect1_dropShadow"/>
<feBlend mode="normal" in="SourceGraphic" in2="effect1_dropShadow" result="shape"/>
</filter>
<filter id="filter2_d" x="0.825684" y="0.834961" width="158.349" height="202.33" filterUnits="userSpaceOnUse" color-interpolation-filters="sRGB">
<feFlood flood-opacity="0" result="BackgroundImageFix"/>
<feColorMatrix in="SourceAlpha" type="matrix" values="0 0 0 0 0 0 0 0 0 0 0 0 0 0 0 0 0 0 127 0"/>
<feOffset dy="4"/>
<feGaussianBlur stdDeviation="15"/>
<feColorMatrix type="matrix" values="0 0 0 0 0 0 0 0 0 0 0 0 0 0 0 0 0 0 0.5 0"/>
<feBlend mode="normal" in2="BackgroundImageFix" result="effect1_dropShadow"/>
<feBlend mode="normal" in="SourceGraphic" in2="effect1_dropShadow" result="shape"/>
</filter>
</defs>
</svg>
