<svg width="160" height="204" viewBox="0 0 160 204" fill="none" xmlns="http://www.w3.org/2000/svg">
<g filter="url(#filter0_d)">
<g filter="url(#filter1_d)">
<path d="M79.6123 34.562C57.3304 34.562 39.3022 51.8072 39.3022 73.0582C39.3022 94.3092 79.6123 155.211 79.6123 155.211C79.6123 155.211 119.922 94.3092 119.922 73.0582C119.922 51.8072 101.894 34.562 79.6123 34.562Z" fill="white"/>
</g>
<path d="M65.1229 83.4213C65.0882 83.4827 65.0592 83.5529 64.9897 83.6756C64.2153 82.3737 63.9906 80.9338 63.7165 79.5141C63.6669 79.4963 63.6087 79.4843 63.565 79.4753C63.3973 79.9052 63.1742 80.3085 63.0735 80.7447C62.7249 82.173 62.8303 83.6036 63.1714 85.0294C63.5888 86.7223 64.0062 88.4151 64.3625 90.1106C64.6275 91.3837 64.7821 92.6797 64.503 93.9853C64.1981 95.4227 63.5608 96.5859 62.1129 97.1326C61.4675 97.3727 60.8329 97.2876 60.2472 96.9536C59.676 96.6226 59.6018 96.0362 60.0954 95.6049C60.3887 95.3455 60.7227 95.0717 61.0832 94.9328C61.7955 94.6608 62.1609 94.1497 62.2173 93.4379C62.271 92.7788 62.2925 92.0903 62.1774 91.4421C61.8589 89.7087 61.4763 87.9926 61.0705 86.2792C60.6147 84.3576 60.348 82.4369 60.6808 80.4722C60.9704 78.7652 61.7089 77.3183 63.0623 76.2113C63.161 76.1327 63.251 76.0598 63.3498 75.9812C63.4108 75.9405 63.4689 75.9144 63.5794 75.8534C63.6646 76.1908 63.7323 76.5017 63.8087 76.8069C64.2631 74.6464 64.3972 72.3819 66.1974 70.735C68.8375 72.216 70.3011 74.5205 70.8904 77.4597C71.4205 74.104 69.4214 71.7881 67.4686 69.3903C67.9568 69.1025 68.4188 68.8323 68.8809 68.562C69.2732 68.3383 69.6655 68.1145 70.0606 67.8762C70.9498 67.3589 70.976 67.3414 71.5776 68.2118C72.1413 69.0438 72.6352 69.9224 73.1495 70.7747C73.246 70.9393 73.3337 71.1097 73.4795 71.254C73.3826 69.7033 72.7506 68.3317 71.9789 66.939C72.8624 66.451 73.7225 65.9658 74.6061 65.5159C74.7252 65.4491 74.967 65.5675 75.1157 65.659C76.7973 66.6987 77.7819 68.2801 78.4644 70.0885C78.6695 70.6258 78.8484 71.1805 79.0854 71.7091C79.0816 68.9897 77.7142 66.7735 76.3146 64.4898C77.3169 63.8207 78.2931 63.169 79.3303 62.4766C80.3135 63.5246 80.896 64.8784 81.5337 66.2207C81.5951 65.1748 81.3134 64.2181 80.8077 63.3219C80.6294 62.9958 80.4424 62.6754 80.2292 62.3726C79.9693 61.9992 79.9743 61.6651 80.2965 61.3355C80.9467 60.6852 81.5853 60.0173 82.2355 59.367C84.8209 61.0499 86.3689 63.349 86.9495 66.332C87.0911 64.762 86.6772 63.2831 86.1091 61.8562C85.5439 60.4146 84.6242 59.1969 83.469 58.0602C84.7872 56.8622 86.059 55.7079 87.3656 54.5304C88.5708 55.9136 89.5636 57.2605 90.0391 58.9273C89.9124 57.104 89.3205 55.4513 88.1614 53.9101C88.7805 53.6113 89.3239 53.3121 89.8908 53.0863C90.0129 53.043 90.2373 53.173 90.3918 53.2734C91.0709 53.7104 91.7961 53.9513 92.6225 53.9084C91.6704 53.7045 91.1362 53.0308 90.7152 52.2434C90.4141 51.694 90.6141 51.3697 91.2076 51.3169C92.1968 51.2162 93.1771 51.0833 94.1545 50.9269C94.8264 50.8217 95.4748 50.6051 96.1468 50.4999C97.162 50.3437 98.0938 50.5739 99.0348 51.0268C99.7399 51.3702 100.567 51.4797 101.356 51.6271C101.836 51.7262 102.279 52.1298 102.298 52.6134C102.308 52.9504 102.326 53.2817 102.367 53.6101C102.489 54.5337 102.209 55.306 101.579 56.0062C101.52 55.918 101.471 55.8621 101.439 55.7946C101.152 55.0957 101.158 55.1046 100.436 55.2681C99.7529 55.4318 99.0958 55.6542 98.6258 56.2351C98.0833 56.9152 98.0242 57.7179 98.5058 58.3121C98.894 58.8034 99.9653 58.9405 100.602 58.5919C100.721 58.5251 100.84 58.4583 100.959 58.3915C101.278 59.1198 101.169 59.676 100.597 60.1597C100.144 60.5384 99.647 60.8701 99.13 61.2661C98.5355 60.8998 97.903 60.4953 97.2532 60.1405C96.5888 59.7827 95.8985 59.5185 95.0232 59.7721C95.3612 59.9408 95.6147 60.0768 95.9643 60.2631C94.5224 60.8568 93.5528 61.784 93.015 63.2114C92.8304 62.686 92.6516 62.1693 92.4318 61.5529C92.1925 64.7781 94.6796 69.1213 99.5692 70.6016C99.3424 70.6766 99.1651 70.7315 98.9848 70.8009C98.9907 70.8478 98.988 70.9006 98.9939 70.9475C99.2005 70.9368 99.4013 70.9553 99.5991 70.9123C100.28 70.7633 100.951 70.5819 101.638 70.4417C102.301 70.3042 102.901 70.4888 103.525 70.9373C102.645 71.525 101.834 72.0661 101.032 72.6014C100.346 73.0464 99.6666 73.5002 98.9693 73.9276C98.8327 74.006 98.6 74.0342 98.4688 73.9691C95.7185 72.6253 92.8012 72.0543 89.7776 72.0249C88.794 72.0201 87.9175 71.7785 87.1158 71.1944C86.903 71.0439 86.6554 70.9548 86.3585 70.924C86.6882 71.289 87.0093 71.6598 87.4003 72.0983C83.7379 72.6226 80.4119 73.8636 77.3555 75.8912C76.9668 75.2094 76.6014 74.563 76.2419 73.9253C76.21 73.9339 76.1867 73.9368 76.1547 73.9454C76.2075 74.1391 76.243 74.3444 76.3191 74.5352C76.694 75.5187 76.6178 76.4854 76.3089 77.4802C75.6015 79.7332 74.1245 81.4315 72.5427 83.0853C71.6661 84.0012 70.8829 85.0201 70.1113 86.0185C69.5225 86.7805 69.2162 87.6845 69.1983 88.6631C69.1987 88.8155 69.1525 88.9735 69.121 89.1727C68.9636 89.0869 68.8325 89.0218 68.6693 88.9272C68.6841 89.0064 68.6813 89.0592 68.6988 89.0856C69.4581 90.156 70.3939 90.8668 71.7989 90.6157C72.3166 90.5245 72.8086 90.6031 73.2261 91.1384C73.0343 91.2664 72.8513 91.3886 72.677 91.505C71.326 92.4068 69.9693 93.2999 68.6387 94.2135C68.3337 94.4172 68.1503 94.387 67.8646 94.1834C66.8559 93.4576 66.2307 92.4377 65.6577 91.3829C65.4472 90.9892 65.3906 90.4673 65.3982 90.0043C65.4061 88.4981 65.4984 86.9865 65.5005 85.4715C65.5075 84.78 65.3632 84.0877 65.2946 83.3958C65.2364 83.4219 65.184 83.4187 65.1229 83.4213ZM96.3832 51.9575C96.3747 52.0395 96.3749 52.1157 96.3663 52.1977C96.8177 52.3288 97.2663 52.5127 97.7292 52.5853C97.898 52.6125 98.1069 52.3586 98.2987 52.2306C98.1295 52.0891 97.963 51.8187 97.7971 51.8149C97.3228 51.8009 96.8487 51.9012 96.3832 51.9575Z" fill="#20113D"/>
<path d="M78.5746 82.4963C78.4989 82.496 78.3271 82.4834 78.0623 82.4821C78.8264 83.1426 79.6385 83.1729 80.4504 83.0888C81.4164 82.9908 82.3765 82.8078 83.3425 82.7098C83.9129 82.6597 84.4633 82.7884 84.8227 83.3883C84.6978 83.4845 84.5874 83.5837 84.4654 83.6652C83.0182 84.6317 81.5769 85.6071 80.1094 86.5618C79.9089 86.6958 79.5917 86.7294 79.3501 86.6872C78.625 86.5606 77.9173 86.3842 77.2009 86.2136C76.3622 86.0102 75.8488 85.5386 75.7797 84.6176C75.7586 84.3008 75.5861 83.9833 75.4224 83.6981C75.098 83.1511 74.7301 82.6333 74.362 82.0774C75.7124 80.8318 76.2818 79.1661 76.9066 77.5271C77.1814 76.8217 77.6227 76.3488 78.3263 76.0443C78.9012 76.7039 79.3802 77.3894 79.17 78.3443C79.0807 78.7221 78.9855 79.0911 78.9312 79.4837C78.8083 80.4566 78.6972 81.4472 78.5746 82.4963Z" fill="#20113D"/>
<path d="M83.0467 73.6946C84.8126 73.3424 86.436 73.0218 88.1147 72.6897C88.3691 74.4034 87.8843 76.1399 88.6507 77.7534C88.389 77.8519 88.1534 77.9329 87.915 78.0285C87.918 78.0901 87.9298 78.1459 87.9329 78.2075C88.3054 78.2004 88.6926 78.2346 89.0563 78.1571C89.6498 78.028 90.211 77.7932 90.8015 77.6406C91.4705 77.4737 91.9893 77.7636 92.4651 78.3113C91.8984 78.6898 91.3492 79.0566 90.8086 79.4176C89.8235 80.0756 88.85 80.7513 87.8473 81.3828C87.6671 81.4904 87.3528 81.5094 87.146 81.4439C86.3159 81.1966 85.7555 80.5781 85.4423 79.82C84.6138 77.8279 83.8609 75.7981 83.0467 73.6946Z" fill="#20113D"/>
<g filter="url(#filter2_d)">
<path d="M80.0001 28.335C53.6474 28.335 32.3257 48.2504 32.3257 72.7919C32.3257 97.3334 80.0001 167.665 80.0001 167.665C80.0001 167.665 127.675 97.3334 127.675 72.7919C127.675 48.2504 106.353 28.335 80.0001 28.335Z" stroke="white" stroke-width="3" stroke-miterlimit="10" stroke-linejoin="round"/>
</g>
</g>
<defs>
<filter id="filter0_d" x="0" y="0" width="160" height="204" filterUnits="userSpaceOnUse" color-interpolation-filters="sRGB">
<feFlood flood-opacity="0" result="BackgroundImageFix"/>
<feColorMatrix in="SourceAlpha" type="matrix" values="0 0 0 0 0 0 0 0 0 0 0 0 0 0 0 0 0 0 127 0"/>
<feOffset dy="4"/>
<feGaussianBlur stdDeviation="15"/>
<feColorMatrix type="matrix" values="0 0 0 0 0.960784 0 0 0 0 0.501961 0 0 0 0 0.129412 0 0 0 0.7 0"/>
<feBlend mode="normal" in2="BackgroundImageFix" result="effect1_dropShadow"/>
<feBlend mode="normal" in="SourceGraphic" in2="effect1_dropShadow" result="shape"/>
</filter>
<filter id="filter1_d" x="9.30225" y="8.56201" width="140.62" height="180.649" filterUnits="userSpaceOnUse" color-interpolation-filters="sRGB">
<feFlood flood-opacity="0" result="BackgroundImageFix"/>
<feColorMatrix in="SourceAlpha" type="matrix" values="0 0 0 0 0 0 0 0 0 0 0 0 0 0 0 0 0 0 127 0"/>
<feOffset dy="4"/>
<feGaussianBlur stdDeviation="15"/>
<feColorMatrix type="matrix" values="0 0 0 0 1 0 0 0 0 1 0 0 0 0 1 0 0 0 0.5 0"/>
<feBlend mode="normal" in2="BackgroundImageFix" result="effect1_dropShadow"/>
<feBlend mode="normal" in="SourceGraphic" in2="effect1_dropShadow" result="shape"/>
</filter>
<filter id="filter2_d" x="0.825684" y="0.834961" width="158.349" height="202.33" filterUnits="userSpaceOnUse" color-interpolation-filters="sRGB">
<feFlood flood-opacity="0" result="BackgroundImageFix"/>
<feColorMatrix in="SourceAlpha" type="matrix" values="0 0 0 0 0 0 0 0 0 0 0 0 0 0 0 0 0 0 127 0"/>
<feOffset dy="4"/>
<feGaussianBlur stdDeviation="15"/>
<feColorMatrix type="matrix" values="0 0 0 0 0 0 0 0 0 0 0 0 0 0 0 0 0 0 0.5 0"/>
<feBlend mode="normal" in2="BackgroundImageFix" result="effect1_dropShadow"/>
<feBlend mode="normal" in="SourceGraphic" in2="effect1_dropShadow" result="shape"/>
</filter>
</defs>
</svg>
