<svg display="none" xmlns="http://www.w3.org/2000/svg">
    <symbol id="arrow-right" viewBox="0 0 26 22">
        <path fill-rule="evenodd" clip-rule="evenodd" d="M14.0682 0.119971C13.8861 0.199174 13.7206 0.315255 13.5813 0.461565C13.4417 0.607505 13.3309 0.780876 13.2554 0.971748C13.1798 1.16262 13.1409 1.36724 13.1409 1.57389C13.1409 1.78055 13.1798 1.98517 13.2554 2.17604C13.3309 2.36691 13.4417 2.54028 13.5813 2.68622L19.609 9H2.4584C2.03405 9 1.62709 9.21071 1.32703 9.58579C1.02697 9.96086 0.858398 10.4696 0.858398 11C0.858398 11.5304 1.02697 12.0391 1.32703 12.4142C1.62709 12.7893 2.03405 13 2.4584 13H19.6098L13.5813 19.3146C13.2998 19.6096 13.1416 20.0097 13.1416 20.4269C13.1416 20.8441 13.2998 21.2443 13.5813 21.5393C13.8629 21.8343 14.2447 22 14.6429 22C15.041 22 15.4229 21.8343 15.7044 21.5393L24.7004 12.1127C24.84 11.9668 24.9508 11.7934 25.0264 11.6026C25.102 11.4117 25.1409 11.2071 25.1409 11.0004C25.1409 10.7938 25.102 10.5891 25.0264 10.3983C24.9508 10.2074 24.84 10.034 24.7004 9.88808L15.7044 0.461565C15.5651 0.315255 15.3997 0.199174 15.2175 0.119971C15.0354 0.0407677 14.8401 0 14.6429 0C14.4457 0 14.2504 0.0407677 14.0682 0.119971Z"/>
    </symbol>
    <symbol id="arrow-left" viewBox="0 0 26 22">   
        <path fill-rule="evenodd" clip-rule="evenodd" d="M11.9318 0.119971C12.1139 0.199174 12.2794 0.315255 12.4187 0.461565C12.5583 0.607505 12.6691 0.780876 12.7446 0.971748C12.8202 1.16262 12.8591 1.36724 12.8591 1.57389C12.8591 1.78055 12.8202 1.98517 12.7446 2.17604C12.6691 2.36691 12.5583 2.54028 12.4187 2.68622L6.39097 9H23.5416C23.9659 9 24.3729 9.21071 24.673 9.58579C24.973 9.96086 25.1416 10.4696 25.1416 11C25.1416 11.5304 24.973 12.0391 24.673 12.4142C24.3729 12.7893 23.9659 13 23.5416 13H6.39018L12.4187 19.3146C12.7002 19.6096 12.8584 20.0097 12.8584 20.4269C12.8584 20.8441 12.7002 21.2443 12.4187 21.5393C12.1371 21.8343 11.7553 22 11.3571 22C10.959 22 10.5771 21.8343 10.2956 21.5393L1.29962 12.1127C1.15999 11.9668 1.04921 11.7934 0.973627 11.6026C0.898043 11.4117 0.859135 11.2071 0.859135 11.0004C0.859135 10.7938 0.898043 10.5891 0.973627 10.3983C1.04921 10.2074 1.15999 10.034 1.29962 9.88808L10.2956 0.461565C10.4349 0.315255 10.6003 0.199174 10.7825 0.119971C10.9646 0.0407677 11.1599 0 11.3571 0C11.5543 0 11.7496 0.0407677 11.9318 0.119971Z"/>
    </symbol>
    <symbol id="camera" viewBox="0 0 20 20">   
        <path d="M10.0051 10.9923C10.6159 10.9923 11.2128 10.8162 11.7206 10.4863C12.2284 10.1563 12.6242 9.68741 12.8579 9.13877C13.0916 8.59013 13.1527 7.98642 13.0336 7.40398C12.9145 6.82155 12.6204 6.28654 12.1885 5.86663C11.7567 5.44672 11.2065 5.16075 10.6075 5.0449C10.0086 4.92904 9.38772 4.98851 8.8235 5.21576C8.25929 5.44302 7.77704 5.82786 7.43775 6.32162C7.09846 6.81539 6.91737 7.3959 6.91737 7.98975C6.91737 8.78607 7.24268 9.54978 7.82175 10.1129C8.40083 10.676 9.18622 10.9923 10.0051 10.9923ZM10.0051 6.9889C10.2087 6.9889 10.4077 7.0476 10.577 7.15757C10.7462 7.26755 10.8782 7.42386 10.9561 7.60674C11.034 7.78962 11.0543 7.99086 11.0146 8.185C10.9749 8.37915 10.8769 8.55748 10.7329 8.69745C10.589 8.83742 10.4056 8.93275 10.2059 8.97136C10.0063 9.00998 9.79934 8.99016 9.61127 8.91441C9.42319 8.83866 9.26244 8.71038 9.14935 8.54579C9.03625 8.3812 8.97589 8.1877 8.97589 7.98975C8.97589 7.72431 9.08433 7.46974 9.27735 7.28204C9.47037 7.09435 9.73217 6.9889 10.0051 6.9889ZM19.8758 16.1567C19.3732 14.5358 18.456 13.0654 17.21 11.883C17.9035 10.6641 18.2581 9.29024 18.2385 7.89726C18.2189 6.50429 17.8258 5.14039 17.0982 3.94032C16.3706 2.74026 15.3336 1.74557 14.0896 1.05452C12.8457 0.363479 11.4378 0 10.0051 0C8.57249 0 7.16463 0.363479 5.92066 1.05452C4.67669 1.74557 3.63967 2.74026 2.91206 3.94032C2.18445 5.14039 1.79143 6.50429 1.77183 7.89726C1.75224 9.29024 2.10674 10.6641 2.80032 11.883C1.547 13.0615 0.625601 14.533 0.124247 16.1567C-0.0097316 16.6019 -0.0357768 17.0713 0.0481558 17.528C0.132088 17.9847 0.323715 18.4163 0.608 18.7889C0.897643 19.1677 1.27506 19.4748 1.70963 19.6852C2.14419 19.8956 2.62366 20.0035 3.1091 19.9999H16.9012C17.3849 20.0019 17.8623 19.8933 18.295 19.683C18.7276 19.4726 19.1034 19.1664 19.392 18.7889C19.6763 18.4163 19.8679 17.9847 19.9518 17.528C20.0358 17.0713 20.0097 16.6019 19.8758 16.1567ZM10.0051 1.98466C11.2266 1.98466 12.4205 2.33686 13.4361 2.9967C14.4517 3.65655 15.2432 4.59442 15.7106 5.6917C16.178 6.78899 16.3003 7.99641 16.062 9.16128C15.8238 10.3262 15.2356 11.3962 14.3719 12.236C13.5083 13.0758 12.4079 13.6477 11.2099 13.8794C10.012 14.1112 8.7703 13.9922 7.64186 13.5377C6.51342 13.0832 5.54893 12.3135 4.87035 11.326C4.19177 10.3385 3.82958 9.17744 3.82958 7.98975C3.82958 6.3971 4.48022 4.86968 5.63836 3.74351C6.79651 2.61734 8.36729 1.98466 10.0051 1.98466ZM17.7452 17.5879C17.6483 17.7168 17.5212 17.8213 17.3744 17.8926C17.2276 17.964 17.0653 18.0002 16.9012 17.9982H3.1091C2.94497 18.0002 2.78272 17.964 2.6359 17.8926C2.48908 17.8213 2.36194 17.7168 2.26511 17.5879C2.17256 17.4639 2.11051 17.3209 2.08375 17.17C2.05698 17.019 2.06621 16.8641 2.11072 16.7171C2.48019 15.5074 3.14391 14.4019 4.04573 13.4944C4.81469 14.2786 5.73935 14.9029 6.76371 15.3295C7.78807 15.7561 8.89081 15.976 10.0051 15.976C11.1195 15.976 12.2222 15.7561 13.2466 15.3295C14.2709 14.9029 15.1956 14.2786 15.9646 13.4944C16.8664 14.4019 17.5301 15.5074 17.8996 16.7171C17.9441 16.8641 17.9533 17.019 17.9265 17.17C17.8998 17.3209 17.8377 17.4639 17.7452 17.5879Z" fill="white"/>
    </symbol>
    <symbol id="tag" viewBox="0 0 141 182">
        <path class="tag__bg" d="M70.6123 26.562C48.3304 26.562 30.3022 43.8072 30.3022 65.0582C30.3022 86.3092 70.6123 147.211 70.6123 147.211C70.6123 147.211 110.922 86.3092 110.922 65.0582C110.922 43.8072 92.8943 26.562 70.6123 26.562Z"/>
        <path class="tag__pic" d="M56.6769 85.4852C56.408 84.1008 56.3213 82.7251 56.5641 81.3494C56.9457 79.164 58.0297 77.379 59.7728 76.0469C60.64 75.3851 61.6373 74.8975 62.5739 74.3229C63.1896 73.9485 63.8487 73.6176 64.3777 73.1474C65.7739 71.8849 67.1094 70.5615 68.4709 69.2641C69.2774 68.4979 70.0753 67.723 70.9338 66.8958C70.3528 66.8523 69.8324 66.8436 69.3208 66.7652C68.8091 66.6869 68.2975 66.5563 67.9246 66.0338C68.1067 66.0251 68.2368 66.0164 68.3669 66.0164C69.737 65.9729 70.4308 65.2763 70.4568 63.9442C70.4742 63.2999 70.3181 62.6468 70.2314 62.0025C69.8411 59.2772 70.5175 56.8219 72.1132 54.6103C72.2173 54.4623 72.33 54.3055 72.4601 54.1227C72.0178 54.0705 71.6189 54.053 71.2373 53.966C70.8644 53.8789 70.5175 53.7222 70.1533 53.6003C70.162 53.5567 70.1707 53.5132 70.1793 53.4784C70.4655 53.4174 70.7517 53.3652 71.0292 53.2955C73.0758 52.7557 74.5761 51.5628 75.4866 49.6125C75.8682 48.8027 76.3018 48.0104 76.7875 47.2616C77.646 45.9468 78.8688 45.111 80.3864 44.7105C80.5251 44.6756 80.6552 44.6321 80.8373 44.5798C80.5598 44.4144 80.291 44.3012 80.0915 44.1097C79.9181 43.9442 79.8314 43.6917 79.7533 43.4044C80.4731 43.6482 80.9847 43.3086 81.5051 43.0039C82.3896 42.4815 83.3089 42.0897 84.3669 42.1332C85.6677 42.1941 86.6563 42.8472 87.4801 43.8136C87.5929 43.9442 87.6969 44.0836 87.8097 44.2316C88.5121 43.7179 89.2146 43.8572 89.865 44.2925C90.2292 44.5363 90.5154 44.902 90.8623 45.1893C91.4173 45.6595 91.955 46.1732 92.5707 46.565C92.8742 46.7566 93.3165 46.7218 93.7674 46.8088C94.0623 47.6534 93.6113 48.2629 92.111 48.8463C92.484 49.4993 92.8568 50.1523 93.2297 50.8053C93.5073 51.2842 93.7241 51.7544 93.5593 52.3639C93.4899 52.6425 93.672 53.0517 93.8541 53.3217C94.3224 54.0008 94.8514 54.6364 95.3544 55.2894C95.6146 55.6377 95.8661 55.9947 96.1176 56.343C96.3604 56.6825 96.3604 57.0134 96.1089 57.3443C95.788 57.7535 95.5105 58.215 95.1203 58.5458C94.5392 59.0334 94.0623 59.5907 93.5766 60.174C92.9002 60.9925 91.9289 61.0273 91.1311 60.3134C90.9316 60.1305 90.7148 59.9303 90.5934 59.6952C90.3159 59.1379 89.839 58.9289 89.2926 58.7809C88.7723 58.6416 88.252 58.5197 87.749 58.3456C87.3327 58.1976 86.9425 57.9973 86.5436 57.8145C86.4742 58.0844 86.5002 58.3108 86.8471 58.5458C87.3501 58.8767 87.8877 59.1466 88.4427 59.3991C88.6856 59.5123 88.8243 59.6168 88.911 59.8867C89.2926 61.1492 89.7002 62.403 90.1165 63.6481C90.5241 64.8758 90.5587 66.1383 90.5154 67.4183C90.4634 68.8549 90.2292 70.2393 89.7956 71.5976C89.4834 72.5641 89.1365 73.191 88.6942 73.6263C88.3994 72.8514 88.1132 72.0852 87.8184 71.3277C87.775 71.3364 87.7316 71.3451 87.6883 71.3538C87.7577 72.12 87.801 72.8862 87.9051 73.6525C88.382 77.0133 89.1105 80.3307 90.0818 83.5871C90.2119 84.0051 90.446 84.4143 90.6975 84.7713C91.1658 85.433 91.8422 85.6594 92.6314 85.5897C93.5419 85.5114 94.0189 85.79 94.227 86.6781C94.3831 87.3572 94.3918 88.0712 94.4699 88.8026C91.8075 88.8026 89.2753 88.8026 86.6476 88.8026C86.5696 87.7926 86.5175 86.7826 86.3961 85.7813C86.3354 85.2414 86.2574 84.6755 86.0146 84.2053C85.4769 83.1779 84.8438 82.2114 84.2281 81.2275C83.3522 79.8344 82.459 78.45 81.5831 77.0743C79.8053 77.8144 77.9582 78.5893 76.059 79.3729C75.9983 79.8692 75.9289 80.4787 75.8595 81.0795C75.7642 81.9328 75.3479 82.5945 74.6628 83.0647C73.9083 83.5784 73.1105 84.0138 72.33 84.4839C72.1219 84.6145 71.9137 84.7539 71.7056 84.8845C71.723 84.9367 71.7316 84.9889 71.749 85.0412C72.0091 85.076 72.278 85.1457 72.5295 85.1283C73.5354 85.0586 74.5414 84.9628 75.556 84.8757C75.7988 84.8583 76.0417 84.8322 76.2932 84.8322C78.5739 84.8235 80.0222 86.4691 79.7533 88.8113C79.6146 88.82 79.4758 88.8287 79.3371 88.8287C71.9831 88.8287 64.6205 88.8374 57.2666 88.8287C56.5208 88.8287 55.749 88.7939 55.0292 88.611C54.4395 88.463 53.7891 88.1757 53.3641 87.749C51.6731 86.0599 50.7885 84.0399 51.5603 81.628C52.0373 80.1479 52.6964 78.7199 53.3295 77.292C53.7457 76.3516 54.214 75.4374 54.3788 74.4013C54.6736 72.5815 53.8845 70.9359 52.3408 70.1697C51.3435 69.6734 49.6872 70.4396 49.4617 71.5105C49.4357 71.6411 49.5051 71.8675 49.6005 71.9285C50.3549 72.4074 50.7105 73.1213 50.8752 73.9659C51.1007 75.1413 50.8752 76.9959 50.3983 77.9189C50.1555 77.5445 49.9126 77.1701 49.6698 76.7957C49.7999 78.3629 49.1755 79.5819 48.2216 80.6703C48.1696 80.6529 48.1262 80.6529 48.1175 80.6442C47.7533 79.6603 47.0769 78.9289 46.2964 78.2584C45.9148 77.9276 45.62 77.5009 45.2817 77.1091C45.1777 77.3094 45.0303 77.5967 44.8828 77.884C44.4406 77.5009 44.163 76.6999 44.2845 75.9163C44.4666 74.7669 44.9522 73.7918 46.1056 73.2955C46.2183 73.2432 46.3051 73.0691 46.3571 72.9298C46.9121 71.467 47.7446 70.2132 49.1148 69.4034C50.2248 68.7417 51.4563 68.4892 52.7397 68.6895C53.9365 68.8723 54.6823 69.656 55.1072 70.7617C55.7143 72.3377 55.6796 73.9659 55.3067 75.5593C55.0379 76.726 54.6129 77.8579 54.162 78.9724C53.7717 79.9563 53.3468 80.9228 53.2254 81.9937C53.0173 84.0486 54.5435 85.642 56.6769 85.4852Z" fill="#20113D"/>
    </symbol>
    <symbol id="logo-zoo" viewBox="0 0 96 50">
        <path fill-rule="evenodd" clip-rule="evenodd" d="M75.3079 31.6763C76.7887 31.6763 77.7778 33.1169 77.2745 34.5457C77.0264 35.2613 76.5398 35.8058 76.0527 36.3508C76.0112 36.3973 75.9697 36.4437 75.9283 36.4903C75.583 36.8756 75.2494 37.2729 74.9626 37.6997C74.5529 38.3104 74.348 39.0159 74.2134 39.7392C74.1724 39.9644 74.1197 40.1838 74.0495 40.3972C73.6866 41.5711 72.7267 42.1224 71.562 41.7608C70.128 41.3162 69.3262 40.249 68.9399 38.8321C68.6648 37.8124 68.8228 36.846 69.4374 35.9923C69.6247 35.7255 69.9407 35.5299 70.2334 35.3757C70.4638 35.2542 70.7257 35.1924 70.9836 35.1316C71.0401 35.1183 71.0965 35.105 71.1523 35.0911C71.8312 34.9251 72.2995 34.5161 72.6448 33.9113C72.9257 33.4193 73.2242 32.9272 73.5871 32.4944C74.0261 31.9727 74.6114 31.6763 75.3079 31.6763ZM90.3669 37.8835C90.2909 39.425 89.6587 40.6522 88.336 41.4703C87.8151 41.7905 87.2473 41.9446 86.6269 41.832C85.9831 41.7134 85.509 41.3636 85.269 40.747C85.1227 40.3617 85.0173 39.9585 84.9354 39.5554C84.6954 38.3934 84.1687 37.4033 83.3375 36.5555C82.9161 36.1227 82.5357 35.6425 82.1962 35.1445C81.886 34.6939 81.7221 34.1663 81.7865 33.6031C81.9796 31.9372 83.7648 31.1368 85.1402 32.0972C85.7607 32.53 86.1821 33.1347 86.4923 33.8165C86.8318 34.5457 87.3878 34.9489 88.1428 35.1327C88.4764 35.2157 88.8101 35.3402 89.1203 35.4943C90.0158 35.939 90.2792 36.763 90.3611 37.6938C90.3699 37.7338 90.3688 37.7838 90.3677 37.8338V37.8339C90.3674 37.8456 90.3672 37.8573 90.367 37.8689C90.367 37.8738 90.3669 37.8787 90.3669 37.8835ZM80.1443 41.9778C79.968 41.9495 79.7917 41.9212 79.6158 41.8912C79.6158 41.897 79.6152 41.9033 79.6145 41.9099C79.6132 41.9237 79.6118 41.9385 79.6158 41.9505C79.4987 41.9594 79.3816 41.9653 79.2646 41.9713C79.1475 41.9772 79.0305 41.9831 78.9134 41.992C78.2462 42.0454 77.5906 42.158 77.0054 42.5019C75.8991 43.154 75.8231 44.5057 76.859 45.2646C77.0483 45.404 77.2597 45.5146 77.47 45.6247C77.5458 45.6644 77.6215 45.704 77.696 45.7448C77.8079 45.8071 77.9223 45.8668 78.0368 45.9266C78.2274 46.0262 78.4181 46.1257 78.5974 46.2369C78.89 46.4207 79.1007 46.6875 79.1183 47.0491C79.1592 47.891 78.7612 48.5905 77.7955 48.5965C77.6024 48.5965 77.3916 48.5965 77.2161 48.5313C76.9674 48.4411 76.7252 48.3362 76.4827 48.2312C76.2628 48.1361 76.0426 48.0408 75.8172 47.9562C75.6826 47.9028 75.4777 47.9028 75.3665 47.9799C75.2729 48.0451 75.2202 48.2585 75.2378 48.389C75.2553 48.4957 75.3899 48.6083 75.4953 48.6854C77.0522 49.7703 78.7671 50.1853 80.6342 49.9245C81.7814 49.7644 82.829 49.3316 83.7772 48.6498C84.0113 48.4838 84.0699 48.2645 83.9469 48.0688C83.8182 47.8673 83.6075 47.8317 83.3558 47.974C83.3119 47.9977 83.2695 48.0214 83.2271 48.0451C83.1846 48.0688 83.1422 48.0925 83.0983 48.1163C82.513 48.4364 81.9043 48.6558 81.2253 48.5905C80.6693 48.5313 80.283 48.1933 80.1425 47.6538C79.9786 47.0195 80.1074 46.5808 80.5991 46.2488C80.7722 46.1318 80.9591 46.0369 81.1461 45.9419C81.2815 45.8731 81.4169 45.8042 81.5472 45.727C81.6228 45.6829 81.6994 45.64 81.7761 45.597C82.0502 45.4434 82.3253 45.2893 82.5539 45.0808C83.2973 44.405 83.2329 43.2548 82.4252 42.662C82.1794 42.4782 81.8867 42.3181 81.5941 42.247C81.1172 42.1338 80.6309 42.0558 80.1443 41.9778Z"/>
        <path fill-rule="evenodd" clip-rule="evenodd" d="M26.1485 49.9999V45.1894H7.53358L25.5791 23.1924V19.3877H0.306599V24.1982H18.0456L0 46.1952V49.9999H26.1485ZM54.7789 34.6938C54.7789 40.1344 50.3593 44.5593 44.8896 44.5593C39.4199 44.5593 35.0002 40.1344 35.0002 34.6938C35.0002 29.2532 39.4199 24.8283 44.8896 24.8283C50.3593 24.8283 54.7789 29.2532 54.7789 34.6938ZM60.2195 34.6938C60.2195 43.1471 53.3561 49.9999 44.8896 49.9999C36.4231 49.9999 29.5596 43.1471 29.5596 34.6938C29.5596 26.2405 36.4231 19.3877 44.8896 19.3877C53.3561 19.3877 60.2195 26.2405 60.2195 34.6938Z"/>
        <path fill-rule="evenodd" clip-rule="evenodd" d="M52.3476 4.98807H49.8291V16.1798H52.3476V4.98807ZM49.95 2.70362C50.2589 2.99703 50.6417 3.14374 51.0984 3.14374C51.5685 3.14374 51.9514 2.99005 52.2469 2.68266C52.5558 2.3613 52.7103 1.97008 52.7103 1.509C52.7103 1.07586 52.5558 0.719568 52.2469 0.440123C51.9379 0.146708 51.5551 0 51.0984 0C50.6417 0 50.2589 0.153694 49.95 0.461081C49.6411 0.754498 49.4866 1.12476 49.4866 1.57187C49.4866 2.01898 49.6411 2.39623 49.95 2.70362ZM44.0051 0.628748H46.5236V16.1798H44.0051V0.628748ZM19.1203 15.593C19.9933 16.082 20.9739 16.3265 22.0619 16.3265C23.1633 16.3265 24.1505 16.082 25.0236 15.593C25.8967 15.1039 26.575 14.4263 27.0586 13.56C27.5556 12.6798 27.804 11.6877 27.804 10.5839C27.804 9.48013 27.5556 8.49509 27.0586 7.62882C26.575 6.76254 25.8967 6.08489 25.0236 5.59586C24.1505 5.10684 23.1633 4.86232 22.0619 4.86232C20.9739 4.86232 19.9933 5.10684 19.1203 5.59586C18.2472 6.08489 17.5622 6.76254 17.0652 7.62882C16.5816 8.49509 16.3398 9.48013 16.3398 10.5839C16.3398 11.6877 16.5816 12.6798 17.0652 13.56C17.5622 14.4263 18.2472 15.1039 19.1203 15.593ZM24.3587 13.1199C23.7543 13.7626 22.9887 14.084 22.0619 14.084C21.1351 14.084 20.3694 13.7626 19.765 13.1199C19.174 12.4772 18.8785 11.6319 18.8785 10.5839C18.8785 9.53602 19.174 8.6907 19.765 8.04798C20.3694 7.40526 21.1351 7.0839 22.0619 7.0839C22.9887 7.0839 23.7543 7.40526 24.3587 8.04798C24.9632 8.6907 25.2654 9.53602 25.2654 10.5839C25.2654 11.6319 24.9632 12.4772 24.3587 13.1199ZM39.5812 6.09886C38.7618 5.2745 37.6738 4.86232 36.3172 4.86232C35.5247 4.86232 34.8128 4.99506 34.1815 5.26053C33.5502 5.526 33.0264 5.91722 32.61 6.43419V4.98807H30.2124V16.1798H32.7309V10.5211C32.7309 9.43123 32.9995 8.59988 33.5368 8.02702C34.0741 7.44019 34.8061 7.14678 35.7329 7.14678C36.5523 7.14678 37.1836 7.39828 37.6268 7.90127C38.0701 8.3903 38.2917 9.12384 38.2917 10.1019V16.1798H40.8102V9.76656C40.8102 8.14579 40.4005 6.92322 39.5812 6.09886ZM61.758 4.86232C63.1146 4.86232 64.2026 5.2745 65.0219 6.09886C65.8413 6.92322 66.251 8.14579 66.251 9.76656V16.1798H63.7325V10.1019C63.7325 9.12384 63.5108 8.3903 63.0676 7.90127C62.6243 7.39828 61.993 7.14678 61.1737 7.14678C60.2469 7.14678 59.5148 7.44019 58.9775 8.02702C58.4403 8.59988 58.1716 9.43123 58.1716 10.5211V16.1798H55.6531V4.98807H58.0507V6.43419C58.4671 5.91722 58.991 5.526 59.6223 5.26053C60.2536 4.99506 60.9655 4.86232 61.758 4.86232ZM79.6182 11.4223C79.6451 11.0869 79.6585 10.8284 79.6585 10.6468C79.6585 9.50109 79.4234 8.49509 78.9533 7.62882C78.4966 6.74857 77.8519 6.07092 77.0191 5.59586C76.1998 5.10684 75.2662 4.86232 74.2185 4.86232C73.1574 4.86232 72.2038 5.10684 71.3575 5.59586C70.5113 6.08489 69.8464 6.76953 69.3629 7.64978C68.8928 8.51605 68.6577 9.4941 68.6577 10.5839C68.6577 11.6877 68.8995 12.6798 69.383 13.56C69.88 14.4263 70.5785 15.1039 71.4784 15.593C72.3784 16.082 73.4193 16.3265 74.6014 16.3265C75.5282 16.3265 76.361 16.1728 77.0997 15.8654C77.8385 15.558 78.4496 15.1039 78.9332 14.5031L77.5833 12.8893C76.8176 13.6997 75.8438 14.1049 74.6618 14.1049C73.735 14.1049 72.9559 13.8674 72.3246 13.3923C71.7068 12.9033 71.324 12.2466 71.1762 11.4223H79.6182ZM72.1635 7.71265C72.7276 7.20965 73.4126 6.95815 74.2185 6.95815C75.0379 6.95815 75.7229 7.20965 76.2736 7.71265C76.8244 8.21565 77.1534 8.87234 77.2609 9.68273H71.1561C71.2769 8.85837 71.6127 8.20168 72.1635 7.71265ZM93.0237 31.6501C94.8185 30.4484 96 28.4041 96 26.0843C96 22.3859 92.9971 19.3877 89.2929 19.3877C86.9235 19.3877 84.8411 20.6144 83.6479 22.4665C87.9921 23.9574 91.45 27.3508 93.0237 31.6501ZM66.2604 31.6504C64.4654 30.4487 63.2839 28.4044 63.2839 26.0845C63.2839 22.3861 66.2868 19.3879 69.991 19.3879C72.3604 19.3879 74.4429 20.6147 75.636 22.4668C71.2919 23.9577 67.834 27.3511 66.2604 31.6504Z"/>
    </symbol>
    <symbol id="youtube" viewBox="0 0 40 40">
        <circle cx="20" cy="20" r="20" fill="#FF0000"/>
        <path fill-rule="evenodd" clip-rule="evenodd" d="M31.3005 12.3781C31.6996 12.7772 31.9872 13.2739 32.1346 13.8187C32.9835 17.2357 32.7873 22.6324 32.1511 26.1813C32.0037 26.7261 31.7161 27.2228 31.317 27.6219C30.9179 28.021 30.4212 28.3086 29.8764 28.456C27.8819 29 19.8544 29 19.8544 29C19.8544 29 11.8269 29 9.8324 28.456C9.28759 28.3086 8.79089 28.021 8.39179 27.6219C7.99269 27.2228 7.70511 26.7261 7.55768 26.1813C6.70383 22.7791 6.9379 17.3791 7.5412 13.8352C7.68862 13.2903 7.97621 12.7936 8.37531 12.3945C8.77441 11.9954 9.2711 11.7079 9.81592 11.5604C11.8104 11.0165 19.8379 11 19.8379 11C19.8379 11 27.8654 11 29.8599 11.544C30.4047 11.6914 30.9014 11.979 31.3005 12.3781ZM23.9423 20L17.283 23.8571V16.1428L23.9423 20Z" fill="white"/>
    </symbol>
    <symbol id="instagram" viewBox="0 0 40 40">
        <circle cx="20" cy="20" r="20" fill="#C13584"/>
        <path d="M20 10.1622C23.2041 10.1622 23.5837 10.1744 24.849 10.2321C26.019 10.2855 26.6544 10.481 27.0773 10.6453C27.6374 10.863 28.0371 11.123 28.457 11.5429C28.877 11.9629 29.137 12.3626 29.3547 12.9227C29.519 13.3456 29.7145 13.981 29.7679 15.1509C29.8256 16.4163 29.8378 16.7958 29.8378 19.9999C29.8378 23.2041 29.8256 23.5836 29.7679 24.849C29.7145 26.019 29.519 26.6543 29.3547 27.0772C29.137 27.6373 28.877 28.0371 28.4571 28.457C28.0371 28.8769 27.6374 29.1369 27.0773 29.3546C26.6544 29.519 26.019 29.7144 24.849 29.7678C23.5839 29.8255 23.2044 29.8378 20 29.8378C16.7956 29.8378 16.4162 29.8255 15.151 29.7678C13.981 29.7144 13.3456 29.519 12.9227 29.3546C12.3626 29.1369 11.9629 28.8769 11.543 28.457C11.1231 28.0371 10.863 27.6373 10.6453 27.0772C10.481 26.6543 10.2855 26.019 10.2321 24.849C10.1744 23.5836 10.1622 23.2041 10.1622 19.9999C10.1622 16.7958 10.1744 16.4163 10.2321 15.1509C10.2855 13.981 10.481 13.3456 10.6453 12.9227C10.863 12.3626 11.123 11.9629 11.543 11.543C11.9629 11.123 12.3626 10.863 12.9227 10.6453C13.3456 10.481 13.981 10.2855 15.151 10.2321C16.4163 10.1744 16.7959 10.1622 20 10.1622ZM20 8C16.741 8 16.3323 8.01381 15.0524 8.07221C13.7752 8.13047 12.9028 8.33334 12.1395 8.62996C11.3504 8.93663 10.6812 9.34694 10.0141 10.0141C9.34695 10.6812 8.93663 11.3504 8.63001 12.1395C8.33334 12.9028 8.13047 13.7751 8.07221 15.0524C8.01381 16.3323 8 16.741 8 19.9999C8 23.259 8.01381 23.6676 8.07221 24.9475C8.13047 26.2248 8.33334 27.0971 8.63001 27.8604C8.93663 28.6495 9.34695 29.3187 10.0141 29.9859C10.6812 30.653 11.3504 31.0633 12.1395 31.3699C12.9028 31.6666 13.7752 31.8694 15.0524 31.9277C16.3323 31.9861 16.741 31.9999 20 31.9999C23.259 31.9999 23.6677 31.9861 24.9476 31.9277C26.2248 31.8694 27.0972 31.6666 27.8605 31.3699C28.6496 31.0633 29.3188 30.653 29.9859 29.9859C30.653 29.3187 31.0634 28.6495 31.37 27.8604C31.6667 27.0971 31.8695 26.2248 31.9278 24.9475C31.9862 23.6676 32 23.259 32 19.9999C32 16.741 31.9862 16.3323 31.9278 15.0524C31.8695 13.7751 31.6667 12.9028 31.37 12.1395C31.0634 11.3504 30.653 10.6812 29.9859 10.0141C29.3188 9.34694 28.6496 8.93663 27.8605 8.62996C27.0972 8.33334 26.2248 8.13047 24.9476 8.07221C23.6677 8.01381 23.259 8 20 8Z" fill="white"/>
        <path d="M20.0054 13.8433C16.6021 13.8433 13.8433 16.6021 13.8433 20.0054C13.8433 23.4087 16.6021 26.1675 20.0054 26.1675C23.4087 26.1675 26.1676 23.4087 26.1676 20.0054C26.1676 16.6021 23.4087 13.8433 20.0054 13.8433ZM20.0054 24.0054C17.7963 24.0054 16.0054 22.2145 16.0054 20.0054C16.0054 17.7963 17.7963 16.0054 20.0054 16.0054C22.2146 16.0054 24.0054 17.7963 24.0054 20.0054C24.0054 22.2145 22.2146 24.0054 20.0054 24.0054Z" fill="white"/>
        <path d="M27.8507 13.5963C27.8507 14.3915 27.206 15.0363 26.4107 15.0363C25.6154 15.0363 24.9707 14.3915 24.9707 13.5963C24.9707 12.801 25.6154 12.1562 26.4107 12.1562C27.206 12.1562 27.8507 12.801 27.8507 13.5963Z" fill="white"/>
    </symbol>
    <symbol id="facebook" viewBox="0 0 40 40">
        <circle cx="20" cy="20" r="20" fill="#3B5998"/>
        <path fill-rule="evenodd" clip-rule="evenodd" d="M25.315 12.9578C24.6917 12.8331 23.8498 12.74 23.3204 12.74C21.8867 12.74 21.7936 13.3633 21.7936 14.3607V16.1361H25.3774L25.065 19.8137H21.7936V31H17.3063V19.8137H15V16.1361H17.3063V13.8613C17.3063 10.7453 18.7708 9 22.4477 9C23.7252 9 24.6602 9.187 25.8753 9.43633L25.315 12.9578Z" fill="white"/>
    </symbol>
    <symbol id="logo-yem" viewBox="0 0 50 50">
        <path fill-rule="evenodd" clip-rule="evenodd" d="M50 25C50 38.8071 38.8071 50 25 50C11.1929 50 0 38.8071 0 25C0 11.1929 11.1929 0 25 0C38.8071 0 50 11.1929 50 25ZM6.66147 36.2813C6.2968 36.7362 5.91989 37.2064 5.52049 37.6945C5.95541 37.7226 6.27702 37.7588 6.54602 37.789C6.7433 37.8112 6.91228 37.8302 7.07691 37.8405C7.91281 37.8405 8.85051 37.7997 9.80503 37.7583C11.1832 37.6984 12.5964 37.6371 13.789 37.6945C14.4485 37.9544 14.6646 38.0992 15.0715 38.372C15.1598 38.4312 15.257 38.4964 15.3697 38.57C20.9388 42.2179 26.824 42.8502 32.6119 39.6644C33.9981 38.8862 36.4057 37.7432 36.4057 37.7432C36.4057 37.7432 39.2024 37.7918 40.5156 37.8648C41.3668 37.9134 42.218 37.8891 43.0691 37.8648C43.2915 37.8648 43.5059 37.841 43.7713 37.8115C43.9704 37.7893 44.1982 37.764 44.4796 37.7432C44.3065 37.5089 44.1674 37.3087 44.0447 37.132C43.8743 36.8868 43.7353 36.6866 43.5798 36.5029C43.4705 36.3655 43.3611 36.2276 43.2516 36.0896C42.5088 35.1529 41.7588 34.2073 40.9534 33.3171C40.2724 32.5632 40.1508 31.9552 40.5399 30.9582C44.6012 20.501 37.2812 9.071 26.1187 8.36575C14.0808 7.58754 5.20434 19.6255 9.53313 30.9095C9.92224 31.9309 9.77632 32.5875 9.09539 33.3658C8.26618 34.2796 7.49584 35.2405 6.66147 36.2813ZM30.8627 18.8283C28.9529 21.1377 27.0187 23.4765 25.0244 25.8755C23.3759 23.8876 21.7515 21.9359 20.1423 20.0024C18.523 18.0568 16.919 16.1296 15.3211 14.2023C19.4553 9.7033 28.6236 8.58462 34.752 14.1294C33.4594 15.6884 32.1667 17.2515 30.8627 18.8283ZM24.9757 37.4027C24.9757 37.4027 28.5993 32.3443 28.9397 31.8336C30.3168 33.0598 31.6061 34.2128 32.8643 35.3381C33.2282 35.6634 33.5894 35.9865 33.9495 36.3084C30.0098 40.4426 20.9874 40.9776 16.002 36.3813C17.6557 34.8979 19.3094 33.4144 21.1333 31.785C21.717 32.8064 24.9757 37.4027 24.9757 37.4027ZM11.5516 30.3745C10.1411 28.0885 9.9952 23.249 11.2841 20.0875C11.4629 20.3831 11.6401 20.6755 11.8156 20.9651C12.8098 22.6054 13.7513 24.1587 14.6401 25.7296C14.7617 25.9484 14.7131 26.4591 14.5429 26.678C13.8147 27.6488 13.0436 28.5767 12.2625 29.5165C12.0261 29.8009 11.7889 30.0864 11.5516 30.3745ZM38.8133 20.0875C39.9563 23.6624 39.8833 26.9455 38.6187 30.4718C38.5394 30.3759 38.461 30.2812 38.3834 30.1875C37.3195 28.9025 36.4175 27.813 35.5789 26.7023C35.4086 26.4591 35.3357 25.9728 35.4816 25.7296C36.2205 24.41 36.9977 23.1159 37.8314 21.7276C38.1501 21.1969 38.477 20.6525 38.8133 20.0875Z" fill="white"/>
    </symbol>
    <symbol id="logo-rsschool" viewBox="0 0 138 52" fill="none" >
        <path d="M71.2467 16.9291L77.8122 16.5059C77.962 17.5764 78.2366 18.3731 78.686 18.9457C79.4099 19.8419 80.4085 20.29 81.7316 20.29C82.7051 20.29 83.479 20.066 84.0033 19.5929C84.5025 19.2195 84.8021 18.622 84.8021 17.9996C84.8021 17.4021 84.5275 16.8295 84.0532 16.4561C83.5539 16.008 82.3806 15.5598 80.5333 15.1615C77.5127 14.4893 75.3408 13.5931 74.0677 12.4479C72.7945 11.3773 72.0705 9.80889 72.1205 8.14087C72.1205 6.99567 72.47 5.85046 73.119 4.90442C73.8679 3.8339 74.8915 2.98744 76.1147 2.51442C77.4378 1.94182 79.2851 1.64307 81.6067 1.64307C84.4526 1.64307 86.6245 2.16588 88.1223 3.2364C89.6201 4.28202 90.5188 5.97494 90.7934 8.29025L84.3028 8.66369C84.1281 7.66785 83.7786 6.94588 83.2044 6.47285C82.6302 5.99983 81.8813 5.77577 80.9077 5.77577C80.1089 5.77577 79.5098 5.95004 79.1104 6.27369C78.7359 6.57244 78.4863 7.02056 78.5112 7.51848C78.5112 7.89192 78.7109 8.24046 79.0105 8.46452C79.335 8.76327 80.1089 9.03712 81.3321 9.28608C84.3528 9.93337 86.4996 10.5807 87.8227 11.2529C89.1458 11.925 90.0944 12.7466 90.6686 13.7175C91.2677 14.7134 91.5673 15.8586 91.5423 17.0287C91.5423 18.4228 91.1429 19.817 90.3441 20.9871C89.5203 22.207 88.3719 23.1531 87.0239 23.7257C85.6009 24.3481 83.8036 24.6717 81.6567 24.6717C77.8622 24.6717 75.241 23.9497 73.7681 22.4809C72.2952 21.012 71.4215 19.1697 71.2467 16.9291ZM1.57272 24.2983V2.0414H13.081C15.203 2.0414 16.8506 2.21567 17.974 2.58911C19.0724 2.93765 20.0459 3.65963 20.695 4.63056C21.419 5.70108 21.7685 6.94587 21.7435 8.24046C21.8184 10.4313 20.695 12.5225 18.7728 13.618C18.0239 14.0412 17.2001 14.3399 16.3513 14.4893C16.9754 14.6636 17.5995 14.9623 18.1487 15.3109C18.5731 15.6594 18.9226 16.0577 19.2471 16.481C19.6216 16.9042 19.9461 17.3772 20.2207 17.8751L23.5658 24.3232H15.7272L12.0326 17.4768C11.5582 16.6055 11.1588 16.0328 10.7844 15.759C10.2851 15.4105 9.68596 15.2362 9.08683 15.2362H8.4877V24.2734H1.57272V24.2983ZM8.4877 11.0537H11.4085C12.0326 11.0039 12.6317 10.9043 13.2308 10.7549C13.6802 10.6802 14.0796 10.4313 14.3542 10.0579C15.0282 9.1616 14.9284 7.89192 14.1046 7.12015C13.6552 6.74671 12.7815 6.54754 11.5333 6.54754H8.4877V11.0537ZM0 43.3685L6.56549 42.9452C6.71527 44.0157 6.98987 44.8124 7.43922 45.385C8.13821 46.2813 9.16172 46.7543 10.4848 46.7543C11.4584 46.7543 12.2323 46.5302 12.7565 46.0572C13.2558 45.6589 13.5554 45.0863 13.5554 44.4639C13.5554 43.8664 13.2808 43.2938 12.8064 42.9203C12.3072 42.4722 11.1339 42.0241 9.26158 41.6257C6.24095 40.9536 4.0691 40.0573 2.79595 38.9121C1.52279 37.8416 0.798842 36.2731 0.84877 34.6051C0.84877 33.4599 1.19826 32.3147 1.84732 31.3687C2.59624 30.2982 3.61975 29.4517 4.84298 28.9787C6.16606 28.4061 8.01339 28.1073 10.335 28.1073C13.1809 28.1073 15.3527 28.6301 16.8506 29.7007C18.3484 30.7712 19.2221 32.4392 19.4967 34.7545L13.0062 35.1279C12.8314 34.1321 12.4819 33.4101 11.9077 32.9371C11.3585 32.4641 10.5847 32.24 9.61107 32.2649C8.81223 32.2649 8.2131 32.4392 7.81368 32.7877C7.41425 33.0865 7.18958 33.5346 7.21454 34.0325C7.21454 34.406 7.41425 34.7545 7.71382 34.9786C8.03835 35.2773 8.81223 35.5512 10.0355 35.8001C13.0561 36.4474 15.203 37.0947 16.526 37.7669C17.8491 38.4391 18.7978 39.2606 19.3719 40.2316C19.9711 41.2274 20.2706 42.3726 20.2706 43.5178C20.2706 44.912 19.8462 46.2813 19.0724 47.4514C18.2486 48.6713 17.1002 49.6173 15.7522 50.1899C14.3292 50.8123 12.5318 51.1359 10.3849 51.1359C6.59045 51.1359 3.96925 50.414 2.49638 48.9451C1.02352 47.4514 0.199711 45.6091 0 43.3685H0Z" fill="white"/>
        <path d="M33.2007 41.6258L39.242 43.4432C38.9174 44.9619 38.2434 46.4058 37.3198 47.6755C36.471 48.7958 35.3476 49.6672 34.0745 50.2398C32.7763 50.8124 31.1287 51.1112 29.1316 51.1112C26.7101 51.1112 24.713 50.7626 23.1902 50.0655C21.6425 49.3684 20.3194 48.1237 19.196 46.3561C18.0726 44.5884 17.5234 42.3229 17.5234 39.5595C17.5234 35.8749 18.497 33.0368 20.4692 31.07C22.4413 29.1033 25.2123 28.1074 28.8071 28.1074C31.628 28.1074 33.8248 28.68 35.4475 29.8003C37.0451 30.9455 38.2434 32.6883 39.0423 35.0285L32.9511 36.3728C32.8013 35.85 32.5766 35.3272 32.2771 34.8791C31.9026 34.3563 31.4283 33.9579 30.8541 33.6592C30.28 33.3604 29.6309 33.236 28.9818 33.236C27.4091 33.236 26.2108 33.8584 25.387 35.128C24.7629 36.0492 24.4384 37.518 24.4384 39.5097C24.4384 41.9744 24.8129 43.6673 25.5618 44.5885C26.3107 45.5096 27.3592 45.9577 28.7322 45.9577C30.0553 45.9577 31.0538 45.5843 31.7279 44.8623C32.4019 44.0905 32.9012 43.02 33.2007 41.6258ZM47.3053 28.4809H54.1953V36.2732H61.7344V28.4809H68.6743V50.7377H61.7344V41.7254H54.1953V50.7377H47.3053V28.4809Z" fill="white"/>
        <path d="M67.7266 39.6093C67.7266 35.9745 68.7501 33.1364 70.7722 31.1198C72.7942 29.1032 75.6401 28.0825 79.2599 28.0825C82.9795 28.0825 85.8253 29.0784 87.8474 31.07C89.8695 33.0617 90.868 35.85 90.868 39.435C90.868 42.0491 90.4187 44.1652 89.545 45.8332C88.6962 47.4764 87.3731 48.8207 85.7504 49.717C84.0779 50.6381 82.0059 51.1111 79.5345 51.1111C77.0131 51.1111 74.9411 50.7128 73.2935 49.9161C71.596 49.0697 70.198 47.7502 69.2743 46.132C68.2508 44.3893 67.7266 42.2233 67.7266 39.6093ZM74.6166 39.6342C74.6166 41.8748 75.041 43.493 75.8648 44.4889C76.6886 45.4598 77.8369 45.9577 79.2848 45.9577C80.7577 45.9577 81.906 45.4847 82.7298 44.5138C83.5536 43.5428 83.9531 41.825 83.9531 39.3354C83.9531 37.2442 83.5287 35.7006 82.6799 34.7546C81.8311 33.7837 80.6828 33.3106 79.2349 33.3106C77.9617 33.2608 76.7385 33.8086 75.8897 34.7795C75.041 35.7504 74.6166 37.3687 74.6166 39.6342ZM97.9328 39.6093C97.9328 35.9745 98.9563 33.1364 100.978 31.1198C103 29.1032 105.846 28.0825 109.466 28.0825C113.186 28.0825 116.057 29.0784 118.054 31.07C120.051 33.0617 121.074 35.85 121.074 39.435C121.074 42.0491 120.625 44.1652 119.751 45.8332C118.902 47.4764 117.579 48.8207 115.957 49.717C114.284 50.6381 112.212 51.1111 109.741 51.1111C107.219 51.1111 105.147 50.7128 103.5 49.9161C101.802 49.0697 100.404 47.7502 99.4806 46.132C98.457 44.3893 97.9328 42.2233 97.9328 39.6093ZM104.823 39.6342C104.823 41.8748 105.247 43.493 106.071 44.4889C106.895 45.4598 108.043 45.9577 109.491 45.9577C110.964 45.9577 112.112 45.4847 112.936 44.5138C113.76 43.5428 114.159 41.825 114.159 39.3354C114.159 37.2442 113.735 35.7006 112.886 34.7546C112.037 33.7837 110.889 33.3106 109.441 33.3106C108.168 33.2608 106.92 33.8086 106.096 34.7795C105.247 35.7504 104.823 37.3687 104.823 39.6342Z" fill="white"/>
        <path d="M120.35 28.4805H127.24V45.2602H138V50.7373H120.325V28.4805H120.35Z" fill="white"/>
        <path d="M112.722 27.1998C119.653 21.9789 121.793 13.1317 117.501 7.43887C113.209 1.74609 104.111 1.36352 97.1805 6.58439C90.2495 11.8053 88.11 20.6525 92.4018 26.3453C96.6935 32.0381 105.791 32.4206 112.722 27.1998Z" stroke="white" stroke-width="0.180618" stroke-miterlimit="10"/>
        <path d="M112.722 27.1998C119.653 21.9789 121.793 13.1317 117.501 7.43887C113.209 1.74609 104.111 1.36352 97.1805 6.58439C90.2495 11.8053 88.11 20.6525 92.4018 26.3453C96.6935 32.0381 105.791 32.4206 112.722 27.1998Z" stroke="white" stroke-width="0.180618" stroke-miterlimit="10"/>
        <path d="M97.9567 15.261L100.453 13.5183L103.524 17.8751C104.048 18.5722 104.447 19.319 104.747 20.1406C104.922 20.763 104.872 21.4352 104.622 22.0327C104.297 22.7795 103.773 23.4019 103.074 23.8501C102.25 24.4227 101.551 24.7463 100.952 24.8459C100.378 24.9455 99.779 24.8459 99.2298 24.5969C98.6307 24.2982 98.1065 23.875 97.707 23.3273L99.8539 21.3356C100.029 21.6094 100.253 21.8584 100.503 22.0576C100.678 22.182 100.877 22.2567 101.102 22.2567C101.277 22.2567 101.452 22.182 101.576 22.0825C101.826 21.9331 102.001 21.6343 101.976 21.3356C101.901 20.9124 101.726 20.4891 101.452 20.1655L97.9567 15.261ZM105.446 18.0244L107.718 16.2319C107.967 16.5307 108.292 16.7548 108.641 16.8792C109.14 17.0286 109.665 16.929 110.089 16.6054C110.389 16.4062 110.638 16.1324 110.738 15.7838C110.888 15.3357 110.638 14.8378 110.189 14.6884C110.114 14.6635 110.039 14.6386 109.964 14.6386C109.665 14.6137 109.14 14.7382 108.367 15.0618C107.093 15.5847 106.095 15.7838 105.346 15.7091C104.622 15.6344 103.948 15.261 103.549 14.6386C103.249 14.2154 103.099 13.7175 103.074 13.2196C103.074 12.6469 103.224 12.0743 103.549 11.6013C104.023 10.9291 104.597 10.3565 105.296 9.90841C106.345 9.18643 107.268 8.83789 108.067 8.83789C108.866 8.83789 109.615 9.21133 110.314 9.9831L108.067 11.7507C107.618 11.1781 106.769 11.0536 106.195 11.5017L106.12 11.5764C105.87 11.7258 105.695 11.9499 105.596 12.2237C105.521 12.4229 105.571 12.647 105.695 12.8212C105.795 12.9457 105.945 13.0453 106.12 13.0453C106.32 13.0702 106.669 12.9706 107.168 12.7465C108.417 12.2237 109.365 11.925 110.014 11.8254C110.563 11.7258 111.138 11.7756 111.662 11.9997C112.136 12.1988 112.536 12.5474 112.81 12.9706C113.16 13.4685 113.359 14.066 113.384 14.6884C113.409 15.3357 113.235 15.9581 112.885 16.5058C112.436 17.178 111.862 17.7506 111.188 18.1987C109.814 19.1448 108.691 19.5431 107.792 19.3937C106.819 19.2443 106.02 18.7464 105.446 18.0244Z" fill="white"/>
    </symbol>
    <symbol id="side-bar-panda" viewBox="0 0 81 61">
        <path fill-rule="evenodd" clip-rule="evenodd" d="M29.3149 37.7533C26.0307 38.7468 22.7211 38.594 19.386 36.3776C19.1298 36.6998 18.8674 37.0242 18.6022 37.3518C17.945 38.164 17.2714 38.9965 16.6365 39.8678C16.1655 40.5429 15.7263 41.2434 15.2872 41.944L15.2871 41.944C14.848 42.6446 14.4088 43.3452 13.9378 44.0203C12.894 45.5233 12.5122 47.1538 12.614 48.9625C12.7413 51.2808 11.8248 52.4527 9.55896 52.8603C4.90002 53.701 0.724802 50.2363 0.699343 45.5233C0.699343 45.0631 0.691136 44.6029 0.682958 44.1443C0.670765 43.4606 0.658637 42.7805 0.673876 42.1096C0.716682 40.3106 1.49723 38.7456 2.27428 37.1876C2.42152 36.8924 2.56863 36.5974 2.71057 36.3012C3.07788 35.539 3.44863 34.7781 3.81941 34.017C5.19618 31.1911 6.57343 28.3642 7.77685 25.4741C9.54581 21.2384 12.2032 17.5954 14.87 13.9395C15.4271 13.1757 15.9847 12.4113 16.5346 11.6409C16.561 11.6079 16.5891 11.5749 16.6175 11.5415L16.6177 11.5413L16.6177 11.5413L16.6178 11.5412L16.6178 11.5412L16.6178 11.5412C16.6991 11.4456 16.7836 11.3464 16.8401 11.2333C19.8188 5.80698 25.1142 4.5332 30.5624 3.46323C31.9059 3.20377 33.2386 2.8788 34.5704 2.55403C36.1155 2.17724 37.6596 1.80072 39.2183 1.52708C42.0697 1.01757 44.9974 0.60996 47.8997 0.508058C51.3366 0.38068 54.2389 1.98564 56.8102 4.20201C52.9151 2.21492 48.7399 1.52709 44.4119 1.62899C43.3172 1.65446 42.2224 1.75637 41.1277 1.88374C39.5493 2.06207 38.8873 3.23394 38.4545 4.58414C37.3344 8.02334 37.5635 11.4116 38.7601 14.8253C39.0484 15.6455 39.2282 16.5109 39.4073 17.373L39.4073 17.3731L39.4074 17.3731L39.4074 17.3731L39.4074 17.3732C39.5287 17.9571 39.6497 18.5394 39.8039 19.1052C40.0005 19.8102 40.1924 20.5175 40.3844 21.2252L40.3846 21.2258C41.0876 23.8167 41.7918 26.4121 42.7316 28.9133C43.1135 29.9578 44.3864 30.9768 45.4811 31.3844C49.7836 32.9384 54.188 33.7791 58.7451 32.2251C64.4733 30.2635 67.4265 24.1494 65.2625 18.4683C64.5691 16.6686 63.7466 14.9243 62.9206 13.1725L62.9206 13.1724L62.9205 13.1724C62.7761 12.866 62.6315 12.5594 62.4875 12.2523C62.3557 11.9695 62.0844 11.7426 61.8182 11.5198L61.8181 11.5198C61.7246 11.4415 61.6316 11.3637 61.5456 11.2842C61.2163 10.9716 60.873 10.6675 60.5288 10.3624C59.8349 9.74753 59.137 9.12907 58.5414 8.43096C57.7013 7.43741 57.7267 6.18911 58.465 5.11914C59.1779 4.07464 60.3235 3.81989 61.5201 4.02369C63.3786 4.3294 64.5751 5.47579 65.1861 7.18265C65.7717 8.83856 65.2116 10.2652 63.7605 11.5135C65.6699 13.093 66.3063 15.3603 66.8664 17.6021C67.0785 18.451 67.1924 19.3271 67.3066 20.2052V20.2053C67.4392 21.2247 67.5721 22.2468 67.8593 23.2322C68.3389 24.864 68.9144 26.4736 69.4905 28.0849C69.9847 29.4672 70.4794 30.8507 70.9143 32.2506C71.4792 34.0427 71.9993 35.8498 72.5191 37.6557L72.5193 37.6564C72.9599 39.1874 73.4003 40.7176 73.8675 42.237C74.1279 43.0838 74.4611 43.9097 74.794 44.7348L74.7941 44.735L74.7941 44.7352L74.7942 44.7354L74.7944 44.7357C74.9821 45.2012 75.1697 45.6663 75.3442 46.1347C75.9021 47.6164 77.1655 48.2836 78.4177 48.9449C78.6511 49.0681 78.8841 49.1911 79.112 49.3192C80.2831 49.9816 80.8941 50.8477 80.5886 52.2234C80.3086 53.5226 79.4685 54.3379 77.9155 54.2869C74.7331 54.1595 71.5763 53.8538 68.4194 53.5227C67.8848 53.4717 67.3247 52.9112 66.9428 52.4527C64.8043 49.8796 62.6912 47.2811 60.6036 44.6826C59.1524 42.8739 58.0832 40.8868 57.5231 38.6195C57.285 37.6865 56.7997 36.8 56.3199 35.9236C56.184 35.6753 56.0485 35.4278 55.9192 35.1803C55.7919 34.9255 55.4355 34.6962 55.1554 34.6453L54.9544 34.6054C53.3415 34.2846 51.737 33.9654 50.3437 35.3841C49.9891 35.7643 49.4075 35.968 48.9001 36.1457L48.8926 36.1483C48.0015 36.454 47.5942 37.0145 47.9252 37.8807C49.0996 41.0316 49.0109 44.2509 48.922 47.4775V47.4776C48.8779 49.0772 48.8338 50.6786 48.9435 52.2743C48.9888 52.8858 49.0743 53.4972 49.1598 54.1086C49.2666 54.8729 49.3735 55.6371 49.4018 56.4014C49.4272 56.9873 49.1726 57.828 48.7653 58.1337C45.3793 60.6813 41.586 61.1144 37.6908 59.7132C35.7559 58.9999 34.4575 57.5987 34.152 55.204C33.5665 50.2363 32.7773 45.2941 31.7589 40.4028C31.3922 38.5679 30.5096 36.8157 29.6499 35.1089L29.6498 35.1088L29.6498 35.1086L29.6497 35.1085C29.5545 34.9196 29.4597 34.7312 29.3658 34.5434C26.9218 29.6776 26.2344 24.6334 27.1 19.2326C27.8128 14.7489 28.7803 10.469 31.7589 6.92789C32.3733 6.20464 33.1031 5.58405 33.8299 4.96593L33.8301 4.96583L33.8301 4.96576L33.8302 4.96573C34.1273 4.71303 34.424 4.46074 34.7121 4.20201C34.7557 4.16465 34.8023 4.12881 34.8493 4.09263C34.9947 3.9808 35.1443 3.86574 35.2213 3.6925C31.3007 3.74345 27.7619 4.8389 24.2741 6.46934C21.0067 7.96874 19.1343 10.6427 17.2385 13.3503L17.2385 13.3503C16.8151 13.9549 16.3906 14.5612 15.9491 15.1565C15.7709 15.4112 15.7709 15.8443 15.7963 16.201C16.1702 19.7673 17.5443 23.0162 18.9157 26.2585L19.0041 26.4676C19.2769 27.0863 19.4198 27.77 19.5627 28.4537C19.6198 28.7272 19.677 29.0006 19.7424 29.2699C19.8952 29.9578 20.0479 30.6711 20.0989 31.3844C20.1092 31.5294 20.1205 31.6754 20.1318 31.8219C20.2041 32.7568 20.2784 33.7169 20.1243 34.6198C19.8188 36.2248 19.9461 36.7088 21.6009 36.9636C22.126 37.0161 22.6555 37.0686 23.1873 37.1214L23.2001 37.1227L23.208 37.1235L23.2139 37.1241C25.2517 37.3263 27.323 37.5318 29.3149 37.7533ZM41.5864 13.8348C40.1098 13.2234 39.4988 11.7712 39.2952 10.0644C39.066 8.20468 40.7463 5.88641 42.7066 5.19857C44.2596 4.66358 46.449 5.52975 47.3146 7.05828C47.8238 7.9754 48.0275 8.7142 46.9073 9.50394C45.6399 10.3917 44.4626 11.3955 43.1922 12.4786C42.6764 12.9184 42.1452 13.3713 41.5864 13.8348ZM46.4228 21.653C45.9646 23.6655 47.263 25.2705 48.8414 25.1431C48.9843 24.6873 49.121 24.2409 49.2557 23.8006C49.5051 22.9858 49.7481 22.192 50.0125 21.3982C50.0825 21.1997 50.1793 21.0066 50.2758 20.8139L50.2758 20.8139L50.2758 20.8138C50.3899 20.5861 50.5036 20.359 50.5726 20.1244C50.7763 19.3856 51.0054 18.4176 50.0634 18.1883C49.376 18.0354 48.2813 18.2647 47.8485 18.7488C47.1611 19.513 46.652 20.6085 46.4228 21.653ZM55.5105 18.8004C55.6242 18.6487 55.7288 18.4835 55.8319 18.3208C56.0749 17.9371 56.3088 17.5678 56.6307 17.4247C56.9616 17.2718 57.6745 17.5775 58.0309 17.8832C58.1094 17.9509 58.1884 18.0186 58.2674 18.0864L58.2674 18.0864C59.111 18.8098 59.9716 19.5479 60.5768 20.4563C60.9077 20.9913 60.7804 21.9848 60.5513 22.6472C60.3731 23.1312 59.7112 23.6407 59.202 23.7426C58.871 23.7936 58.3364 23.1822 58.0054 22.7746C57.4454 22.0867 56.9616 21.3734 56.4779 20.6091C56.2315 20.2744 56.0459 19.891 55.8285 19.4419L55.8285 19.4419C55.7315 19.2416 55.6283 19.0282 55.5105 18.8004ZM56.8457 27.9538L56.8604 27.9449C56.8531 27.9014 56.8438 27.8558 56.8342 27.8088C56.8101 27.6905 56.784 27.5629 56.784 27.4353C56.6482 27.4014 56.5124 27.3561 56.3767 27.3108C56.1051 27.2202 55.8336 27.1296 55.562 27.1296C54.5182 27.1296 53.4744 27.1551 52.456 27.2825C52.0487 27.3335 51.565 27.6137 51.3868 27.9194C51.2849 28.0977 51.6159 28.6582 51.8959 28.9129C52.0447 29.0617 52.2629 29.1149 52.4846 29.169C52.6425 29.2075 52.8021 29.2464 52.9398 29.3205C53.2198 29.4734 53.729 29.7791 53.7035 29.9065C53.6017 30.2631 53.3471 30.6198 53.0416 30.8745C52.8937 31.0061 52.6821 31.0527 52.4206 31.1104C52.277 31.142 52.1183 31.177 51.9469 31.2312C52.935 31.1664 53.8511 31.1015 54.7671 31.0367C55.2906 30.9996 55.8142 30.9626 56.3512 30.9255C56.0506 30.7918 55.7062 30.7513 55.3746 30.7123C54.6951 30.6323 54.0691 30.5587 53.9836 29.7027C55.0218 29.0692 55.9341 28.5113 56.8457 27.9538Z"/>
    </symbol>
    <symbol id="side-bar-eagle" viewBox="0 0 65 61">
        <path d="M19.8579 54.5723C24.1924 53.5812 26.9328 50.7994 29.709 47.8438C29.3328 47.7395 29.0463 47.6525 28.7597 47.583C24.9446 46.6441 21.4341 45.0446 18.2101 42.8713C16.222 41.5326 14.5921 39.8461 13.3562 37.7945C13.195 37.5337 13.0697 37.2555 12.9443 36.9774C12.9085 36.9078 12.9085 36.8209 12.8726 36.5775C14.0906 36.9426 15.2369 37.2903 16.3653 37.638C16.4011 37.6033 16.419 37.5859 16.4548 37.5511C16.3295 37.4468 16.222 37.3425 16.0966 37.2555C14.6279 36.3341 13.195 35.3778 11.7084 34.5085C10.0069 33.5001 8.21579 32.6308 6.56798 31.5876C4.36493 30.1793 2.80667 28.1973 1.67828 25.9023C1.62455 25.798 1.60664 25.6937 1.58873 25.5894C1.57081 25.5372 1.58873 25.4676 1.58873 25.3112C3.41564 26.0762 5.11719 27.1541 7.23068 26.9629C3.07534 24.6505 0.496158 21.4167 0.675268 16.5485C2.44845 18.4436 4.18582 20.3213 5.92318 22.199C5.95901 22.1643 6.01274 22.1121 6.04856 22.0773C5.33212 20.7212 4.49031 19.3998 3.95298 17.9742C3.41565 16.5485 3.05743 15.0011 2.87832 13.4885C2.69921 11.9759 2.84249 10.4285 2.84249 8.89854C2.93205 8.88115 3.02161 8.88116 3.09325 8.86377C3.93506 10.7067 4.77688 12.5497 5.61869 14.41C5.70825 14.41 5.7978 14.3926 5.88736 14.3926C5.85154 11.0371 6.22767 7.75105 7.82175 4.74322C7.89339 4.74322 7.96503 4.74323 8.03668 4.76061C8.03668 5.50822 8.0725 6.23844 8.03668 6.98605C7.83966 10.6546 9.29045 13.7841 11.4577 16.6354C12.9085 18.5305 14.6996 20.1127 16.6339 21.5384C19.1773 23.4161 22.0251 24.7896 24.873 26.1457C27.5238 27.3975 29.8522 29.1014 32.0374 31.0139C33.3628 32.1788 34.7419 33.2741 36.1032 34.4042C36.4793 34.7171 36.8554 35.0649 37.2853 35.4474C37.9838 33.8826 38.6286 32.4222 39.2734 30.9443C40.8317 27.4323 43.178 24.4766 46.0796 21.9209C48.3901 19.8867 50.7364 17.922 53.047 15.9052C56.1814 13.1582 58.1337 9.75047 58.7606 5.68208C58.9934 4.23902 58.8859 2.72642 58.9397 1.26597C58.9397 1.02256 58.9397 0.761771 59.0292 0.500977C60.1576 3.0046 60.48 5.64731 60.7487 8.39434C61.8592 6.20367 62.9517 4.013 64.0622 1.80495C64.1518 1.82233 64.2413 1.83972 64.313 1.8571C64.1876 4.09993 64.1697 6.34276 63.901 8.5682C63.6323 10.7763 63.1129 12.9495 62.701 15.0533C63.2562 14.2187 63.901 13.2625 64.6533 12.1672C64.707 14.3057 64.6354 16.2355 63.704 18.0611C62.7905 19.8693 61.3218 21.2254 59.7277 22.5641C60.6054 22.738 61.3039 22.4424 61.9845 22.1121C62.6472 21.7991 63.2562 21.4167 64.0264 20.982C63.9547 21.3123 63.9189 21.5384 63.8473 21.747C62.8801 24.2854 61.3756 26.4761 59.1188 28.093C57.7396 29.1014 56.2709 29.9881 54.9097 30.9965C54.05 31.6398 53.441 32.0397 53.4052 32.9264C53.9783 32.7351 54.5336 32.5612 55.1963 32.3526C54.0858 36.0385 51.1484 38.2987 48.5871 40.9414C48.8379 41.0457 49.0349 41.1153 49.2319 41.2022C50.5036 41.7064 51.5783 42.4714 52.3126 43.6189C52.8678 44.4708 52.9932 45.3749 52.7604 46.3659C52.6887 46.6615 52.8678 47.0614 53.0649 47.3222C53.6738 48.2263 53.7634 49.1477 53.2261 50.0866C52.7066 51.0081 51.8469 51.4601 50.7185 51.5297C51.6141 49.9649 51.5783 49.6172 50.3603 48.7826C50.2349 49.4259 50.1096 50.0344 49.9842 50.6777C49.1782 50.0344 48.4797 49.2694 47.602 48.8174C46.7065 48.3654 45.6497 48.2437 44.5751 47.9481C44.6288 48.1741 44.6288 48.3132 44.6825 48.4349C45.4706 50.3648 46.205 52.3294 47.1005 54.2245C47.4229 54.92 48.0677 55.5111 48.6588 56.0327C49.214 56.5195 49.6081 56.3457 49.823 55.6328C49.9663 55.1286 50.02 54.607 50.1096 54.1028C50.1991 53.6508 50.4499 53.4595 50.7723 53.5986C50.8439 54.0159 50.9335 54.3462 50.9514 54.6766C50.9693 55.0243 50.9693 55.3894 50.8976 55.7198C50.826 56.0153 50.629 56.2935 50.4857 56.5717C50.5215 56.6238 50.5752 56.6586 50.6111 56.7108C51.0947 56.3978 51.5962 56.0849 52.0619 55.7545C52.2947 55.5807 52.4738 55.3546 52.6887 55.1634C53.5306 54.4158 53.9425 54.4679 54.5336 55.459C54.2112 55.4242 53.9246 55.372 53.6201 55.3373C53.5664 56.6238 52.1693 56.6064 51.5962 57.4758C52.2768 57.441 52.8858 57.3888 53.4947 57.3888C54.4261 57.3888 54.8022 57.8061 54.6231 58.7276C54.3545 58.1017 53.9067 58.1886 53.4768 58.3625C52.5634 58.7276 51.632 58.6059 50.7006 58.4842C49.6797 58.3451 48.7662 58.4842 47.8886 59.0753C47.3154 59.4752 46.7244 59.8577 45.9005 59.6838C45.7214 59.649 45.399 60.2228 45.1661 60.501C44.79 60.0142 44.8079 59.5447 45.4348 59.1622C45.8288 58.9188 46.2945 58.7971 46.7244 58.6233C46.993 58.5189 47.2796 58.432 47.5125 58.2581C48.0319 57.8756 48.0319 57.6322 47.5304 57.2497C46.2945 56.2761 45.0587 55.3199 43.8228 54.3462C43.7153 54.2593 43.59 54.1898 43.4825 54.1724C41.8526 54.0333 40.957 52.9901 40.2764 51.7209C40.1331 51.4427 40.0257 51.0602 39.6316 51.3036C39.4167 51.4427 39.1839 51.86 39.2555 52.0686C39.6316 53.4422 40.4555 54.5201 41.7272 55.2155C42.2825 55.1286 42.3899 53.8073 43.178 54.607C43.1064 54.9026 43.0526 55.0765 43.0168 55.2503C43.2317 55.2851 43.4646 55.372 43.6795 55.3546C44.0377 55.3546 44.396 55.2851 44.7542 55.2503C44.7721 55.3199 44.79 55.4068 44.8079 55.4763C44.5572 55.598 44.3064 55.7198 43.9661 55.8936C45.6855 55.9805 45.6855 55.9805 45.7572 56.8672C45.202 56.3457 44.6646 56.7629 44.1273 56.8325C42.9093 56.9716 42.0675 57.5279 41.6198 58.6928C41.4765 59.0579 41.0824 59.3187 40.7242 59.7186C40.7421 59.7708 40.7958 59.9446 40.8317 60.1359C40.0615 59.8751 39.8824 59.51 40.2585 58.8493C40.5451 58.3451 40.9212 57.8756 41.2615 57.3888C41.566 56.9542 41.566 56.5891 40.9929 56.3457C40.0615 55.9458 39.2734 55.3025 38.1809 55.1982C37.7689 55.1634 37.4107 54.6244 36.9987 54.2767C36.8017 54.5896 36.533 54.9548 36.3181 55.372C35.6912 56.6065 34.6345 57.3541 33.3091 57.7018C29.1358 58.8145 25.1954 58.1886 21.5236 55.9805C20.9147 55.6328 20.4669 55.0938 19.8579 54.5723Z"/>
    </symbol>
    <symbol id="side-bar-lemur" viewBox="0 0 37 61">
        <path fill-rule="evenodd" clip-rule="evenodd" d="M18.059 0.509589C19.0001 0.456908 19.8976 0.650073 20.8213 0.974941C20.7908 1.06204 20.7625 1.14765 20.7347 1.23176L20.7347 1.23176C20.6672 1.43593 20.6027 1.63129 20.5163 1.81784C20.2505 2.39295 19.9804 2.96805 19.7103 3.54315C19.4401 4.11826 19.17 4.69336 18.9042 5.26847L18.9035 5.2701C18.7604 5.58031 18.6907 5.73136 18.5735 5.79504C18.4623 5.85548 18.3084 5.83723 18.0083 5.80165L17.9544 5.79528C17.6494 5.76016 17.4664 5.62846 17.4229 5.32993C17.4044 5.20421 17.381 5.07786 17.3576 4.9514L17.3576 4.95136L17.3576 4.95133L17.3576 4.9513L17.3576 4.95127L17.3575 4.95123L17.3575 4.9512L17.3575 4.95117L17.3575 4.95113L17.3575 4.9511L17.3575 4.95107C17.2927 4.60071 17.2276 4.24938 17.266 3.90753C17.3622 3.06287 17.518 2.22366 17.6736 1.38561L17.6736 1.38556L17.6736 1.38548L17.6736 1.38539L17.6736 1.38531L17.6737 1.38522L17.6737 1.38513L17.6737 1.38506L17.6737 1.385L17.6737 1.38497L17.6737 1.38494L17.6737 1.3849C17.7154 1.16039 17.7571 0.935963 17.7976 0.711534C17.815 0.632512 17.9631 0.518369 18.059 0.509589ZM12.1868 3.35521L12.187 3.35546L12.187 3.35551L12.1871 3.35561C12.7648 4.22139 13.3301 5.06853 13.9201 5.90076C14.138 6.21685 14.4342 6.49781 14.9135 6.30465C15.6455 6.02368 15.8285 5.83052 15.6106 5.05786C15.3499 4.11869 15.5117 3.2156 15.6741 2.30935L15.6741 2.30933C15.6908 2.21583 15.7076 2.12229 15.7239 2.02868C15.7849 1.69503 15.7762 1.32626 15.6977 0.992616C15.6629 0.834572 15.3492 0.597506 15.2272 0.623847C13.894 0.957495 12.7263 1.61601 11.6109 2.49403C11.8051 2.7832 11.9966 3.07022 12.1868 3.35521ZM8.76397 10.0505C9.37446 10.4996 9.98674 10.95 10.6099 11.4059C10.4007 12.4157 9.86047 12.9864 8.80609 13.1005C7.35086 13.2498 6.1222 12.6527 5.01554 11.7572C4.95454 11.7045 4.9284 11.5113 4.97197 11.4235C5.03594 11.2801 5.09961 11.1364 5.16332 10.9926L5.16393 10.9912L5.16474 10.9894L5.16497 10.9889L5.16567 10.9873L5.16569 10.9872L5.16571 10.9872L5.16573 10.9872L5.16574 10.9871L5.16576 10.9871L5.16578 10.9871L5.16579 10.987L5.16581 10.987L5.16583 10.987L5.16585 10.9869L5.16586 10.9869L5.16588 10.9869L5.1659 10.9868L5.16591 10.9868C5.44847 10.349 5.73168 9.70977 6.04378 9.08797C6.12758 8.91305 6.26484 8.76714 6.39624 8.62747L6.39627 8.62743C6.45614 8.56379 6.51479 8.50144 6.56661 8.43823C7.30603 8.97791 8.03256 9.5124 8.76162 10.0488L8.76314 10.0499L8.76344 10.0501L8.76397 10.0505ZM9.15362 15.4169C7.50669 15.0043 5.91204 14.6004 4.1954 14.1614C4.15863 14.3652 4.11755 14.5755 4.07556 14.7904L4.07555 14.7905C3.99815 15.1867 3.9177 15.5985 3.85556 16.014C3.7959 16.4075 3.75649 16.8044 3.71632 17.2089V17.2089C3.69196 17.4543 3.66732 17.7025 3.63771 17.9544C5.01451 18.6481 6.42616 18.8412 7.82039 18.0335C8.81377 17.4715 9.2059 16.5408 9.15362 15.4169ZM3.69866 20.0716C3.43724 21.4589 3.64638 22.7671 4.13436 24.0403C4.17793 24.1456 4.29121 24.2598 4.39577 24.2949C6.45226 24.9885 8.77016 23.6013 9.09258 21.7311C9.13614 21.4764 9.15357 21.2043 9.13614 20.9496C9.03158 19.8345 8.82244 19.6765 7.74192 19.8345L7.43061 19.8801C6.68901 19.9889 5.94658 20.0978 5.19745 20.1594C4.86838 20.1835 4.53109 20.1497 4.18277 20.1147C4.02379 20.0988 3.86251 20.0826 3.69866 20.0716ZM9.55447 28.3061C10.2516 26.8134 10.0337 25.7422 8.85736 24.8115C7.63741 25.7422 6.22576 26.0847 4.70954 26.1373C4.60497 26.1373 4.43069 26.2866 4.40455 26.4007C4.16928 27.5158 4.5004 28.508 5.11909 29.4211C5.16862 29.4932 5.26335 29.5303 5.37034 29.5722C5.43274 29.5966 5.4993 29.6226 5.5635 29.6582C5.53333 29.6785 5.50389 29.6987 5.47475 29.7188L5.47469 29.7188C5.40286 29.7683 5.33289 29.8164 5.25851 29.8601C3.67258 30.8172 2.39164 32.0728 1.63352 33.7849C0.640137 36.0414 0.282871 38.3682 1.1804 40.7652C1.34195 41.1961 1.49054 41.6348 1.63889 42.0727L1.63893 42.0729L1.63898 42.073L1.63902 42.0732L1.63907 42.0733L1.63911 42.0734L1.63916 42.0736L1.63921 42.0737L1.63925 42.0738L1.6393 42.074L1.63934 42.0741L1.63939 42.0742L1.63943 42.0744L1.63948 42.0745L1.63953 42.0747L1.63957 42.0748L1.63962 42.0749L1.63966 42.0751C1.76313 42.4396 1.88643 42.8036 2.01694 43.1622C2.45263 44.3739 2.48749 45.6206 2.13894 46.8323C1.11069 50.3707 2.07794 53.6194 3.44602 56.8242C3.56607 57.0921 3.76207 57.3344 3.95098 57.568L3.96014 57.5793C4.22156 57.9042 4.5614 58.0095 4.97096 57.8691C5.38051 57.7198 5.67678 57.4476 5.65935 57.0174C5.64192 56.4642 5.57221 55.9111 5.44151 55.3755C5.3413 54.9496 5.2193 54.5282 5.09731 54.1067C4.97531 53.6853 4.85332 53.2638 4.75311 52.838C4.47426 51.6351 4.83153 50.6429 5.80749 49.8966C5.84912 49.8659 5.88985 49.8342 5.93027 49.8028L5.93037 49.8027L5.93047 49.8027L5.93058 49.8026L5.93068 49.8025L5.93073 49.8025L5.93078 49.8024L5.93083 49.8024L5.93089 49.8023L5.93113 49.8022C6.01735 49.7352 6.10211 49.6693 6.1909 49.6156C7.66356 48.764 8.5698 47.4294 9.31919 45.9455C9.52846 45.5238 9.79926 45.131 10.0697 44.7388L10.0697 44.7387C10.1934 44.5594 10.317 44.3801 10.4346 44.1982L10.5391 44.2509C10.5914 44.4968 10.6448 44.7426 10.6982 44.9884L10.6982 44.9886C10.8583 45.7261 11.0184 46.4636 11.1491 47.2011C11.7329 50.4059 13.6152 52.8204 15.7936 55.0682C16.0085 55.2933 16.2912 55.4587 16.5581 55.6148L16.5692 55.6213C16.9352 55.8408 17.3099 55.8408 17.6584 55.5511C18.0157 55.2525 18.1464 54.875 17.9895 54.4535C17.8327 54.0497 17.6323 53.6545 17.3883 53.2946C17.1352 52.9263 16.862 52.5732 16.589 52.2204C16.3543 51.9171 16.1197 51.614 15.8982 51.3014C14.8612 49.8439 14.8177 48.8166 15.8372 47.3591C16.6476 46.1914 17.2053 44.9182 17.702 43.5397C17.8406 43.6047 17.9769 43.6649 18.1103 43.7238L18.1105 43.7239L18.1106 43.7239L18.1107 43.724L18.1108 43.724L18.111 43.7241C18.3379 43.8243 18.5567 43.9209 18.7651 44.0314C20.9087 45.208 22.2245 47.0606 23.0088 49.3347C23.3273 50.2417 23.6018 51.1653 23.876 52.0879L23.876 52.0881L23.8762 52.0887C23.947 52.3269 24.0178 52.5651 24.0893 52.8029C24.342 53.6458 24.7515 54.3921 25.3092 55.0594C25.522 55.3123 25.7345 55.5653 25.9469 55.8182L25.947 55.8182L25.947 55.8182L25.947 55.8182C26.9438 57.0048 27.9388 58.1892 28.9516 59.3617C29.2392 59.6953 29.5878 60.0114 29.9625 60.2485C30.6421 60.6787 31.3044 60.547 31.9318 59.9412C32.3849 59.5022 32.4633 58.9578 32.0538 58.2642C31.8189 57.8647 31.5159 57.5026 31.2178 57.1464L31.2178 57.1463L31.2177 57.1463L31.2176 57.1462L31.2172 57.1457C31.1617 57.0794 31.1064 57.0133 31.0517 56.9471C30.8774 56.7364 30.677 56.5345 30.4679 56.3589C28.6989 54.8399 28.2632 52.8292 28.3417 50.6254C28.3543 50.2553 28.3992 49.8853 28.4428 49.5254L28.4429 49.5253C28.4593 49.3899 28.4755 49.2559 28.4898 49.124C28.7624 49.0715 29.0318 49.019 29.2953 48.9677L29.2969 48.9674C29.7824 48.8728 30.248 48.7821 30.677 48.7025C30.8395 49.0632 30.9915 49.4319 31.1438 49.8012C31.4735 50.6004 31.8045 51.4029 32.2455 52.1356C32.8942 53.2156 33.6628 54.2208 34.4312 55.2258L34.4316 55.2263L34.4317 55.2265L34.4317 55.2265C34.6127 55.4632 34.7936 55.6998 34.973 55.9374C35.2779 56.3413 35.6875 56.6662 36.2452 56.5345C36.5415 56.4642 36.768 55.6564 36.6199 55.0857C36.4805 54.5501 36.3149 54.0058 36.0448 53.5316C34.8422 51.398 34.3804 49.0537 34.058 46.6743C33.8924 45.4626 33.1779 44.9182 31.9754 45.1553C29.7272 45.6031 27.4703 45.8226 25.1785 45.6206C25.0217 45.6031 24.8649 45.568 24.7081 45.5329L24.708 45.5328C23.0872 45.1465 22.4423 43.6363 23.2789 42.17C23.305 42.1173 23.3312 42.0647 23.3747 42.0208C24.1538 41.2293 24.576 40.2461 25 39.2589C25.1499 38.91 25.3 38.5606 25.4661 38.2189C25.7972 37.5516 26.4246 36.9897 27.0259 36.498C27.7665 35.9009 28.6728 35.6024 29.6052 35.4005C29.7359 35.3741 29.9276 35.2512 29.9537 35.1458C29.9799 35.0229 29.8753 34.7946 29.7707 34.742C29.7042 34.7103 29.6373 34.6778 29.57 34.6451C29.1704 34.4507 28.7581 34.2502 28.333 34.1976C27.6358 34.1098 26.9126 34.1273 26.2068 34.1976C25.4225 34.2766 24.7254 34.0308 24.0718 33.7147C23.3747 33.381 22.7125 32.9244 22.0851 32.4679C20.3684 31.2123 18.6344 29.9919 16.665 29.1577C14.5563 28.2534 12.3691 27.9548 10.1034 28.2885C9.93788 28.2709 9.75489 28.2797 9.55447 28.3061ZM19.1129 26.616C18.4158 27.055 17.6576 27.2482 16.8385 27.2482C16.0543 27.2219 15.3049 27.0638 14.6688 26.5721C13.9629 26.0365 13.6928 25.2463 14.1024 24.4824C14.3638 24.0017 14.7281 23.5803 15.0925 23.1588L15.0926 23.1587L15.0927 23.1586L15.0928 23.1584L15.093 23.1583L15.0931 23.1581L15.0932 23.158L15.0933 23.1578L15.0934 23.1577L15.0936 23.1576L15.0937 23.1574L15.0938 23.1573L15.0939 23.1571L15.0939 23.1571L15.094 23.1571L15.094 23.1571L15.094 23.1571C15.2149 23.0172 15.3359 22.8773 15.453 22.7352C15.514 22.6649 15.6622 22.6386 15.7667 22.6474C17.6576 22.8318 19.1216 24.14 19.4614 25.7907C19.5486 26.1946 19.4353 26.4141 19.1129 26.616ZM9.64987 4.03198C10.6433 4.78708 12.0375 6.508 12.9873 8.13234L12.8893 8.2573L12.8893 8.25732L12.8893 8.25734L12.8891 8.25754L12.889 8.25762L12.8889 8.25782C12.6643 8.54404 12.4521 8.81441 12.2466 9.09817C12.0636 9.35279 11.8458 9.41426 11.5321 9.31767C9.92001 8.79964 8.81334 7.64065 7.64567 6.39386C8.32472 5.59561 8.98637 4.81488 9.64801 4.03418L9.64838 4.03374L9.64987 4.03198ZM23.2437 9.42381C23.9618 8.80061 24.8364 8.69169 25.7162 8.58212L25.7162 8.58211L25.7163 8.5821L25.7163 8.5821L25.7164 8.58209L25.7164 8.58209L25.7165 8.58208L25.7165 8.58208L25.7165 8.58207L25.7166 8.58206L25.7166 8.58206L25.7167 8.58205C25.9151 8.55734 26.1138 8.53259 26.311 8.50189C26.7642 8.43165 27.2173 8.29995 27.653 8.15946C27.7488 8.12434 27.8883 7.94874 27.8708 7.86094C27.7401 6.99169 27.47 6.17513 26.7467 5.6132C26.6247 5.51662 26.4243 5.45516 26.2849 5.47272C25.2218 5.63954 24.2371 6.00831 23.357 6.63171C23.2524 6.71073 23.1479 6.78975 23.052 6.87755C22.1458 7.72045 22.2068 8.6775 23.2437 9.42381ZM23.584 23.8298C22.7039 22.2494 18.8698 20.7392 17.8764 21.5909C17.8764 21.6172 17.8764 21.6611 17.8938 21.6699C19.0789 22.706 19.9329 24.0142 20.7607 25.34C20.9611 25.6649 21.1615 25.6825 21.4752 25.5771C22.2072 25.3313 23.0437 24.6464 23.584 23.8298ZM29.4388 40.8709C29.3081 41.547 29.038 41.7489 28.3409 41.7665C28.2184 41.7435 28.0959 41.7252 27.974 41.7071C27.7231 41.6696 27.4747 41.6326 27.2342 41.5557C26.4499 41.3187 26.1101 40.7655 26.2582 39.949C26.3105 39.6504 26.4238 39.3607 26.5545 39.0885C27.0251 38.1315 27.8006 37.4554 28.6894 36.911C28.9944 36.7266 29.3604 36.6125 29.7089 36.551C29.87 36.5198 30.0488 36.5641 30.2263 36.608C30.2985 36.6259 30.3704 36.6437 30.4409 36.6564C30.4262 36.7208 30.4149 36.7888 30.4035 36.857C30.3747 37.0306 30.3455 37.2064 30.2579 37.3325C29.7525 38.0612 29.6044 38.8778 29.5608 39.7382C29.5434 40.1158 29.5085 40.5021 29.4388 40.8709ZM27.8267 39.589C27.4433 39.589 27.1035 39.9314 27.1122 40.3177C27.1144 40.4173 27.1371 40.5119 27.176 40.5975C27.1377 40.5124 27.1153 40.4186 27.1132 40.3198C27.1132 39.9335 27.4443 39.5911 27.8277 39.5911C28.1108 39.5911 28.3576 39.7604 28.4697 40.0066C28.3581 39.7593 28.1107 39.589 27.8267 39.589ZM23.5053 11.861C23.8448 11.8893 24.1821 11.9173 24.5178 11.9452L24.5179 11.9452L24.5181 11.9452L24.5181 11.9452L24.5182 11.9452L24.5183 11.9452C25.8453 12.0554 27.1457 12.1633 28.4461 12.2824C28.8295 12.3175 28.9515 12.1683 28.9864 11.8083C29.0561 11.0356 28.7947 10.4298 28.1498 10.0083C27.0606 9.30592 25.1174 9.42884 24.124 10.2717C23.6186 10.6932 23.4007 11.2288 23.5053 11.861ZM22.7214 1.75488C23.767 2.3256 24.7604 2.90509 25.4575 3.89726C23.8542 4.84552 22.3031 5.76744 20.752 6.69815C20.4644 6.24157 20.4296 5.93427 20.6387 5.29331C21.0363 4.0588 21.789 3.02983 22.552 1.98667L22.5524 1.98615L22.553 1.98535C22.6091 1.90863 22.6653 1.83184 22.7214 1.75488ZM20.3512 19.9945C21.4381 20.3668 22.3115 21.0397 23.2018 21.7256L23.2018 21.7256C23.739 22.1395 24.2823 22.5581 24.8825 22.9183C24.9641 22.7888 25.0453 22.6604 25.1261 22.5328L25.1271 22.5311L25.1278 22.5301L25.1279 22.5299C25.4519 22.0179 25.7681 21.5182 26.0676 21.013C26.1111 20.9427 26.085 20.7408 26.0153 20.6881C24.8825 19.7925 23.6625 19.0725 22.1724 19.0023C21.4318 18.9847 20.7695 19.1779 20.3512 19.9945ZM28.6384 14.1647C28.621 14.884 28.6031 15.6207 28.1417 16.226C27.9606 16.166 27.7815 16.1053 27.6035 16.045C27.1309 15.8849 26.667 15.7278 26.1985 15.5938C25.3707 15.3743 24.5429 15.1724 23.7064 14.988C23.3927 14.9177 23.3229 14.7597 23.3665 14.4612C23.4798 13.6358 24.0462 13.1266 25.0047 13.0915C26.2334 13.0388 27.3662 13.4514 28.4729 13.9431C28.5513 13.9783 28.6384 14.0924 28.6384 14.1626L28.6384 14.1647ZM25.5606 40.8882C25.3745 41.1173 25.2081 41.3188 25.0529 41.5066L25.0524 41.5072C24.8807 41.715 24.7227 41.9062 24.5672 42.0999C24.5138 42.1665 24.4581 42.2316 24.4026 42.2966L24.4025 42.2967C24.268 42.4542 24.1343 42.6107 24.0356 42.7847C23.7132 43.3466 23.8701 43.9613 24.4626 44.2159C24.9332 44.4178 25.456 44.5495 25.9614 44.6022C27.3121 44.7515 28.6453 44.6198 29.9524 44.2247C29.8653 43.6101 29.5864 43.3291 28.9764 43.2676C28.672 43.2402 28.3641 43.2299 28.057 43.2197L28.0569 43.2196L28.0567 43.2196L28.0565 43.2196C27.8717 43.2134 27.6871 43.2073 27.5038 43.1974C26.3187 43.1271 26.127 42.9428 25.8917 41.7838C25.8508 41.5895 25.7707 41.3991 25.6856 41.1968C25.6438 41.0974 25.6008 40.9952 25.5606 40.8882ZM26.6596 19.4215C25.2654 18.6927 23.845 18.0606 22.2678 17.7445C22.4943 16.6206 23.235 16.1201 24.4027 16.2694C25.5791 16.4099 26.6247 16.9016 27.5833 17.5777C27.6791 17.6479 27.8011 17.8059 27.775 17.8762C27.5833 18.3679 27.3828 18.8684 27.1301 19.3337C27.0779 19.4215 26.7729 19.483 26.6596 19.4215ZM30.4855 39.0281C30.4855 39.9412 30.6337 40.0905 31.3308 39.9588C31.6183 39.9061 31.9233 39.7832 32.1586 39.6076C33.0648 38.9315 33.3175 37.2984 32.6901 36.394C32.542 36.1833 32.4113 36.0955 32.1673 36.2711C31.1565 37.0174 30.5291 37.9569 30.4855 39.0281Z"/>
    </symbol>
    <symbol id="side-bar-gorilla" viewBox="0 0 69 61">
        <path fill-rule="evenodd" clip-rule="evenodd" d="M48.1978 26.9514C48.8218 28.2855 49.4457 29.6197 50.0924 31.0129C49.929 31.1468 49.7636 31.2851 49.5956 31.4254L49.5948 31.4261L49.5947 31.4261C49.2148 31.7436 48.8222 32.0716 48.4133 32.3825C47.959 32.7261 47.5085 33.0745 47.0582 33.4227L47.0576 33.4233L47.0575 33.4233C45.945 34.2838 44.8339 35.1431 43.671 35.9246C39.4847 38.7465 34.8672 39.8918 29.898 39.4431C28.6841 39.3368 27.4021 38.9 26.8916 38.534C27.1864 36.41 27.4698 34.3449 27.7533 32.2799L27.7538 32.2763C27.7198 32.2645 27.6829 32.2556 27.646 32.2468C27.6091 32.2379 27.5723 32.2291 27.5382 32.2173C27.4278 32.4505 27.3182 32.6838 27.2088 32.9169L27.2085 32.9176C26.936 33.4981 26.6643 34.0768 26.381 34.6495C25.6453 36.1624 25.152 37.769 24.6575 39.3792C24.5192 39.8298 24.3807 40.2808 24.2368 40.73C23.3292 43.5283 21.7068 45.6772 18.95 46.728C18.8138 46.787 18.7004 47.0231 18.6436 47.2002C18.5325 47.5673 18.4337 47.9387 18.335 48.3098L18.3349 48.3101C18.2019 48.8102 18.069 49.3098 17.9062 49.7978C17.2822 51.6869 16.1137 53.1509 14.5367 54.2726C13.8333 54.7685 13.1299 55.2762 12.4605 55.8193C11.8819 56.2798 11.9046 56.4805 12.4719 56.941C12.5828 57.0311 12.6944 57.1199 12.8057 57.2084L12.8058 57.2085L12.8058 57.2085C13.1612 57.4912 13.5137 57.7716 13.8333 58.0862C14.3552 58.6057 14.5934 59.2669 14.4005 60.0226C14.3552 60.1997 14.0942 60.4358 13.9354 60.4358C10.2142 60.4594 6.48162 60.4594 2.76041 60.4476C2.62427 60.4476 2.4314 60.4004 2.35198 60.3059C2.23805 60.1616 2.12141 60.0178 2.00443 59.8736L2.00422 59.8733L2.00419 59.8733C1.58542 59.3571 1.16228 58.8354 0.843076 58.2633C0.638864 57.8973 0.616173 57.2834 0.752315 56.8701C2.06835 52.7023 3.75878 48.747 6.94677 45.7126C7.08291 45.5827 7.16233 45.2993 7.17367 45.0986C7.25309 42.0997 7.59345 39.1243 8.33088 36.2316C8.96621 33.7285 9.64692 31.2255 10.8495 28.9231C13.0618 24.7199 15.9208 21.2132 20.3114 19.3241C24.0893 17.7065 27.7765 17.9545 31.3729 19.8672C31.8666 20.1321 32.3131 20.4954 32.7481 20.8492C32.9528 21.0157 33.155 21.1801 33.3583 21.3313C32.9499 20.4103 32.2351 19.6547 31.4637 18.9581C32.1901 18.6705 32.9193 18.3921 33.6472 18.1143L33.6474 18.1142C36.8639 16.8863 40.0552 15.6681 42.8769 13.704C43.0011 14.1539 43.1232 14.6083 43.2459 15.0653L43.2459 15.0654C43.4034 15.6518 43.562 16.2423 43.7278 16.8328C43.7732 16.9745 43.8639 17.1044 43.9774 17.2225C43.7505 15.7584 43.7505 14.2943 44.2837 12.9483C44.7829 11.6732 45.3842 10.3862 46.1556 9.27639C48.0503 6.58441 50.3307 4.24664 52.872 2.20404L52.872 2.20402L52.872 2.204C52.9741 2.12136 53.0762 2.03873 53.1896 1.95609C53.3718 1.83506 53.5524 1.7061 53.7333 1.57687C54.6114 0.949698 55.4984 0.316114 56.6272 0.551068C58.4878 0.92889 60.0421 1.94429 61.1086 3.60906C61.4149 4.08134 61.7666 4.41194 62.2544 4.58904C63.5251 5.04951 64.4781 5.84057 65.0907 7.12753C65.3128 7.59775 65.6331 8.01417 65.9539 8.43126C66.1084 8.63207 66.263 8.83304 66.4068 9.04025C66.7017 9.4653 66.7585 9.81951 66.4294 10.3154C66.1572 10.7286 66.021 11.2836 65.9416 11.7913C65.8395 12.3934 66.0664 12.783 66.679 13.1136C68.2787 13.9637 69.209 15.8647 68.3241 17.7892C68.1766 18.108 68.0405 18.4268 67.9157 18.7574C67.3257 20.3395 66.2025 20.8944 64.6596 20.3395C64.6341 20.3306 64.6078 20.3218 64.5816 20.3129L64.5815 20.3129C64.5028 20.2863 64.4242 20.2598 64.3646 20.2332C64.081 20.6465 63.7974 21.0479 63.491 21.4729C63.4475 21.4176 63.4102 21.3772 63.3817 21.3464C63.3433 21.305 63.3209 21.2807 63.3209 21.2604C63.4116 20.245 62.8217 19.6429 62.1637 19.0289C59.0891 16.148 55.3225 16.6675 52.7472 18.3323C53.0367 18.2712 53.3236 18.2045 53.6096 18.138L53.6096 18.138C54.1529 18.0117 54.6931 17.8861 55.2431 17.801C58.5105 17.3287 61.3468 18.8518 62.8557 21.898C63.8995 23.9996 64.6369 26.1957 64.4554 28.6279L64.4534 28.6564V28.6565C64.4199 29.1328 64.3835 29.6517 64.1944 30.0684C63.5364 31.5325 63.7406 33.0083 64.1037 34.4606L64.1706 34.7312C64.5112 36.111 64.861 37.5276 65.5105 38.7465C68.0178 43.4338 68.222 48.499 68.0405 53.635C67.961 55.8429 67.2803 57.8029 65.5332 59.2315C64.5575 60.0344 63.5137 60.5893 62.209 60.483C61.6077 60.4358 60.9951 60.424 60.3938 60.483C59.2593 60.6129 58.4765 60.0226 57.8071 59.1961C57.081 58.3106 56.752 57.2834 56.9562 56.1263C57.013 55.8193 57.2285 55.4415 57.4781 55.2998C57.7916 55.1265 58.0205 55.367 58.2525 55.6107C58.2892 55.6492 58.3259 55.6878 58.363 55.7248C58.7127 56.077 59.1745 56.3358 59.6147 56.5825L59.6147 56.5825L59.6223 56.5868C60.0081 56.7993 60.2123 56.6222 60.2577 56.1735C60.3031 55.6422 60.1442 55.1935 59.7585 54.8511C57.5916 52.9266 56.2301 50.4117 55.0049 47.8024C54.0632 45.7834 53.4619 43.67 53.2464 41.4267C53.0875 39.7383 53.3712 38.0971 53.6775 36.4559C53.825 35.7121 53.9725 34.9565 54.0178 34.189C54.1199 32.6659 53.6094 31.379 52.3501 30.5643C50.7958 29.5607 49.4117 28.3564 48.2999 26.8451C48.3112 26.8805 48.2545 26.9159 48.1978 26.9514ZM51.5212 32.3137C52.1793 32.8686 52.4175 33.5062 52.2814 34.2973C52.1975 34.8087 52.1051 35.3187 52.0128 35.8287L52.0126 35.8294L52.0126 35.8295C51.8428 36.7675 51.6728 37.7058 51.5553 38.654C51.1695 41.8537 51.8843 44.8763 53.0755 47.7926C53.2911 48.3239 53.3138 48.749 53.0869 49.2803C52.0545 51.7125 50.9313 54.0857 49.4791 56.2936C47.5958 59.1509 44.9637 60.4732 41.6737 60.4732C41.4792 60.4732 41.2858 60.4764 41.0929 60.4796H41.0928C40.6439 60.4871 40.1972 60.4945 39.745 60.4614C39.5181 60.4496 39.2344 60.2961 39.1096 60.1072C38.0546 58.6196 38.2361 55.538 39.45 54.1802C39.5861 54.0267 39.8925 53.885 40.0626 53.944C40.192 53.9921 40.2837 54.1968 40.3685 54.3859C40.3878 54.429 40.4067 54.4713 40.4257 54.5107C40.4725 54.6082 40.5065 54.7155 40.5404 54.8223C40.5968 55.0002 40.6526 55.1764 40.766 55.3018C40.9703 55.5498 41.322 55.904 41.5489 55.8567C41.7871 55.8095 42.0254 55.3727 42.1275 55.0657C42.2296 54.7705 42.1955 54.4045 42.1388 54.0975C42.0566 53.6652 41.9534 53.2361 41.8505 52.8078L41.8505 52.8077C41.6695 52.0545 41.4892 51.3038 41.4241 50.5436C41.1177 47.1314 41.4127 43.7783 42.8309 40.6258C43.1599 39.9056 43.5343 39.1735 44.0221 38.5596C44.5326 37.8984 45.168 37.3199 45.8146 36.8004C46.4782 36.2577 47.162 35.7446 47.8467 35.2307L47.8468 35.2307L47.8471 35.2304C48.3095 34.8834 48.7723 34.5361 49.2295 34.1792C49.7396 33.7751 50.2446 33.3604 50.7581 32.9387C51.0099 32.7319 51.2637 32.5235 51.5212 32.3137ZM27.1375 40.7059C26.8462 40.6162 26.5535 40.5261 26.2553 40.4348C26.1543 40.6627 26.0563 40.8939 25.958 41.1258C25.7915 41.5188 25.624 41.9142 25.4385 42.3003C24.3153 44.6617 22.8404 46.7161 20.56 48.0385C20.3785 48.1447 20.2537 48.4163 20.1857 48.6406C19.6411 50.5415 18.9604 52.3598 17.7011 53.8947C17.6103 54.0128 17.5309 54.2253 17.5649 54.3552C17.962 55.6658 18.3704 56.9763 18.8129 58.2633C18.8923 58.4876 19.1306 58.7001 19.3461 58.83C20.1516 59.3023 20.9571 59.7628 21.7853 60.1996C22.0576 60.3413 22.3753 60.4712 22.6702 60.4712C25.0693 60.4889 27.4619 60.4867 29.8577 60.4845C30.657 60.4837 31.4566 60.483 32.2569 60.483H32.9603C32.884 60.3202 32.8218 60.1614 32.763 60.0111C32.6468 59.7145 32.5436 59.451 32.3704 59.2551C31.9392 58.771 31.4514 58.3105 30.9295 57.9445C30.4394 57.6014 29.9074 57.3165 29.3773 57.0327C29.2324 56.9552 29.0878 56.8778 28.9441 56.7992C28.3769 56.4804 28.1273 56.0082 28.1727 55.347C28.1802 55.1895 28.1979 55.0321 28.2155 54.8747C28.2243 54.796 28.2332 54.7173 28.2407 54.6385C28.2754 54.2811 28.3186 53.9225 28.3618 53.5635C28.46 52.7486 28.5584 51.9315 28.5584 51.1201C28.5584 49.4317 27.8323 47.9794 26.7999 46.7043C28.5924 45.3111 28.9441 43.3393 29.1143 41.3085C28.4324 41.1046 27.7885 40.9063 27.1375 40.7059Z"/>
    </symbol>
    <symbol id="side-bar-alligator" viewBox="0 0 59 48">
        <path d="M20.0622 40.6874C20.2864 41.1792 20.6308 40.9454 20.9912 40.9374C21.5678 40.9212 21.9201 40.5342 22.4407 40.3085C21.9842 40.1714 21.5998 40.0505 21.1914 39.9215C21.0632 40.1875 20.9271 40.4778 20.7829 40.7761C20.7429 40.7761 20.6949 40.7761 20.6548 40.7761C20.6068 40.5584 20.5427 40.3407 20.5267 40.123C20.5107 39.865 20.4226 39.736 20.1503 39.728C19.9981 39.7199 19.846 39.6231 19.6378 39.5425C19.4856 39.9457 19.3094 40.3972 19.1012 40.9535C18.7488 40.3407 18.8129 39.7683 18.8449 39.2119C18.3804 38.9459 18.3804 38.9459 18.0921 39.8247C18.0361 39.6876 17.94 39.5506 17.932 39.4135C17.8999 39.0749 17.7638 38.8652 17.4034 38.7685C17.1151 38.6798 17.019 38.7121 17.011 39.0265C17.003 39.3974 16.963 39.7763 16.8989 40.1472C16.8749 40.3165 16.7708 40.4778 16.7067 40.6471C16.6666 40.6471 16.6266 40.6471 16.5946 40.6471C16.5465 40.4939 16.4905 40.3407 16.4424 40.1875C16.3063 39.728 16.1861 39.2603 16.042 38.8007C15.9859 38.6153 15.8978 38.5105 15.6576 38.5911C15.4974 38.6476 15.3052 38.5992 15.0409 38.5992C14.9769 38.7927 14.8808 39.0588 14.7847 39.3248C14.7446 39.3329 14.6966 39.3409 14.6565 39.349C14.5765 39.1152 14.5044 38.8814 14.4083 38.6476C14.3522 38.5105 14.2721 38.3895 14.2001 38.2605C14.112 38.3895 14.0319 38.5266 13.9438 38.6556C13.9118 38.7121 13.8797 38.7685 13.7996 38.9217C13.6395 38.6072 13.5193 38.3573 13.3832 38.0912C12.2941 38.0509 12.6544 39.0265 12.4062 39.5748C12.3661 39.5828 12.3261 39.5909 12.2781 39.599C12.19 39.349 12.0618 39.1152 12.0298 38.8572C11.9897 38.5508 12.0538 38.2444 12.0458 37.93C12.0458 37.8252 11.9737 37.7284 11.9337 37.6236C11.8216 37.68 11.6534 37.7042 11.6134 37.7848C11.5173 38.0267 11.4692 38.2928 11.317 38.575C11.261 38.3492 11.1809 38.1235 11.1649 37.8977C11.1168 37.2043 11.0768 36.519 11.0528 35.8256C11.0207 35.0838 11.277 34.7291 11.9817 34.463C12.246 34.3582 12.4863 34.1728 12.7586 34.0679C12.9828 33.9793 13.2631 33.8664 13.4793 33.9228C14.0559 34.0599 14.6245 34.2453 15.1691 34.4791C15.6175 34.6726 16.05 34.7855 16.5465 34.7936C17.011 34.8016 17.4755 34.971 17.924 35.1322C18.2523 35.2532 18.5246 35.3419 18.8689 35.1564C19.0451 35.0677 19.3494 35.1 19.5497 35.1887C20.0302 35.3902 20.5027 35.3499 20.9992 35.2773C21.776 35.1725 22.5528 35.1322 23.3376 35.0435C23.5699 35.0193 23.8101 34.9629 24.0183 34.8662C24.3627 34.7049 24.699 34.5114 25.0194 34.3018C25.2196 34.1647 25.3798 33.9551 25.572 33.8019C26.0204 33.431 26.525 33.3907 27.0775 33.5439C27.2697 33.6003 27.502 33.5116 27.7182 33.4955C27.8463 33.4874 27.9825 33.4713 28.1106 33.4632C28.511 33.431 28.9115 33.3987 29.3199 33.3746C29.6642 33.3504 30.0166 33.2617 30.3369 33.3342C31.0337 33.4955 31.5142 33.1004 32.0027 32.7537C32.0988 32.6892 32.1228 32.3022 32.0267 32.2055C31.5462 31.7136 31.5863 31.1815 31.7704 30.601C31.9787 29.9398 32.339 29.4158 33.0037 29.1658C33.5723 28.9481 33.7485 28.6176 33.6124 28.029C33.5964 27.9725 33.5563 27.9161 33.5083 27.8758C33.26 27.65 33.0198 27.4082 32.7475 27.2147C32.6514 27.1502 32.4672 27.1663 32.339 27.2147C32.259 27.2388 32.1548 27.392 32.1709 27.4727C32.267 28.0612 31.8025 28.4321 31.6263 28.9239C31.4501 28.545 31.1858 28.1902 31.2819 27.7549C31.346 27.4565 31.2099 27.2953 30.9696 27.2711C30.8174 27.255 30.6333 27.392 30.4891 27.4888C30.3369 27.5936 30.1848 27.7145 30.0647 27.8597C29.9445 28.0048 29.8564 28.1822 29.7203 28.3999C29.5361 28.037 29.6722 27.6904 29.7043 27.3678C29.7283 27.1502 29.8725 26.9405 29.9125 26.7228C29.9365 26.5858 29.9045 26.4084 29.8244 26.2955C29.7844 26.2391 29.5842 26.2794 29.464 26.3116C29.2078 26.3842 28.9595 26.4729 28.6792 26.5696C28.5271 26.0939 28.8634 25.8037 29.1357 25.5215C29.416 25.2312 29.7603 24.9974 30.1608 24.6749C30.0086 24.5943 29.8885 24.5378 29.6883 24.433C30.0967 24.3201 30.361 24.2073 30.6413 24.1831C31.0177 24.1589 31.1057 23.9089 31.1538 23.6348C31.346 22.4496 31.8425 21.4095 32.5393 20.4581C32.7875 20.1195 33.1399 19.8615 33.4282 19.5551C33.5643 19.418 33.7245 19.2568 33.7725 19.0875C34.1249 17.7571 35.0459 16.9589 36.2071 16.3623C36.2391 16.3461 36.2792 16.33 36.2952 16.3219C36.1831 15.2819 36.079 14.2498 35.9668 13.2017C35.3021 12.8469 34.9898 12.1213 34.5413 11.5085C34.5013 11.4521 34.4613 11.3795 34.4052 11.3473C33.8446 10.9925 33.1959 10.7184 32.7314 10.2669C32.283 9.83148 31.7464 9.69441 31.2259 9.46866C30.7854 9.27515 30.345 9.08165 29.9205 8.85589C29.7363 8.75914 29.5922 8.58176 29.392 8.40438C29.1197 8.32375 28.7673 8.24313 28.439 8.11413C27.8223 7.87224 27.2377 7.56586 26.6131 7.36429C26.1406 7.2111 25.62 7.19498 25.1315 7.0821C24.9313 7.03372 24.7471 6.91278 24.5629 6.81603C24.4988 6.78378 24.4348 6.72734 24.3707 6.72734C23.698 6.70315 22.9692 6.83215 22.3526 6.63059C21.5518 6.36452 20.7029 6.61446 19.9581 6.25971C19.0531 5.82432 18.1162 6.0662 17.1952 6.0017C17.0911 5.99364 16.971 6.03395 16.8749 6.0017C15.7857 5.62275 14.7606 6.09845 13.7035 6.20327C13.4313 6.22745 13.151 6.21133 12.8707 6.21939C12.7666 6.21939 12.6625 6.23552 12.5583 6.25164C11.6854 6.40483 10.8045 6.55802 9.9396 6.72734C9.65931 6.78378 9.37902 6.8886 9.10673 6.98535C8.45004 7.2111 7.76132 7.34011 7.12065 7.65455C6.03151 8.19475 4.84627 8.54145 3.78917 9.16228C3.10045 9.56541 2.36368 9.87986 1.6269 10.1943C1.4267 10.283 1.16242 10.2185 0.930176 10.2185C1.01827 10.0089 1.06632 9.75085 1.21848 9.60572C1.40267 9.42028 1.68296 9.32353 1.9072 9.17034C2.01131 9.09777 2.13143 8.99296 2.17147 8.88008C2.28359 8.5737 2.45978 8.38019 2.80414 8.34794C2.91625 8.33988 3.04439 8.227 3.10845 8.13025C3.31667 7.78355 3.55692 7.52555 3.90929 7.58199C4.13353 7.38042 4.31772 7.22723 4.4939 7.06597C4.582 6.98535 4.65407 6.89666 4.73416 6.80797C4.78221 6.75153 4.81424 6.64671 4.87831 6.62253C5.40686 6.38065 5.93541 6.15489 6.46397 5.91301C6.57608 5.85657 6.69621 5.79207 6.79231 5.7195C7.23277 5.38893 7.77734 5.21962 8.13772 4.73585C8.23382 4.59879 8.61021 4.64717 8.85847 4.65523C9.10673 4.65523 9.25088 4.5746 9.41906 4.37303C9.58723 4.17147 9.87554 4.01021 10.1318 3.95377C10.4922 3.88121 10.8606 4.01827 11.1489 3.58289C11.269 3.39745 11.7095 3.43776 12.0058 3.34907C12.1579 3.30876 12.3902 3.26038 12.4382 3.1475C12.6544 2.67987 13.0388 2.74437 13.4232 2.72824C13.6555 2.72018 13.8957 2.63955 14.128 2.59118C14.4083 2.53474 14.6966 2.40574 14.9689 2.42186C15.2411 2.44605 15.4334 2.42186 15.6015 2.20417C15.6416 2.15579 15.7056 2.09129 15.7617 2.09129C16.4344 2.0671 16.995 1.4624 17.7318 1.70428C17.8118 1.72847 17.924 1.6559 18.012 1.62365C18.6287 1.3979 19.2373 1.15602 19.854 0.954449C20.0222 0.89801 20.2384 0.914137 20.4066 0.970576C20.831 1.10764 21.1754 0.970575 21.5598 0.801259C21.776 0.704506 22.0563 0.74482 22.3045 0.728695C22.5448 0.712569 22.785 0.712569 23.0253 0.696443C23.0733 0.696443 23.1294 0.640005 23.1775 0.648068C24.0343 0.881886 24.9633 0.212681 25.7962 0.873822C25.8923 0.954449 26.1325 0.914137 26.2767 0.849635C26.613 0.704507 26.9014 0.591628 27.2377 0.881886C27.3338 0.962512 27.558 0.889948 27.7262 0.898011C27.9745 0.914136 28.2147 0.930262 28.463 0.962512C28.7833 1.00283 29.1037 1.10764 29.424 1.09958C29.7844 1.09152 30.0887 1.12377 30.377 1.38177C30.5452 1.5269 30.8335 1.58334 31.0737 1.5914C31.4821 1.59947 31.8665 1.57528 32.1629 1.9381C32.1949 1.97841 32.283 1.98648 32.347 1.97841C32.4111 1.97841 32.5072 1.91391 32.5393 1.9381C32.9317 2.26867 33.4442 2.18804 33.8847 2.35736C34.173 2.47024 34.4212 2.6718 34.6935 2.81693C34.7656 2.85725 34.8777 2.84918 34.9578 2.81693C35.3102 2.69599 35.5264 2.85725 35.6625 3.16363C35.7907 3.45389 35.9748 3.59095 36.3032 3.59901C36.4634 3.60708 36.7196 3.71189 36.7677 3.84089C36.9038 4.18759 37.1361 4.25209 37.4564 4.25209C37.5525 4.25209 37.6566 4.31659 37.7527 4.36497C39.0981 5.09868 40.4435 5.84044 41.7969 6.55802C43.2705 7.34011 44.3917 8.51726 45.4808 9.74279C46.0974 10.4442 46.6901 11.1618 47.3708 11.831C47.2346 11.5891 47.0664 11.3634 46.9623 11.1054C46.8823 10.9199 46.7942 10.6458 46.8742 10.5087C47.1786 9.98467 47.5149 9.46866 47.8993 9.00102C48.1155 8.74302 48.4439 8.69464 48.7722 8.92846C48.8924 9.01715 49.0685 9.04133 49.2287 9.06552C49.5651 9.12196 49.8774 9.15421 50.0135 9.56541C50.0536 9.68635 50.3499 9.74279 50.5341 9.7831C51.0706 9.88792 51.2388 9.97661 51.399 10.3072C50.7663 10.5894 50.7984 10.5974 51.2708 11.1779C52.1598 12.2664 52.7364 13.4839 52.4961 14.9513C52.4801 15.0642 52.5442 15.2093 52.6002 15.3222C52.9927 16.0559 52.9846 16.7896 52.5682 17.5072C52.2399 18.0716 51.9676 18.6924 51.2388 18.8939C52.5442 22.4818 52.5362 26.0456 51.2708 29.6415C52.2078 29.8028 52.9206 30.2946 53.5292 30.9638C53.5452 30.9799 53.5693 31.0041 53.5853 31.0202C54.0738 31.754 54.5943 32.4473 55.195 33.1004C55.4913 33.4229 55.5874 34.0034 55.6434 34.4791C55.7155 35.1403 55.6674 35.8176 55.6594 36.4948C55.6514 37.0834 55.8677 37.4059 56.3962 37.6155C56.7005 37.7365 56.9968 37.8897 57.2771 38.059C57.4293 38.1557 57.5414 38.3331 57.6695 38.4702C57.6455 38.4944 57.6295 38.5266 57.6055 38.5508C57.4453 38.5186 57.2932 38.4944 57.0849 38.4541C57.117 38.5427 57.117 38.6072 57.149 38.6234C57.4934 38.8814 57.8377 39.1394 58.1981 39.3813C58.6866 39.7199 58.5665 40.2682 58.6946 40.76C58.2782 40.3891 57.6055 40.7277 57.2851 40.1633C57.2451 40.0908 56.9808 40.1553 56.9168 40.1553C56.8687 40.8729 56.8287 41.5421 56.7886 42.2032C56.7566 42.2193 56.7165 42.2274 56.6845 42.2435C56.4282 41.9371 56.172 41.6308 55.9077 41.3324C55.8276 41.2437 55.6514 41.1228 55.6274 41.147C55.5153 41.2357 55.3711 41.3889 55.3872 41.4937C55.4272 41.7678 55.3071 41.8726 55.0908 41.9855C54.9627 42.05 54.8746 42.2032 54.7705 42.3241C54.6744 42.437 54.5863 42.566 54.4982 42.687C54.4582 42.6789 54.4181 42.6708 54.3781 42.6628C54.3621 42.4612 54.3301 42.2596 54.322 42.0581C54.306 41.7678 54.322 41.4776 54.306 41.1873C54.282 40.8648 54.0898 40.7842 53.8255 40.9696C53.7615 41.018 53.6974 41.0825 53.6253 41.0906C53.1768 41.1712 53.1688 41.1712 53.0167 41.6308C52.9366 41.4856 52.8725 41.405 52.8405 41.3002C52.7124 40.8245 52.9526 40.1633 53.369 39.9053C53.8095 39.6393 53.8736 38.8652 53.6493 38.5024C53.3931 38.0912 53.1208 37.6962 52.8725 37.285C52.6643 36.9383 52.5682 36.5916 52.7043 36.1723C52.8485 35.7208 52.6002 35.3741 52.1438 35.2532C51.423 35.0677 50.7103 34.8742 49.9575 34.6646C49.6612 35.0919 49.3408 35.5676 49.0045 36.0352C48.1476 37.2205 47.0825 38.1154 45.6249 38.4621C45.4407 38.5024 45.2726 38.6476 45.1124 38.7524C44.8561 38.9217 44.6159 39.1313 44.2715 38.9943C44.2155 38.9701 44.0953 39.0346 44.0473 39.0991C42.0372 41.792 39.5065 43.8238 36.3432 44.9606C35.0138 45.4363 33.6444 45.783 32.267 46.0975C31.7865 46.2023 31.2419 46.0572 30.7374 45.9685C30.5291 45.9282 30.377 45.8879 30.1928 46.033C28.5831 47.2666 26.8133 47.5085 24.8912 46.9602C23.69 46.6216 22.4887 46.5571 21.2635 46.9118C20.8951 47.0166 20.4706 46.9199 20.0782 46.9199C19.3174 46.9118 18.5646 46.9038 17.8038 46.9038C17.7398 46.9038 17.6677 46.9199 17.6116 46.9521C16.6746 47.5165 15.6576 47.1618 14.6726 47.2021C13.5674 47.2505 12.7025 46.6458 11.9177 45.9282C11.6214 45.654 11.6614 45.267 12.0058 44.9042C12.0858 44.8155 12.1419 44.6785 12.1579 44.5575C12.214 44.1705 12.246 43.7754 12.2861 43.3804C12.3421 43.3723 12.3982 43.3642 12.4462 43.3562C12.5023 43.5255 12.5423 43.7109 12.6224 43.8722C12.7105 44.0415 12.8386 44.3237 12.9588 44.3318C13.191 44.3398 13.4953 44.2673 13.4953 43.8883C13.4953 43.7432 13.5914 43.5981 13.7436 43.4287C13.8237 43.6061 13.8957 43.7835 13.9758 43.977C14.3122 43.719 14.6726 43.4932 14.9609 43.1949C15.097 43.0498 15.089 42.7676 15.145 42.5499C15.2331 42.2274 15.2412 41.8646 15.6416 41.5904C15.6816 42.1629 15.7136 42.6708 15.7537 43.1707C15.8097 43.1869 15.8578 43.203 15.9139 43.211C16.034 42.9853 16.1461 42.7515 16.3063 42.4451C16.4104 42.695 16.4824 42.8724 16.5625 43.0578C16.7067 43.0578 16.8428 43.0578 16.979 43.0578C17.0671 42.7998 17.1471 42.558 17.2673 42.1871C17.3794 42.4128 17.4114 42.5499 17.4915 42.6386C17.5796 42.7353 17.7157 42.8482 17.8359 42.8482C18.0361 42.8563 18.1882 42.7515 18.1802 42.5015C18.1722 42.3403 18.2123 42.171 18.2283 41.9452C18.4525 42.0823 18.6047 42.179 18.7648 42.2838C18.8529 42.1226 18.941 41.9694 19.0451 41.7839C19.7659 42.1629 19.3334 41.405 19.4616 41.2518C19.7178 41.2679 19.918 41.2841 20.1102 41.2921C20.0302 41.1228 20.0462 40.9051 20.0622 40.6874ZM34.3572 24.2234C34.3251 24.2153 34.2931 24.2073 34.2691 24.1911C33.8046 24.5217 33.3401 24.8603 32.8276 25.2232C32.9397 25.5457 33.0278 25.9004 33.1959 26.2149C33.3801 26.5696 33.6364 26.8841 33.5003 27.3275C33.4762 27.4162 33.5323 27.5372 33.5563 27.642C33.8206 26.489 34.0849 25.3602 34.3572 24.2234Z"/>
    </symbol>
    <symbol id="side-bar-koala" viewBox="0 0 44 55">
        <path fill-rule="evenodd" clip-rule="evenodd" d="M31.0579 23.3932C32.3131 21.8611 33.0329 20.1684 33.0637 18.2038C33.0679 17.99 33.2193 17.7792 33.37 17.5692L33.3701 17.5691C33.4415 17.4696 33.5128 17.3702 33.5682 17.2709C33.8614 16.7387 34.1736 16.2134 34.4859 15.6878C35.196 14.4929 35.907 13.2964 36.3984 12.0135C37.469 9.21492 36.823 7.49746 34.4973 5.71205C34.6449 3.84014 35.3833 2.55514 37.4382 2.18446C38.4108 2.01038 39.3543 1.67287 40.3847 1.30431C40.8534 1.13662 41.3402 0.962508 41.8558 0.794434C40.3115 5.47111 38.8472 9.90067 37.3152 14.5341L37.6729 14.4575L37.675 14.457C39.6684 14.0302 41.4922 13.6396 43.3324 13.2491C43.8 14.0831 43.437 14.5217 42.7295 14.9233L42.3071 15.1613L42.3071 15.1613C40.4963 16.1814 38.6805 17.2043 36.9337 18.3335C36.3492 18.7104 35.8447 19.3899 35.5801 20.0386C35.1455 21.1144 34.7922 22.2234 34.4296 23.3615L34.4294 23.3621C34.2736 23.8511 34.1161 24.3456 33.9497 24.845L31.0579 23.3932ZM36.4045 23.1469C38.2072 24.4937 38.964 27.3911 38.1396 29.6028C37.4197 31.5241 35.7523 32.4385 33.2667 32.1543C32.5518 32.0712 31.8484 31.9118 31.1453 31.7525L31.1453 31.7525L31.1452 31.7525L31.1452 31.7525C30.6986 31.6513 30.2521 31.5501 29.8027 31.4685C27.2433 30.9928 25.0529 31.3512 23.564 32.5003C23.9085 32.5435 24.2039 32.5806 24.653 32.6362C24.2684 33.3631 24.0728 34.1509 23.8832 34.9144C23.6087 36.0196 23.3468 37.074 22.5426 37.8194C23.001 38.1412 23.4904 38.4579 23.9911 38.7819C25.1435 39.5277 26.3553 40.3119 27.3848 41.2852C29.7781 43.5463 29.6305 46.9257 27.2802 49.4277C26.5751 49.178 25.8689 48.9283 25.162 48.6783L25.1602 48.6776C22.4749 47.728 19.7781 46.7743 17.0853 45.8013C16.6387 45.639 16.2127 45.4177 15.787 45.1965C15.5968 45.0977 15.4067 44.999 15.2149 44.9055C12.4277 43.5649 10.9819 41.3161 10.7358 38.2457C10.422 34.3598 11.1787 30.616 12.0709 26.9092C12.1317 26.8975 12.1818 26.8822 12.2236 26.8694C12.2919 26.8486 12.338 26.8345 12.3723 26.8536C18.4142 29.9797 23.9762 28.5649 29.2367 24.9447C30.1288 24.3331 30.8056 24.3022 31.6608 24.7532C32.1654 25.0188 32.676 25.2721 33.1929 25.5069C34.6756 26.1802 35.3463 25.9146 35.9431 24.4072C36.0422 24.1545 36.1342 23.8971 36.228 23.635L36.2282 23.6343C36.2857 23.4736 36.3438 23.3112 36.4045 23.1469ZM30.1993 36.3123C30.5946 35.1093 31.0061 33.8574 31.4457 32.5172C30.9879 32.5024 30.5442 32.4866 30.1111 32.4711L30.1101 32.4711L30.1093 32.471C28.733 32.4219 27.464 32.3766 26.1914 32.3813C25.9207 32.3813 25.5085 32.7149 25.41 32.9867C25.0102 34.1136 24.6506 35.2539 24.304 36.353C24.1813 36.7422 24.0602 37.1263 23.9395 37.5028L25.1533 38.3928L25.1537 38.3931C26.331 39.2566 27.477 40.0971 28.6709 40.9686C29.1702 39.4432 29.6696 37.924 30.1976 36.3174L30.1982 36.3154L30.1993 36.3123ZM17.9038 54.7085C18.6791 52.3979 19.3989 50.2542 20.1619 47.9869C22.063 48.5862 23.8596 49.1545 25.7792 49.7662C25.6753 50.0883 25.5737 50.4053 25.4735 50.7181C25.0934 51.9051 24.7326 53.0315 24.3333 54.1463C24.2472 54.381 23.8965 54.6776 23.6627 54.6838C22.2451 54.7169 20.8203 54.7138 19.3138 54.7105C18.8522 54.7095 18.3829 54.7085 17.9038 54.7085ZM9.44763 15.4518L9.44766 15.4519C10.011 16.3225 10.5581 17.1681 10.9512 18.0807C11.6772 19.7796 11.991 21.6947 10.5636 23.1527C9.09928 24.6416 7.27809 23.9806 5.6538 23.2639C4.70014 22.8438 3.76494 22.2693 2.97741 21.5835C-0.0189243 18.9579 0.276399 14.9485 3.60497 12.7491C5.79531 11.3035 8.20099 11.0811 10.6251 11.9522C11.6772 12.329 12.2679 12.051 13.0923 11.4271C14.4767 10.383 15.9656 9.38835 17.553 8.71496C20.457 7.47938 23.2934 7.85623 25.8775 9.74667C26.4497 10.1668 27.028 10.5745 27.7663 10.7969C27.2618 10.1853 26.7573 9.57987 26.1851 8.89412C28.117 7.12724 30.2397 6.08935 32.8546 6.52798C34.7065 6.83688 35.7032 8.08481 35.6602 9.9629C35.611 12.2302 34.4789 14.0465 33.2422 15.8628C30.8488 13.4905 30.1536 10.7042 31.3595 8.60994C30.1905 8.85705 29.5875 9.57987 29.8398 10.8711C30.0859 12.1375 30.492 13.4102 31.0457 14.5716C32.6085 17.8644 32.1224 21.1078 29.323 23.4246C25.5268 26.5753 21.1277 27.4587 16.3655 26.2479C15.4488 26.0131 14.5751 25.4756 13.7814 24.9258C12.8401 24.2771 12.4032 23.4307 12.5509 22.1148C12.6986 20.7372 12.5017 19.2545 12.151 17.8953C11.6834 16.1161 10.4282 14.9114 8.68089 14.238C8.93117 14.6536 9.19108 15.0553 9.44763 15.4518ZM26.7312 23.9807C26.7441 23.9248 26.7555 23.868 26.7657 23.8107C26.8164 23.5237 26.8359 23.221 26.8549 22.9263L26.8549 22.926C26.8628 22.8039 26.8706 22.6831 26.8805 22.5654C26.8128 20.7552 26.296 19.1428 24.9547 17.9196C23.7734 16.8446 22.6105 17.1968 22.2291 18.7474L22.2153 18.8048C22.194 18.8957 22.1747 18.9864 22.1576 19.0767C21.8476 20.7142 22.2355 22.2515 23.1642 23.6531L23.1952 23.6999C23.3027 23.8619 23.4131 24.0283 23.5292 24.1897C24.0274 24.8834 24.6306 25.4862 25.5613 25.2469C25.5905 25.2395 25.62 25.2314 25.6498 25.2223C26.3238 25.0173 26.6023 24.5399 26.7312 23.9807ZM20.0895 18.8507L20.0895 18.8507C19.8078 18.5898 19.5919 18.39 19.4295 18.4266C19.1803 18.4827 18.9761 18.7317 18.7708 18.982C18.6821 19.09 18.5933 19.1984 18.5005 19.2915C18.5909 19.3748 18.6796 19.476 18.7684 19.5772C18.9694 19.8066 19.1707 20.0362 19.3926 20.0576C19.5884 20.0781 19.8058 19.8977 20.0896 19.6621L20.0896 19.6621C20.234 19.5423 20.3955 19.4083 20.5801 19.2792C20.3979 19.1362 20.2349 18.9853 20.0895 18.8507ZM28.64 16.8698L28.6397 16.8696L28.6401 16.8693C28.419 16.7319 28.2354 16.5995 28.0766 16.4851L28.0766 16.485C27.7716 16.2651 27.5585 16.1115 27.3481 16.1156C27.3427 16.1157 27.3372 16.116 27.3316 16.1165C27.0588 16.1345 26.5732 16.6188 26.6097 16.8018C26.6773 17.1293 27.0465 17.5741 27.348 17.6297C27.3759 17.6344 27.4044 17.635 27.4337 17.6318C27.5677 17.6187 27.7206 17.5227 27.9119 17.3842C27.9619 17.3482 28.0145 17.3092 28.07 17.268C28.2321 17.1479 28.4192 17.0092 28.64 16.8698Z"/>
    </symbol>
    <symbol id="side-bar-lion" viewBox="0 0 53 47">
        <path d="M12.6769 43.4852C12.408 42.1008 12.3213 40.7251 12.5641 39.3494C12.9457 37.164 14.0297 35.379 15.7728 34.0469C16.64 33.3851 17.6373 32.8975 18.5739 32.3229C19.1896 31.9485 19.8487 31.6176 20.3777 31.1474C21.7739 29.8849 23.1094 28.5615 24.4709 27.2641C25.2774 26.4979 26.0753 25.723 26.9338 24.8958C26.3528 24.8523 25.8324 24.8436 25.3208 24.7652C24.8091 24.6869 24.2975 24.5563 23.9246 24.0338C24.1067 24.0251 24.2368 24.0164 24.3669 24.0164C25.737 23.9729 26.4308 23.2763 26.4568 21.9442C26.4742 21.2999 26.3181 20.6468 26.2314 20.0025C25.8411 17.2772 26.5175 14.8219 28.1132 12.6103C28.2173 12.4623 28.33 12.3055 28.4601 12.1227C28.0178 12.0705 27.6189 12.053 27.2373 11.966C26.8644 11.8789 26.5175 11.7222 26.1533 11.6003C26.162 11.5567 26.1707 11.5132 26.1793 11.4784C26.4655 11.4174 26.7517 11.3652 27.0292 11.2955C29.0758 10.7557 30.5761 9.56284 31.4866 7.61248C31.8682 6.80273 32.3018 6.0104 32.7875 5.2616C33.646 3.94684 34.8688 3.11097 36.3864 2.71045C36.5251 2.67563 36.6552 2.63209 36.8373 2.57985C36.5598 2.41442 36.291 2.30123 36.0915 2.10967C35.9181 1.94424 35.8314 1.69174 35.7533 1.40441C36.4731 1.6482 36.9847 1.30863 37.5051 1.00388C38.3896 0.481466 39.3089 0.0896522 40.3669 0.133187C41.6677 0.194136 42.6563 0.84716 43.4801 1.81363C43.5929 1.94424 43.6969 2.08355 43.8097 2.23157C44.5121 1.71786 45.2146 1.85717 45.865 2.29252C46.2292 2.53631 46.5154 2.90201 46.8623 3.18934C47.4173 3.65951 47.955 4.17322 48.5707 4.56504C48.8742 4.75659 49.3165 4.72177 49.7674 4.80884C50.0623 5.65341 49.6113 6.2629 48.111 6.84627C48.484 7.49929 48.8568 8.15232 49.2297 8.80534C49.5073 9.28422 49.7241 9.7544 49.5593 10.3639C49.4899 10.6425 49.672 11.0517 49.8541 11.3217C50.3224 12.0008 50.8514 12.6364 51.3544 13.2894C51.6146 13.6377 51.8661 13.9947 52.1176 14.343C52.3604 14.6825 52.3604 15.0134 52.1089 15.3443C51.788 15.7535 51.5105 16.215 51.1203 16.5458C50.5392 17.0334 50.0623 17.5907 49.5766 18.174C48.9002 18.9925 47.9289 19.0273 47.1311 18.3134C46.9316 18.1305 46.7148 17.9303 46.5934 17.6952C46.3159 17.1379 45.839 16.9289 45.2926 16.7809C44.7723 16.6416 44.252 16.5197 43.749 16.3456C43.3327 16.1976 42.9425 15.9973 42.5436 15.8145C42.4742 16.0844 42.5002 16.3108 42.8471 16.5458C43.3501 16.8767 43.8877 17.1466 44.4427 17.3991C44.6856 17.5123 44.8243 17.6168 44.911 17.8867C45.2926 19.1492 45.7002 20.403 46.1165 21.6481C46.5241 22.8758 46.5587 24.1383 46.5154 25.4183C46.4634 26.8549 46.2292 28.2393 45.7956 29.5976C45.4834 30.5641 45.1365 31.191 44.6942 31.6263C44.3994 30.8514 44.1132 30.0852 43.8184 29.3277C43.775 29.3364 43.7316 29.3451 43.6883 29.3538C43.7577 30.12 43.801 30.8862 43.9051 31.6525C44.382 35.0133 45.1105 38.3307 46.0818 41.5871C46.2119 42.0051 46.446 42.4143 46.6975 42.7713C47.1658 43.433 47.8422 43.6594 48.6314 43.5897C49.5419 43.5114 50.0189 43.79 50.227 44.6781C50.3831 45.3572 50.3918 46.0712 50.4699 46.8026C47.8075 46.8026 45.2753 46.8026 42.6476 46.8026C42.5696 45.7926 42.5175 44.7826 42.3961 43.7813C42.3354 43.2414 42.2574 42.6755 42.0146 42.2053C41.4769 41.1779 40.8438 40.2114 40.2281 39.2275C39.3522 37.8344 38.459 36.45 37.5831 35.0743C35.8053 35.8144 33.9582 36.5893 32.059 37.3729C31.9983 37.8692 31.9289 38.4787 31.8595 39.0795C31.7642 39.9328 31.3479 40.5945 30.6628 41.0647C29.9083 41.5784 29.1105 42.0138 28.33 42.4839C28.1219 42.6145 27.9137 42.7539 27.7056 42.8845C27.723 42.9367 27.7316 42.9889 27.749 43.0412C28.0091 43.076 28.278 43.1457 28.5295 43.1283C29.5354 43.0586 30.5414 42.9628 31.556 42.8757C31.7988 42.8583 32.0417 42.8322 32.2932 42.8322C34.5739 42.8235 36.0222 44.4691 35.7533 46.8113C35.6146 46.82 35.4758 46.8287 35.3371 46.8287C27.9831 46.8287 20.6205 46.8374 13.2666 46.8287C12.5208 46.8287 11.749 46.7939 11.0292 46.611C10.4395 46.463 9.78907 46.1757 9.36414 45.749C7.67308 44.0599 6.78853 42.0399 7.56034 39.628C8.03731 38.1479 8.69639 36.7199 9.32945 35.292C9.74571 34.3516 10.214 33.4374 10.3788 32.4013C10.6736 30.5815 9.88446 28.9359 8.34083 28.1697C7.34354 27.6734 5.68717 28.4396 5.4617 29.5105C5.43568 29.6411 5.50506 29.8675 5.60045 29.9285C6.35492 30.4074 6.71048 31.1213 6.87525 31.9659C7.10072 33.1413 6.87525 34.9959 6.39828 35.9189C6.15546 35.5445 5.91265 35.1701 5.66983 34.7957C5.79991 36.3629 5.17552 37.5819 4.22159 38.6703C4.16956 38.6529 4.1262 38.6529 4.11752 38.6442C3.7533 37.6603 3.07687 36.9289 2.29638 36.2584C1.91481 35.9276 1.61996 35.5009 1.28175 35.1091C1.17768 35.3094 1.03026 35.5967 0.882833 35.884C0.440557 35.5009 0.163049 34.6999 0.284458 33.9163C0.466572 32.7669 0.952209 31.7918 2.1056 31.2955C2.21833 31.2432 2.30506 31.0691 2.35709 30.9298C2.9121 29.467 3.74462 28.2132 5.11481 27.4034C6.22484 26.7417 7.45628 26.4892 8.73975 26.6895C9.9365 26.8723 10.6823 27.656 11.1072 28.7617C11.7143 30.3377 11.6796 31.9659 11.3067 33.5593C11.0379 34.726 10.6129 35.8579 10.162 36.9724C9.77173 37.9563 9.3468 38.9228 9.22539 39.9937C9.01726 42.0486 10.5435 43.642 12.6769 43.4852Z"/>
    </symbol>
    <symbol id="side-bar-tiger" viewBox="0 0 64 54">
        <path d="M17.1229 37.4213C17.0882 37.4827 17.0592 37.5529 16.9897 37.6756C16.2153 36.3737 15.9906 34.9338 15.7165 33.5141C15.6669 33.4963 15.6087 33.4843 15.565 33.4753C15.3973 33.9052 15.1742 34.3085 15.0735 34.7447C14.7249 36.173 14.8303 37.6036 15.1714 39.0294C15.5888 40.7223 16.0062 42.4151 16.3625 44.1106C16.6275 45.3837 16.7821 46.6797 16.503 47.9853C16.1981 49.4227 15.5608 50.5859 14.1129 51.1326C13.4675 51.3727 12.8329 51.2876 12.2472 50.9536C11.676 50.6226 11.6018 50.0362 12.0954 49.6049C12.3887 49.3455 12.7227 49.0717 13.0832 48.9328C13.7955 48.6608 14.1609 48.1497 14.2173 47.4379C14.271 46.7788 14.2925 46.0903 14.1774 45.4421C13.8589 43.7087 13.4763 41.9926 13.0705 40.2792C12.6147 38.3576 12.348 36.4369 12.6808 34.4722C12.9704 32.7652 13.7089 31.3183 15.0623 30.2113C15.161 30.1327 15.251 30.0598 15.3498 29.9812C15.4108 29.9405 15.4689 29.9144 15.5794 29.8534C15.6646 30.1908 15.7323 30.5017 15.8087 30.8069C16.2631 28.6464 16.3972 26.3819 18.1974 24.735C20.8375 26.216 22.3011 28.5205 22.8904 31.4597C23.4205 28.104 21.4214 25.7881 19.4686 23.3903C19.9568 23.1025 20.4188 22.8323 20.8809 22.562C21.2732 22.3383 21.6655 22.1145 22.0606 21.8762C22.9498 21.3589 22.976 21.3414 23.5776 22.2118C24.1413 23.0438 24.6352 23.9224 25.1495 24.7747C25.246 24.9393 25.3337 25.1097 25.4795 25.254C25.3826 23.7033 24.7506 22.3317 23.9789 20.939C24.8624 20.451 25.7225 19.9658 26.6061 19.5159C26.7252 19.4491 26.967 19.5675 27.1157 19.659C28.7973 20.6987 29.7819 22.2801 30.4644 24.0885C30.6695 24.6258 30.8484 25.1805 31.0854 25.7091C31.0816 22.9897 29.7142 20.7735 28.3146 18.4898C29.3169 17.8207 30.2931 17.169 31.3303 16.4766C32.3135 17.5246 32.896 18.8784 33.5337 20.2207C33.5951 19.1748 33.3134 18.2181 32.8077 17.3219C32.6294 16.9958 32.4424 16.6754 32.2292 16.3726C31.9693 15.9992 31.9743 15.6651 32.2965 15.3355C32.9467 14.6852 33.5853 14.0173 34.2355 13.367C36.8209 15.0499 38.3689 17.349 38.9495 20.332C39.0911 18.762 38.6772 17.2831 38.1091 15.8562C37.5439 14.4146 36.6242 13.1969 35.469 12.0602C36.7872 10.8622 38.059 9.70794 39.3656 8.53042C40.5708 9.91358 41.5636 11.2605 42.0391 12.9273C41.9124 11.104 41.3205 9.4513 40.1614 7.91013C40.7805 7.61131 41.3239 7.31212 41.8908 7.08631C42.0129 7.04295 42.2373 7.17298 42.3918 7.27337C43.0709 7.71038 43.7961 7.95127 44.6225 7.90841C43.6704 7.70451 43.1362 7.03084 42.7152 6.24344C42.4141 5.69399 42.6141 5.36969 43.2076 5.31691C44.1968 5.21623 45.1771 5.08328 46.1545 4.92686C46.8264 4.82171 47.4748 4.60509 48.1468 4.49994C49.162 4.34371 50.0938 4.57389 51.0348 5.02683C51.7399 5.37018 52.5666 5.47971 53.3556 5.62714C53.836 5.72618 54.2794 6.1298 54.298 6.61341C54.3076 6.95045 54.3259 7.28167 54.3674 7.61008C54.489 8.53375 54.2086 9.30601 53.5789 10.0062C53.5205 9.91804 53.4709 9.86212 53.4387 9.79457C53.1518 9.09573 53.1576 9.10455 52.4363 9.26808C51.7529 9.43178 51.0958 9.65422 50.6258 10.2351C50.0833 10.9152 50.0242 11.7179 50.5058 12.3121C50.894 12.8034 51.9653 12.9405 52.6017 12.5919C52.7208 12.5251 52.84 12.4583 52.9591 12.3915C53.2781 13.1198 53.1689 13.676 52.5968 14.1597C52.1438 14.5384 51.647 14.8701 51.13 15.2661C50.5355 14.8998 49.903 14.4953 49.2532 14.1405C48.5888 13.7827 47.8985 13.5185 47.0232 13.7721C47.3612 13.9408 47.6147 14.0768 47.9643 14.2631C46.5224 14.8568 45.5528 15.784 45.015 17.2114C44.8304 16.686 44.6516 16.1693 44.4318 15.5529C44.1925 18.7781 46.6796 23.1213 51.5692 24.6016C51.3424 24.6766 51.1651 24.7315 50.9848 24.8009C50.9907 24.8478 50.988 24.9006 50.9939 24.9475C51.2005 24.9368 51.4013 24.9553 51.5991 24.9123C52.2797 24.7633 52.9514 24.5819 53.6379 24.4417C54.301 24.3042 54.9009 24.4888 55.5248 24.9373C54.6445 25.525 53.8339 26.0661 53.0321 26.6014C52.3464 27.0464 51.6666 27.5002 50.9693 27.9276C50.8327 28.006 50.6 28.0342 50.4688 27.9691C47.7185 26.6253 44.8012 26.0543 41.7776 26.0249C40.794 26.0201 39.9175 25.7785 39.1158 25.1944C38.903 25.0439 38.6554 24.9548 38.3585 24.924C38.6882 25.289 39.0093 25.6598 39.4003 26.0983C35.7379 26.6226 32.4119 27.8636 29.3555 29.8912C28.9668 29.2094 28.6014 28.563 28.2419 27.9253C28.21 27.9339 28.1867 27.9368 28.1547 27.9454C28.2075 28.1391 28.243 28.3444 28.3191 28.5352C28.694 29.5187 28.6178 30.4854 28.3089 31.4802C27.6015 33.7332 26.1245 35.4315 24.5427 37.0853C23.6661 38.0012 22.8829 39.0201 22.1113 40.0185C21.5225 40.7805 21.2162 41.6845 21.1983 42.6631C21.1987 42.8155 21.1525 42.9735 21.121 43.1727C20.9636 43.0869 20.8325 43.0218 20.6693 42.9272C20.6841 43.0064 20.6813 43.0592 20.6988 43.0856C21.4581 44.156 22.3939 44.8668 23.7989 44.6157C24.3166 44.5245 24.8086 44.6031 25.2261 45.1384C25.0343 45.2664 24.8513 45.3886 24.677 45.505C23.326 46.4068 21.9693 47.2999 20.6387 48.2135C20.3337 48.4172 20.1503 48.387 19.8646 48.1834C18.8559 47.4576 18.2307 46.4377 17.6577 45.3829C17.4472 44.9892 17.3906 44.4673 17.3982 44.0043C17.4061 42.4981 17.4984 40.9865 17.5005 39.4715C17.5075 38.78 17.3632 38.0877 17.2946 37.3958C17.2364 37.4219 17.184 37.4187 17.1229 37.4213ZM48.3832 5.9575C48.3747 6.03951 48.3749 6.1157 48.3663 6.19771C48.8177 6.32884 49.2663 6.51271 49.7292 6.5853C49.898 6.61249 50.1069 6.35857 50.2987 6.23056C50.1295 6.08908 49.963 5.81867 49.7971 5.81493C49.3228 5.8009 48.8487 5.90116 48.3832 5.9575Z"/>
        <path d="M30.5746 36.4963C30.4989 36.496 30.3271 36.4834 30.0623 36.4821C30.8264 37.1426 31.6385 37.1729 32.4504 37.0888C33.4164 36.9908 34.3765 36.8078 35.3425 36.7098C35.9129 36.6597 36.4633 36.7884 36.8227 37.3883C36.6978 37.4845 36.5874 37.5837 36.4654 37.6652C35.0182 38.6317 33.5769 39.6071 32.1094 40.5618C31.9089 40.6958 31.5917 40.7294 31.3501 40.6872C30.625 40.5606 29.9173 40.3842 29.2009 40.2136C28.3622 40.0102 27.8488 39.5386 27.7797 38.6176C27.7586 38.3008 27.5861 37.9833 27.4224 37.6981C27.098 37.1511 26.7301 36.6333 26.362 36.0774C27.7124 34.8318 28.2818 33.1661 28.9066 31.5271C29.1814 30.8217 29.6227 30.3488 30.3263 30.0443C30.9012 30.7039 31.3802 31.3894 31.17 32.3443C31.0807 32.7221 30.9855 33.0911 30.9312 33.4837C30.8083 34.4566 30.6972 35.4472 30.5746 36.4963Z"/>
        <path d="M35.0467 27.6946C36.8126 27.3424 38.436 27.0218 40.1147 26.6897C40.3691 28.4034 39.8843 30.1399 40.6507 31.7534C40.389 31.8519 40.1534 31.9329 39.915 32.0285C39.918 32.0901 39.9298 32.1459 39.9329 32.2075C40.3054 32.2004 40.6926 32.2346 41.0563 32.1571C41.6498 32.028 42.211 31.7932 42.8015 31.6406C43.4705 31.4737 43.9893 31.7636 44.4651 32.3113C43.8984 32.6898 43.3492 33.0566 42.8086 33.4176C41.8235 34.0756 40.85 34.7513 39.8473 35.3828C39.6671 35.4904 39.3528 35.5094 39.146 35.4439C38.3159 35.1966 37.7555 34.5781 37.4423 33.82C36.6138 31.8279 35.8609 29.7981 35.0467 27.6946Z"/>
    </symbol>
</svg>